<svg id="Layer_1" xmlns="http://www.w3.org/2000/svg" viewBox="0 0 24 17"><style>.st0-blue{fill:#2ec6c6}</style><path class="st0-blue" d="M12 0C5.4 0 0 5.4 0 12v4.5c0 .3.2.5.5.5h23c.3 0 .5-.2.5-.5V12c0-6.6-5.4-12-12-12zm2.4 4.9l.8-1.9c.1-.3.4-.4.7-.3.3.1.4.4.3.7l-.8 1.8c-.1.3-.4.4-.7.3-.3-.1-.4-.4-.3-.6zm-2.9-2.4c0-.3.2-.5.5-.5s.5.2.5.5v2c0 .3-.2.5-.5.5s-.5-.2-.5-.5v-2zM4.5 13h-2c-.3 0-.5-.2-.5-.5s.2-.5.5-.5h2c.3 0 .5.2.5.5s-.2.5-.5.5zm1-3.7c-.1.3-.4.4-.6.3L3 8.8c-.2-.1-.3-.4-.2-.6.1-.3.4-.4.7-.3l1.8.8c.2.1.3.4.2.6zM7 7.1c-.1.1-.5.1-.7-.1L4.9 5.6c-.2-.2-.2-.5 0-.7.2-.2.5-.2.7 0L7 6.3c.2.2.2.6 0 .8zm2.3-1.6c-.3.1-.5 0-.7-.3l-.7-1.8c-.1-.3 0-.5.3-.7.3-.1.5 0 .7.3l.8 1.8c0 .3-.1.6-.4.7zm4.1 7.9c-.8.8-2 .8-2.8 0-.8-.8-.8-2 0-2.8.7-.7 1.7-.8 2.4-.3l4.6-4.6c.2-.2.5-.2.7 0 .2.2.2.5 0 .7L13.7 11c.5.8.4 1.8-.3 2.4zm5.1-4.1c-.1-.3 0-.5.3-.7l1.8-.8c.3-.1.5 0 .7.3.1.3 0 .5-.3.7l-1.8.8c-.3.1-.6 0-.7-.3zm3 3.7h-2c-.3 0-.5-.2-.5-.5s.2-.5.5-.5h2c.3 0 .5.2.5.5s-.2.5-.5.5z"/></svg>