<?xml version="1.0" standalone="no"?>
<!DOCTYPE svg PUBLIC "-//W3C//DTD SVG 1.1//EN" "http://www.w3.org/Graphics/SVG/1.1/DTD/svg11.dtd" >
<svg xmlns="http://www.w3.org/2000/svg">
<metadata>Generated by IcoMoon</metadata>
<defs>
<font id="bb" horiz-adv-x="1024">
<font-face units-per-em="1024" ascent="960" descent="-64" />
<missing-glyph horiz-adv-x="1024" />
<glyph unicode="&#x20;" horiz-adv-x="512" d="" />
<glyph unicode="&#xe900;" glyph-name="add" d="M584.704 960h-145.408v-439.296h-439.296v-145.408h439.296v-439.296h145.408v439.296h439.296v145.408h-439.296v439.296z" />
<glyph unicode="&#xe901;" glyph-name="add-in-o" d="M563.2 704h-102.4v-204.8h-204.8v-102.4h204.8v-204.8h102.4v204.8h204.8v102.4h-204.8v204.8zM512 960c-282.624 0-512-229.376-512-512s229.376-512 512-512 512 229.376 512 512c0 282.624-229.376 512-512 512zM512 38.4c-225.28 0-409.6 183.296-409.6 409.6s184.32 409.6 409.6 409.6 409.6-183.296 409.6-409.6-183.296-409.6-409.6-409.6z" />
<glyph unicode="&#xe902;" glyph-name="addresses" d="M882.688 857.6h-221.184c-21.504 59.392-79.872 102.4-149.504 102.4s-128-43.008-149.504-102.4h-221.184c-59.392 0-106.496-46.080-106.496-102.4v-716.8c0-56.32 47.104-102.4 106.496-102.4h742.4c59.392 0 106.496 46.080 106.496 102.4v716.8c-1.024 56.32-48.128 102.4-107.52 102.4zM512 857.6c29.696 0 52.224-22.528 52.224-51.2s-24.576-51.2-52.224-51.2-52.224 22.528-52.224 51.2 22.528 51.2 52.224 51.2zM618.496 140.8h-371.712v102.4h370.688v-102.4zM777.216 345.6h-530.432v102.4h531.456v-102.4h-1.024zM777.216 550.4h-530.432v102.4h531.456v-102.4h-1.024z" />
<glyph unicode="&#xe903;" glyph-name="alert-in-o" d="M871.424 816.64c-96.256 94.208-224.256 145.408-359.424 143.36-137.216-3.072-266.24-57.344-363.52-156.672-98.304-98.304-150.528-227.328-148.48-364.544s56.32-264.192 152.576-359.424c93.184-92.16 217.088-143.36 350.208-143.36 2.048 0 6.144 0 9.216 0 286.72 5.12 516.096 237.568 512 521.216-3.072 136.192-56.32 264.192-152.576 359.424zM512-18.944c-123.904-1.024-240.64 45.056-328.704 130.048-87.040 86.016-137.216 202.752-138.24 328.704-3.072 124.928 46.080 242.688 135.168 332.8 88.064 89.088 206.848 140.288 332.8 143.36 2.048 0 5.12 0 9.216 0 121.856 0 234.496-46.080 319.488-130.048 87.040-86.016 137.216-201.728 138.24-327.68 4.096-260.096-205.824-473.088-467.968-477.184zM512 359.936c12.288 0 21.504 10.24 21.504 21.504v311.296c0 12.288-10.24 21.504-21.504 21.504-12.288 0-21.504-10.24-21.504-21.504v-311.296c0-12.288 9.216-21.504 21.504-21.504zM512 269.824c-24.576 0-45.056-20.48-45.056-45.056s20.48-45.056 45.056-45.056 45.056 20.48 45.056 45.056-20.48 45.056-45.056 45.056zM512 225.792v0 0z" />
<glyph unicode="&#xe904;" glyph-name="askfm" d="M1004.544 912.896c-78.848 25.6-191.488 47.104-306.176 47.104-465.92 0-678.912-352.256-678.912-683.008 0-204.8 116.736-340.992 286.72-340.992 110.592 0 232.448 54.272 320.512 216.064h4.096c-4.096-70.656-13.312-136.192-15.36-194.56h259.072c-4.096 121.856 15.36 314.368 38.912 441.344l91.136 514.048zM655.36 507.392c-45.056-240.64-151.552-352.256-234.496-352.256-77.824 0-110.592 78.848-110.592 175.104 0 182.272 124.928 415.744 305.152 415.744 28.672 0 61.44-8.192 82.944-12.288l-43.008-226.304z" />
<glyph unicode="&#xe905;" glyph-name="attach" d="M195.584-6.656c-50.176 0-99.328 19.456-138.24 56.32-76.8 73.728-76.8 195.584 0 270.336l521.216 509.952c49.152 48.128 114.688 74.752 184.32 74.752s135.168-26.624 184.32-74.752c49.152-48.128 76.8-111.616 76.8-180.224 0-67.584-26.624-132.096-76.8-180.224l-368.64-360.448c-9.216-8.192-21.504-8.192-30.72 0s-9.216 21.504 0 29.696l369.664 361.472c40.96 39.936 63.488 93.184 63.488 149.504s-22.528 110.592-63.488 149.504c-40.96 39.936-96.256 62.464-153.6 62.464s-112.64-21.504-153.6-62.464l-522.24-507.904c-59.392-57.344-59.392-152.576 0-209.92s155.648-57.344 215.040 0l498.688 489.472c25.6 24.576 25.6 65.536 0 90.112-24.576 24.576-67.584 24.576-92.16 0l-369.664-364.544c-9.216-8.192-21.504-8.192-30.72 0s-9.216 21.504 0 29.696l369.664 360.448c40.96 39.936 112.64 39.936 153.6 0 41.984-40.96 41.984-108.544 0-149.504l-498.688-488.448c-37.888-36.864-88.064-55.296-138.24-55.296z" />
<glyph unicode="&#xe906;" glyph-name="back-o" d="M891.904 570.88h-413.696c-6.144 0-9.216 5.12-11.264 7.168-3.072 3.072-4.096 8.192-4.096 12.288 0 6.144 3.072 10.24 5.12 12.288l133.12 138.24c24.576 24.576 36.864 56.32 36.864 90.112s-13.312 66.56-36.864 90.112c-23.552 24.576-56.32 37.888-90.112 37.888s-66.56-13.312-90.112-36.864l-374.784-361.472c-29.696-30.72-46.080-70.656-46.080-112.64 0-43.008 16.384-82.944 47.104-112.64 2.048-2.048 3.072-3.072 5.12-4.096l367.616-356.352c24.576-24.576 56.32-36.864 90.112-36.864s66.56 13.312 90.112 36.864c24.576 24.576 36.864 56.32 36.864 90.112s-13.312 66.56-36.864 90.112l-133.12 138.24c-2.048 2.048-5.12 5.12-5.12 11.264 0 4.096 2.048 5.12 5.12 8.192 2.048 2.048 5.12 2.048 11.264 2.048h414.72c69.632 0 131.072 62.464 131.072 133.12 0 0 0 0 0 0s0 1.024 0 1.024c-10.24 69.632-62.464 121.856-132.096 121.856zM891.904 376.32h-413.696c-21.504 0-40.96-4.096-56.32-19.456s-23.552-32.768-23.552-54.272c0-21.504 8.192-39.936 22.528-55.296l134.144-138.24c12.288-12.288 18.432-27.648 18.432-45.056s-6.144-32.768-18.432-45.056c-24.576-24.576-65.536-24.576-90.112 0l-373.76 362.496c-1.024 1.024-2.048 2.048-4.096 3.072-15.36 17.408-23.552 39.936-23.552 63.488 0 25.6 10.24 49.152 27.648 67.584l373.76 360.448c24.576 24.576 66.56 24.576 90.112 0 12.288-12.288 18.432-27.648 18.432-45.056s-6.144-32.768-19.456-45.056l-133.12-138.24c-14.336-15.36-22.528-35.84-22.528-56.32 0-21.504 8.192-41.984 23.552-57.344s34.816-24.576 56.32-24.576h414.72c34.816 0 63.488-31.744 63.488-66.56-1.024-34.816-29.696-66.56-64.512-66.56z" />
<glyph unicode="&#xe907;" glyph-name="balance" d="M681.984 406.016v447.488c0 72.704-176.128 106.496-342.016 106.496-163.84 0-339.968-33.792-339.968-106.496v-640c0-72.704 176.128-106.496 342.016-106.496v-63.488c0-72.704 176.128-106.496 342.016-106.496 163.84-1.024 339.968 31.744 339.968 105.472v256c0 73.728-176.128 107.52-342.016 107.52zM982.016 170.496c0-19.456-101.376-63.488-297.984-63.488s-299.008 44.032-299.008 63.488v72.704c62.464-34.816 183.296-51.2 297.984-51.2s236.544 16.384 297.984 51.2v-72.704zM640 725.504c0-19.456-101.376-63.488-297.984-63.488s-297.984 44.032-297.984 63.488v72.704c62.464-34.816 183.296-51.2 297.984-51.2s236.544 16.384 297.984 51.2v-72.704zM342.016 617.984c114.688 0 236.544 16.384 297.984 51.2v-72.704c0-19.456-101.376-63.488-297.984-63.488s-297.984 44.032-297.984 63.488v72.704c61.44-34.816 182.272-51.2 297.984-51.2zM342.016 489.984c114.688 0 236.544 16.384 297.984 51.2v-72.704c0-19.456-101.376-63.488-297.984-63.488s-297.984 44.032-297.984 63.488v72.704c61.44-34.816 182.272-51.2 297.984-51.2zM41.984 413.184c62.464-34.816 183.296-51.2 297.984-51.2 21.504 0 41.984 0 63.488 1.024-39.936-16.384-63.488-38.912-63.488-65.536v-21.504c-197.632 0-297.984 45.056-297.984 63.488 0 1.024 0 73.728 0 73.728zM982.016 298.496c0-19.456-101.376-63.488-297.984-63.488s-297.984 45.056-297.984 63.488c0 19.456 101.376 63.488 297.984 63.488 195.584 0 297.984-45.056 297.984-63.488zM618.496 402.944c7.168 4.096 15.36 6.144 21.504 10.24v-9.216c-7.168 0-14.336 0-21.504-1.024zM342.016 918.016c196.608 0 297.984-45.056 297.984-63.488s-101.376-64.512-297.984-64.512-297.984 44.032-297.984 63.488c-2.048 19.456 100.352 64.512 297.984 64.512zM41.984 213.504v72.704c62.464-34.816 183.296-51.2 297.984-51.2v-84.992c-195.584 0-297.984 44.032-297.984 63.488zM681.984-22.016c-196.608 0-297.984 45.056-297.984 63.488v72.704c62.464-34.816 183.296-51.2 297.984-51.2s236.544 16.384 297.984 51.2v-72.704c2.048-18.432-100.352-63.488-297.984-63.488z" />
<glyph unicode="&#xe908;" glyph-name="behance-in-o" d="M512 960c-277.504 0-502.784-229.376-502.784-512s225.28-512 502.784-512c277.504 0 502.784 229.376 502.784 512s-225.28 512-502.784 512zM512-20.992c-253.952 0-461.824 209.92-461.824 468.992s207.872 468.992 461.824 468.992c253.952 0 461.824-210.944 461.824-468.992 0-259.072-207.872-468.992-461.824-468.992zM488.448 590.336c10.24-15.36 16.384-32.768 16.384-53.248 0-21.504-5.12-38.912-16.384-52.224-6.144-7.168-15.36-14.336-26.624-20.48 18.432-6.144 31.744-17.408 40.96-30.72 9.216-14.336 13.312-31.744 13.312-51.2 0-20.48-5.12-39.936-15.36-56.32-6.144-11.264-15.36-20.48-24.576-27.648-11.264-8.192-24.576-14.336-39.936-17.408s-31.744-5.12-50.176-5.12h-158.72v352.256h169.984c43.008-1.024 73.728-13.312 91.136-37.888zM297.984 566.784v-77.824h84.992c15.36 0 27.648 3.072 36.864 9.216s14.336 16.384 14.336 30.72c0 16.384-6.144 27.648-18.432 32.768-11.264 4.096-24.576 5.12-41.984 5.12h-75.776zM297.984 431.616v-94.208h84.992c15.36 0 27.648 2.048 35.84 6.144 15.36 8.192 23.552 22.528 23.552 44.032 0 18.432-7.168 30.72-22.528 37.888-8.192 4.096-20.48 6.144-34.816 6.144h-87.040zM728.064 530.944c18.432-8.192 32.768-20.48 45.056-38.912 10.24-15.36 17.408-33.792 20.48-53.248 2.048-12.288 3.072-28.672 2.048-51.2h-188.416c1.024-25.6 10.24-44.032 27.648-55.296 10.24-6.144 22.528-10.24 37.888-10.24s27.648 4.096 37.888 12.288c5.12 4.096 10.24 10.24 14.336 17.408h69.632c-2.048-15.36-10.24-30.72-25.6-47.104-23.552-25.6-56.32-37.888-98.304-37.888-34.816 0-65.536 10.24-91.136 31.744-26.624 21.504-39.936 56.32-39.936 104.448 0 45.056 12.288 79.872 35.84 103.424s55.296 35.84 93.184 35.84c21.504 1.024 41.984-3.072 59.392-11.264zM626.688 472.576c-9.216-10.24-15.36-23.552-18.432-39.936h116.736c-1.024 18.432-7.168 31.744-18.432 40.96s-24.576 14.336-39.936 14.336c-16.384 0-30.72-5.12-39.936-15.36zM741.376 611.84h-150.528v-44.032h150.528v44.032z" />
<glyph unicode="&#xe909;" glyph-name="facebook-in-o" d="M512 960c-277.504 0-502.784-229.376-502.784-512s225.28-512 502.784-512 502.784 229.376 502.784 512-225.28 512-502.784 512zM512-22.016c-254.976 0-460.8 209.92-460.8 470.016 0 259.072 206.848 470.016 460.8 470.016 254.976 0 460.8-209.92 460.8-470.016 0-258.048-205.824-470.016-460.8-470.016zM583.68 634.368c21.504 0 45.056-6.144 45.056-6.144l14.336 83.968c0 0-29.696 10.24-100.352 10.24-43.008 0-67.584-16.384-87.040-40.96-18.432-22.528-18.432-60.416-18.432-83.968v-55.296h-56.32v-81.92h56.32v-285.696h105.472v283.648h82.944l6.144 81.92h-88.064v63.488c-1.024 23.552 18.432 30.72 39.936 30.72z" />
<glyph unicode="&#xe90a;" glyph-name="flickr-in-o" d="M512 960c-277.504 0-502.784-229.376-502.784-512s225.28-512 502.784-512c277.504 0 502.784 229.376 502.784 512s-225.28 512-502.784 512zM512-20.992c-253.952 0-461.824 209.92-461.824 468.992s207.872 468.992 461.824 468.992c253.952 0 461.824-210.944 461.824-468.992 0-259.072-207.872-468.992-461.824-468.992zM825.344 448c0-75.776-61.44-138.24-138.24-138.24-75.776 0-138.24 61.44-138.24 138.24 0 75.776 61.44 138.24 138.24 138.24 75.776 0 138.24-62.464 138.24-138.24zM475.136 448c0-75.776-61.44-138.24-138.24-138.24-75.776 0-138.24 61.44-138.24 138.24 0 75.776 61.44 138.24 138.24 138.24 75.776 0 138.24-62.464 138.24-138.24z" />
<glyph unicode="&#xe90b;" glyph-name="google-plus-in-o" d="M425.984 476.672c0-22.528 0-45.056 0-67.584 38.912-2.048 75.776-2.048 113.664-2.048-16.384-83.968-130.048-111.616-191.488-56.32-62.464 49.152-58.368 153.6 5.12 198.656 45.056 35.84 110.592 26.624 154.624-4.096 18.432 16.384 34.816 34.816 50.176 52.224-36.864 29.696-82.944 51.2-133.12 49.152-102.4 4.096-196.608-87.040-198.656-189.44-6.144-83.968 48.128-165.888 126.976-195.584s176.128-9.216 226.304 60.416c32.768 43.008 39.936 101.376 35.84 153.6-62.464 1.024-125.952 1.024-189.44 1.024zM795.648 476.672c0 19.456 0 38.912 0 56.32-19.456 0-36.864 0-56.32 0 0-19.456 0-38.912 0-56.32-19.456 0-38.912 0-56.32 0 0-19.456 0-36.864 0-56.32 19.456 0 38.912 0 56.32 0 0-19.456 0-38.912 0-56.32 19.456 0 36.864 0 56.32 0 0 19.456 0 38.912 0 56.32 19.456 0 38.912 0 56.32 0 0 19.456 0 36.864 0 56.32-17.408 0-36.864 0-56.32 0zM512 960c-277.504 0-502.784-229.376-502.784-512s225.28-512 502.784-512 502.784 229.376 502.784 512-225.28 512-502.784 512zM512-22.016c-254.976 0-460.8 209.92-460.8 470.016 0 259.072 206.848 470.016 460.8 470.016 254.976 0 460.8-209.92 460.8-470.016 0-258.048-205.824-470.016-460.8-470.016z" />
<glyph unicode="&#xe90c;" glyph-name="instagram-in-o" d="M512 960c-277.504 0-502.784-229.376-502.784-512s225.28-512 502.784-512c277.504 0 502.784 229.376 502.784 512s-225.28 512-502.784 512zM512-20.992c-253.952 0-461.824 209.92-461.824 468.992s207.872 468.992 461.824 468.992c253.952 0 461.824-210.944 461.824-468.992s-207.872-468.992-461.824-468.992zM754.688 615.936c-6.144 16.384-15.36 30.72-29.696 45.056s-28.672 22.528-45.056 29.696c-16.384 6.144-34.816 10.24-62.464 12.288-27.648 1.024-35.84 1.024-105.472 1.024s-77.824 0-105.472-2.048c-27.648-1.024-46.080-5.12-62.464-12.288-16.384-6.144-30.72-15.36-45.056-29.696s-22.528-27.648-29.696-44.032c-6.144-16.384-10.24-34.816-12.288-62.464-1.024-27.648-1.024-35.84-1.024-105.472s0-77.824 2.048-105.472c1.024-27.648 5.12-46.080 12.288-62.464 6.144-16.384 15.36-30.72 29.696-45.056s28.672-22.528 45.056-29.696c16.384-6.144 34.816-10.24 62.464-12.288 26.624-1.024 34.816-1.024 104.448-1.024s77.824 0 105.472 2.048c27.648 1.024 46.080 5.12 62.464 12.288 16.384 6.144 30.72 15.36 45.056 29.696s22.528 28.672 29.696 45.056c6.144 16.384 10.24 34.816 12.288 62.464 1.024 26.624 1.024 34.816 1.024 104.448s0 77.824-2.048 105.472c-1.024 27.648-5.12 46.080-11.264 62.464zM719.872 344.576c-1.024-24.576-5.12-38.912-9.216-47.104-5.12-12.288-10.24-20.48-19.456-29.696s-17.408-14.336-29.696-19.456c-9.216-3.072-22.528-7.168-47.104-9.216-26.624-1.024-34.816-1.024-103.424-1.024s-76.8 0-103.424 1.024c-24.576 1.024-38.912 5.12-47.104 9.216-12.288 5.12-20.48 10.24-29.696 19.456s-14.336 17.408-19.456 29.696c-3.072 9.216-7.168 22.528-9.216 47.104-1.024 26.624-1.024 34.816-1.024 103.424s0 76.8 1.024 103.424c1.024 24.576 5.12 38.912 9.216 47.104 5.12 12.288 10.24 20.48 19.456 29.696s17.408 14.336 29.696 19.456c9.216 3.072 22.528 7.168 47.104 9.216 26.624 1.024 34.816 1.024 103.424 1.024s76.8 0 103.424-1.024c24.576-1.024 38.912-5.12 47.104-9.216 12.288-5.12 20.48-10.24 29.696-19.456s14.336-17.408 19.456-29.696c3.072-9.216 7.168-22.528 9.216-47.104 1.024-26.624 1.024-34.816 1.024-103.424 1.024-68.608 1.024-76.8-1.024-103.424zM512 579.072c-72.704 0-131.072-58.368-131.072-131.072s58.368-131.072 131.072-131.072c72.704 0 131.072 58.368 131.072 131.072s-58.368 131.072-131.072 131.072zM512 363.008c-47.104 0-84.992 37.888-84.992 84.992s37.888 84.992 84.992 84.992 84.992-37.888 84.992-84.992-37.888-84.992-84.992-84.992zM678.912 584.192c0-16.966-13.754-30.72-30.72-30.72s-30.72 13.754-30.72 30.72c0 16.966 13.754 30.72 30.72 30.72s30.72-13.754 30.72-30.72z" />
<glyph unicode="&#xe90d;" glyph-name="pinterest-in-o" d="M512 960c-277.504 0-502.784-229.376-502.784-512s225.28-512 502.784-512 502.784 229.376 502.784 512-225.28 512-502.784 512zM512-22.016c-254.976 0-460.8 209.92-460.8 470.016 0 259.072 206.848 470.016 460.8 470.016 254.976 0 460.8-209.92 460.8-470.016 0-258.048-205.824-470.016-460.8-470.016zM512 723.456c-148.48 0-270.336-122.88-270.336-274.432 0-112.64 66.56-208.896 161.792-250.88-1.024 19.456 0 41.984 5.12 62.464 5.12 21.504 34.816 149.504 34.816 149.504s-8.192 16.384-8.192 41.984c0 40.96 22.528 70.656 52.224 70.656 24.576 0 35.84-19.456 35.84-40.96 0-25.6-15.36-62.464-24.576-97.28-6.144-29.696 14.336-52.224 41.984-52.224 51.2 0 86.016 66.56 86.016 145.408 0 60.416-39.936 105.472-112.64 105.472-81.92 0-133.12-61.44-133.12-132.096 0-24.576 6.144-40.96 18.432-53.248 5.12-6.144 5.12-9.216 4.096-15.36-1.024-5.12-4.096-16.384-5.12-21.504-1.024-6.144-7.168-9.216-14.336-6.144-36.864 15.36-55.296 57.344-55.296 104.448 0 77.824 63.488 172.032 193.536 172.032 102.4 0 169.984-75.776 169.984-157.696 0-107.52-59.392-188.416-146.432-188.416-29.696 0-56.32 16.384-65.536 34.816 0 0-15.36-62.464-19.456-75.776-5.12-21.504-16.384-41.984-26.624-59.392 24.576-7.168 50.176-11.264 76.8-11.264 148.48 0 270.336 122.88 270.336 274.432 1.024 152.576-120.832 275.456-269.312 275.456z" />
<glyph unicode="&#xe90e;" glyph-name="tumblr-in-o" d="M512 960c-277.504 0-502.784-229.376-502.784-512s225.28-512 502.784-512c277.504 0 502.784 229.376 502.784 512s-225.28 512-502.784 512zM512-20.992c-253.952 0-461.824 209.92-461.824 468.992s207.872 468.992 461.824 468.992c253.952 0 461.824-210.944 461.824-468.992 0-259.072-207.872-468.992-461.824-468.992zM677.888 322.048c0 1.024-1.024 2.048-2.048 2.048h-75.776c-1.024 0-2.048 1.024-2.048 2.048-1.024 3.072-1.024 7.168-1.024 12.288v122.88c0 1.024 1.024 2.048 2.048 2.048h89.088c1.024 0 2.048 1.024 2.048 2.048v126.976c0 1.024-1.024 2.048-2.048 2.048h-89.088c-1.024 0-2.048 1.024-2.048 2.048v122.88c0 1.024-1.024 2.048-2.048 2.048h-156.672c-11.264 0-24.576-8.192-25.6-23.552-8.192-63.488-36.864-101.376-92.16-119.808l-6.144-2.048c-1.024 0-2.048-1.024-2.048-2.048v-108.544c0-1.024 1.024-2.048 2.048-2.048h56.32c0 0 0-101.376 0-133.12 0-106.496 73.728-156.672 209.92-156.672 55.296 0 109.568 19.456 126.976 43.008l4.096 5.12-33.792 100.352zM685.056 224.768c-17.408-16.384-52.224-28.672-86.016-29.696-1.024 0-2.048 0-4.096 0v0c-110.592 0-140.288 84.992-140.288 134.144v153.6c0 1.024-1.024 2.048-2.048 2.048h-53.248c-1.024 0-2.048 1.024-2.048 2.048v69.632c0 1.024 1.024 2.048 1.024 2.048 57.344 22.528 89.088 66.56 97.28 135.168 0 4.096 4.096 4.096 4.096 4.096h71.68c1.024 0 2.048-1.024 2.048-2.048v-122.88c0-1.024 1.024-2.048 2.048-2.048h89.088c1.024 0 2.048-1.024 2.048-2.048v-79.872c0-1.024-1.024-2.048-2.048-2.048h-89.088c-1.024 0-2.048-1.024-2.048-2.048v-146.432c1.024-32.768 16.384-49.152 47.104-49.152 12.288 0 26.624 3.072 39.936 8.192 1.024 0 3.072 0 3.072-1.024l22.528-67.584c0-2.048 0-3.072-1.024-4.096z" />
<glyph unicode="&#xe90f;" glyph-name="twitter-in-o" d="M512 960c-277.504 0-502.784-229.376-502.784-512s225.28-512 502.784-512 502.784 229.376 502.784 512-225.28 512-502.784 512zM512-22.016c-254.976 0-460.8 209.92-460.8 470.016 0 259.072 206.848 470.016 460.8 470.016 254.976 0 460.8-209.92 460.8-470.016 0-258.048-205.824-470.016-460.8-470.016zM774.144 626.176c-21.504-12.288-46.080-22.528-72.704-28.672-20.48 22.528-50.176 36.864-82.944 36.864-62.464 0-113.664-52.224-113.664-116.736 0-9.216 1.024-18.432 3.072-26.624-95.232 5.12-179.2 51.2-234.496 121.856-10.24-16.384-15.36-36.864-15.36-58.368 0-39.936 20.48-75.776 51.2-96.256-19.456 0-35.84 6.144-51.2 14.336v-1.024c0-56.32 39.936-102.4 91.136-113.664-9.216-2.048-19.456-4.096-29.696-4.096-7.168 0-14.336 1.024-21.504 2.048 14.336-46.080 56.32-79.872 106.496-80.896-38.912-30.72-88.064-50.176-142.336-50.176-9.216 0-18.432 0-26.624 1.024 50.176-32.768 110.592-52.224 174.080-52.224 209.92 0 323.584 176.128 323.584 329.728 0 5.12 0 10.24 0 15.36 21.504 16.384 40.96 36.864 56.32 60.416-20.48-9.216-41.984-15.36-65.536-18.432 23.552 15.36 41.984 38.912 50.176 65.536z" />
<glyph unicode="&#xe910;" glyph-name="bee" d="M299.008 233.984c-35.84 0-64.512-30.72-64.512-68.608s29.696-68.608 64.512-68.608c35.84 0 64.512 30.72 64.512 68.608s-28.672 68.608-64.512 68.608zM340.992 660.992c-29.696 122.88-145.408 176.128-251.904 110.592-107.52-66.56-117.76-199.68-31.744-289.792 76.8-81.92 165.888-150.528 264.192-220.16 9.216 136.192 51.2 265.216 19.456 399.36zM964.608 496.128c-54.272 54.272-150.528 68.608-224.256 28.672-31.744-17.408-59.392-43.008-89.088-64.512-68.608-49.152-190.464-150.528-190.464-150.528s-52.224-41.984-87.040-76.8c162.816-60.416 302.080-136.192 460.8-135.168 87.040 0 145.408 47.104 175.104 135.168 30.72 88.064 10.24 207.872-45.056 263.168z" />
<glyph unicode="&#xe911;" glyph-name="behance" d="M470.016 705.024c19.456-26.624 28.672-59.392 28.672-96.256 0-38.912-9.216-69.632-29.696-93.184-11.264-13.312-26.624-25.6-48.128-35.84 32.768-12.288 56.32-30.72 72.704-56.32s24.576-56.32 24.576-93.184c0-37.888-9.216-71.68-28.672-101.376-12.288-19.456-26.624-35.84-45.056-50.176-20.48-15.36-44.032-25.6-71.68-31.744s-57.344-8.192-89.088-8.192h-283.648v633.856h306.176c76.8-1.024 131.072-23.552 163.84-67.584zM125.952 662.016v-139.264h153.6c27.648 0 50.176 5.12 66.56 15.36 17.408 10.24 25.6 28.672 25.6 55.296 0 29.696-11.264 49.152-33.792 58.368-19.456 6.144-44.032 10.24-74.752 10.24h-137.216zM125.952 418.304v-168.96h153.6c27.648 0 49.152 4.096 64.512 11.264 27.648 14.336 41.984 39.936 41.984 78.848 0 32.768-13.312 55.296-39.936 67.584-15.36 7.168-35.84 10.24-63.488 10.24h-156.672zM902.144 597.504c32.768-14.336 59.392-37.888 80.896-69.632 19.456-27.648 31.744-60.416 37.888-96.256 3.072-21.504 5.12-52.224 4.096-93.184h-342.016c2.048-47.104 18.432-79.872 49.152-98.304 18.432-11.264 40.96-17.408 67.584-17.408 27.648 0 50.176 7.168 67.584 21.504 9.216 8.192 18.432 18.432 25.6 31.744h124.928c-3.072-27.648-18.432-56.32-45.056-84.992-41.984-45.056-100.352-68.608-176.128-68.608-62.464 0-117.76 19.456-164.864 57.344-48.128 37.888-71.68 101.376-71.68 187.392 0 80.896 21.504 143.36 64.512 186.368s98.304 64.512 166.912 64.512c40.96 2.048 77.824-5.12 110.592-20.48zM718.848 492.032c-17.408-17.408-28.672-41.984-32.768-72.704h210.944c-2.048 32.768-13.312 57.344-32.768 73.728s-44.032 25.6-72.704 25.6c-31.744 0-55.296-8.192-72.704-26.624zM925.696 742.912h-271.36v-78.848h271.36v78.848z" />
<glyph unicode="&#xe912;" glyph-name="cloud-upload-o" d="M763.904 696.832c-45.056 116.736-141.312 190.464-285.696 190.464-185.344 0-314.368-135.168-324.608-311.296-89.088-27.648-153.6-117.76-153.6-218.112 0-123.904 99.328-228.352 216.064-228.352h92.16c17.408 0 31.744 14.336 31.744 31.744s-14.336 31.744-31.744 31.744h-92.16c-81.92 0-152.576 75.776-152.576 165.888 0 78.848 56.32 150.528 126.976 162.816l28.672 5.12-3.072 28.672c0 153.6 102.4 269.312 261.12 269.312 126.976 0 198.656-61.44 231.424-166.912l7.168-21.504h23.552c118.784-4.096 223.232-99.328 223.232-217.088 0-107.52-72.704-227.328-182.272-227.328h-72.704c-17.408 0-31.744-14.336-31.744-31.744s14.336-31.744 31.744-31.744h72.704c160.768 4.096 243.712 155.648 243.712 290.816 0 145.408-115.712 262.144-260.096 277.504zM536.576 444.928c0 0-1.024 1.024 0 0l-8.192 9.216c-4.096 5.12-10.24 7.168-16.384 7.168s-12.288-2.048-16.384-7.168l-8.192-8.192c0 0 0 0 0-1.024l-115.712-125.952c-9.216-9.216-9.216-24.576 0-33.792l8.192-5.12c9.216-9.216 23.552-6.144 32.768 3.072l68.608 74.752v-317.44c0-17.408 14.336-31.744 31.744-31.744s31.744 14.336 31.744 31.744v317.44l70.656-76.8c9.216-9.216 23.552-12.288 32.768-3.072l8.192 5.12c9.216 9.216 9.216 24.576 0 33.792l-119.808 128z" />
<glyph unicode="&#xe913;" glyph-name="call-me" d="M972.8 228.864l-105.472 109.568c-47.104 48.128-129.024 48.128-175.104 0l-19.456-19.456c-102.4 88.064-200.704 190.464-287.744 294.912l19.456 19.456c48.128 50.176 48.128 130.048 0 180.224l-105.472 109.568c-48.128 50.176-126.976 50.176-175.104 0l-57.344-60.416c-57.344-60.416-67.584-154.624-21.504-225.28 169.984-265.216 395.264-496.64 652.288-671.744 29.696-20.48 62.464-29.696 96.256-29.696 45.056 0 89.088 17.408 122.88 52.224l57.344 60.416c22.528 24.576 35.84 56.32 35.84 91.136 0 32.768-14.336 65.536-36.864 89.088zM937.984 84.48l-57.344-60.416c-40.96-41.984-107.52-50.176-155.648-16.384-252.928 172.032-474.112 399.36-641.024 657.408-31.744 50.176-25.6 117.76 15.36 161.792l57.344 60.416c14.336 15.36 32.768 22.528 52.224 22.528s37.888-7.168 52.224-22.528l104.448-108.544c29.696-29.696 29.696-77.824 0-108.544l-34.816-35.84c-9.216-9.216-10.24-24.576-1.024-34.816 97.28-120.832 209.92-237.568 327.68-335.872 10.24-9.216 24.576-7.168 32.768 1.024l34.816 35.84c27.648 29.696 76.8 29.696 104.448 0l105.472-108.544c14.336-14.336 21.504-32.768 21.504-53.248 3.072-20.48-4.096-39.936-18.432-54.272zM651.264 566.784v0h221.184c14.336 0 24.576 11.264 24.576 25.6s-11.264 25.6-24.576 25.6h-161.792l283.648 296.96c10.24 10.24 10.24 25.6 0 35.84s-25.6 10.24-34.816 0l-283.648-295.936v167.936c0 14.336-11.264 25.6-24.576 25.6-14.336 0-24.576-11.264-24.576-25.6v-229.376c0-6.144 2.048-14.336 7.168-19.456 5.12-4.096 11.264-7.168 17.408-7.168z" />
<glyph unicode="&#xe914;" glyph-name="chat" d="M1024 604.672c0 168.96-187.392 305.152-417.792 305.152-232.448 0-415.744-136.192-415.744-305.152-2.048-191.488 178.176-320.512 408.576-320.512 8.192 0 15.36 0 21.504 0 15.36 0 28.672 0 46.080 3.072 18.432-21.504 138.24-111.616 220.16-123.904v0c1.024 0 4.096 0 6.144 0 13.312 0 23.552 10.24 23.552 23.552 0 4.096-1.024 6.144-3.072 9.216v0c-15.36 25.6-54.272 88.064-54.272 134.144 0 1.024 0 1.024 0 1.024 112.64 55.296 164.864 167.936 164.864 273.408zM832.512 387.584l-34.816-18.432 3.072-38.912c0 0-1.024-19.456 20.48-79.872-35.84 21.504-76.8 55.296-86.016 66.56l-40.96 33.792-35.84-3.072c-30.72-4.096-60.416-4.096-60.416-4.096-196.608 2.048-340.992 112.64-342.016 261.12 0 134.144 154.624 242.688 350.208 242.688s355.328-107.52 355.328-242.688c-1.024-80.896-40.96-173.056-129.024-217.088zM567.296 219.648c-55.296-41.984-118.784-62.464-206.848-62.464 0 0-35.84 0-49.152 1.024l-33.792 5.12c0 0-21.504-36.864-84.992-81.92 5.12 20.48 8.192 100.352 8.192 100.352l-31.744 15.36c-74.752 36.864-106.496 86.016-106.496 153.6 0 55.296 15.36 93.184 70.656 129.024-8.192 21.504-14.336 45.056-15.36 67.584-83.968-48.128-117.76-111.616-117.76-197.632 0-91.136 45.056-160.768 140.288-208.896v-1.024c0-39.936-20.48-105.472-34.816-126.976v0c-1.024-3.072-1.024-5.12-1.024-8.192 0-11.264 9.216-20.48 20.48-20.48 1.024 0 4.096 0 5.12 0v0c70.656 11.264 157.696 92.16 173.056 110.592 15.36-3.072 26.624-3.072 39.936-3.072 5.12 0 11.264 0 19.456 0 131.072 0 234.496 47.104 299.008 123.904-5.12 6.144-108.544 6.144-94.208 4.096z" />
<glyph unicode="&#xe915;" glyph-name="check" d="M325.632 222.72l-243.712 243.712-81.92-82.944 325.632-325.632 698.368 698.368-81.92 81.92-616.448-615.424z" />
<glyph unicode="&#xe916;" glyph-name="chekout-details" d="M817.152 580.096c-40.96-51.2-104.448-83.968-165.888-83.968-51.2 0-101.376 19.456-139.264 55.296-37.888-34.816-88.064-55.296-139.264-55.296-61.44 0-124.928 32.768-165.888 83.968-22.528-19.456-53.248-35.84-90.112-35.84-25.6 0-48.128 6.144-70.656 16.384v-565.248c0-12.288 10.24-24.576 22.528-24.576h882.688c12.288 0 22.528 10.24 22.528 24.576v564.224c-21.504-10.24-45.056-16.384-70.656-16.384-33.792 1.024-62.464 17.408-86.016 36.864zM512 161.28h-325.632v239.616h325.632v-239.616zM837.632 18.944h-186.368v381.952h185.344v-381.952h1.024zM837.632 734.72v-108.544c24.576-24.576 46.080-34.816 70.656-34.816 63.488 0 116.736 53.248 116.736 118.784v24.576h-187.392zM1009.664 781.824l-70.656 143.36h-149.504l41.984-143.36h178.176zM221.184 925.184h-136.192l-70.656-143.36h176.128l30.72 143.36zM488.448 925.184h-218.112l-30.72-143.36h250.88v143.36h-2.048zM740.352 925.184h-205.824v-143.36h247.808l-41.984 143.36zM186.368 626.176v108.544h-186.368v-24.576c0-65.536 53.248-118.784 116.736-118.784 23.552 0 45.056 10.24 69.632 34.816zM790.528 623.104v111.616h-256v-140.288c30.72-31.744 72.704-51.2 116.736-51.2 52.224 1.024 107.52 31.744 139.264 79.872zM372.736 544.256c43.008 0 86.016 19.456 116.736 51.2v140.288h-256v-111.616c31.744-49.152 87.040-79.872 139.264-79.872zM768 161.28c12.288 0 22.528 10.24 22.528 24.576 0 12.288-10.24 24.576-22.528 24.576s-22.528-10.24-22.528-24.576 9.216-24.576 22.528-24.576z" />
<glyph unicode="&#xe917;" glyph-name="classmate" d="M338.944 44.544c-33.792-44.032-79.872-63.488-135.168-63.488-115.712 0-200.704 94.208-188.416 205.824 8.192 75.776 75.776 143.36 154.624 156.672 61.44 10.24 115.712-4.096 159.744-50.176 15.36-16.384 15.36-22.528-1.024-36.864-10.24-9.216-20.48-19.456-30.72-28.672-14.336-13.312-18.432-13.312-32.768 0-37.888 33.792-89.088 31.744-121.856-5.12-30.72-33.792-29.696-87.040 2.048-120.832 31.744-32.768 82.944-35.84 118.784-6.144 27.648 22.528 27.648 22.528 55.296 0 5.12-5.12 10.24-9.216 16.384-13.312 16.384-14.336 16.384-19.456 3.072-37.888zM988.16 13.824c0-20.48-4.096-23.552-23.552-23.552-20.48 0-39.936 0-60.416 0-17.408 0-23.552 5.12-23.552 22.528v165.888c-1.024 65.536-55.296 94.208-112.64 62.464-18.432-10.24-29.696-21.504-28.672-47.104v-178.176c0-21.504-3.072-25.6-24.576-25.6-18.432 0-35.84 0-54.272 0-17.408 0-21.504 5.12-21.504 21.504 0 52.224 0 104.448 0 156.672 0 7.168 0 14.336 0 21.504-4.096 39.936-24.576 60.416-62.464 62.464-33.792 2.048-69.632-23.552-77.824-55.296-1.024-5.12-1.024-10.24-1.024-15.36v-165.888c0-23.552-2.048-26.624-26.624-26.624-19.456 0-37.888 0-57.344 0-17.408 0-22.528 5.12-22.528 22.528v299.008c0 23.552 4.096 26.624 27.648 26.624h6.144c28.672 0 29.696 0 38.912-26.624 4.096-11.264 6.144-15.36 17.408-5.12 61.44 54.272 163.84 55.296 217.088-6.144 7.168-8.192 10.24-3.072 15.36 1.024 47.104 38.912 100.352 54.272 159.744 39.936 62.464-14.336 95.232-57.344 108.544-117.76 3.072-16.384 5.12-32.768 5.12-49.152v-159.744zM899.072 646.656c0 0-7.168-26.624 0-38.912 9.216-9.216 10.24-17.408 1.024-25.6-4.096-4.096-3.072-8.192-3.072-12.288 11.264-53.248 11.264-108.544 17.408-162.816 1.024-9.216-3.072-14.336-11.264-16.384-4.096-1.024-4.096-1.024-13.312-2.048-4.096 0-8.192 1.024-12.288 2.048-8.192 3.072-12.288 7.168-11.264 16.384 6.144 54.272 5.12 109.568 17.408 162.816 1.024 4.096 1.024 9.216-3.072 12.288-9.216 9.216-8.192 17.408 1.024 25.6 5.12 8.192 3.072 22.528 1.024 31.744-13.312-5.12-96.256-40.96-134.144-57.344-9.216-4.096-12.288-7.168-10.24-17.408 7.168-34.816 12.288-70.656 18.432-105.472 4.096-21.504-5.12-32.768-26.624-33.792-24.576-1.024-48.128 5.12-71.68 11.264-99.328 24.576-198.656 24.576-297.984-2.048-20.48-5.12-40.96-9.216-62.464-9.216-25.6 1.024-33.792 11.264-29.696 36.864 5.12 33.792 10.24 67.584 17.408 101.376 2.048 12.288-1.024 15.36-11.264 19.456-87.040 36.864-173.056 72.704-259.072 109.568-4.096 2.048-9.216 4.096-15.36 7.168 53.248 22.528 104.448 44.032 155.648 65.536 114.688 48.128 229.376 97.28 343.040 145.408 7.168 3.072 14.336 5.12 22.528 2.048l502.784-212.992-124.928-53.248zM897.024 569.856c11.264-53.248 11.264-108.544 17.408-162.816 1.024-9.216-3.072-14.336-11.264-16.384-4.096-1.024-4.096-1.024-13.312-2.048-4.096 0-8.192 1.024-12.288 2.048-8.192 3.072-12.288 7.168-11.264 16.384 6.144 54.272 5.12 109.568 17.408 162.816 1.024 4.096 1.024 9.216-3.072 12.288-9.216 9.216-8.192 17.408 1.024 25.6 5.12 8.192 3.072 22.528 1.024 31.744-13.312-5.12-96.256-40.96-134.144-57.344-9.216-4.096-12.288-7.168-10.24-17.408 7.168-34.816 12.288-70.656 18.432-105.472 4.096-21.504-5.12-32.768-26.624-33.792-24.576-1.024-48.128 5.12-71.68 11.264-99.328 24.576-198.656 24.576-297.984-2.048-20.48-5.12-40.96-9.216-62.464-9.216-25.6 1.024-33.792 11.264-29.696 36.864 5.12 33.792 10.24 67.584 17.408 101.376 2.048 12.288-1.024 15.36-11.264 19.456-87.040 36.864-173.056 72.704-259.072 109.568-4.096 2.048-9.216 4.096-15.36 7.168 53.248 22.528 104.448 44.032 155.648 65.536 114.688 48.128 229.376 97.28 343.040 145.408 7.168 3.072 14.336 5.12 22.528 2.048l502.784-212.992-124.928-53.248c0 0-7.168-26.624 0-38.912 9.216-9.216 10.24-17.408 1.024-25.6-4.096-4.096-3.072-8.192-3.072-12.288zM988.16 174.592v-160.768c0-20.48-4.096-23.552-23.552-23.552-20.48 0-39.936 0-60.416 0-17.408 0-23.552 5.12-23.552 22.528v165.888c-1.024 65.536-55.296 94.208-112.64 62.464-18.432-10.24-29.696-21.504-28.672-47.104v-178.176c0-21.504-3.072-25.6-24.576-25.6-18.432 0-35.84 0-54.272 0-17.408 0-21.504 5.12-21.504 21.504 0 52.224 0 104.448 0 156.672 0 7.168 0 14.336 0 21.504-4.096 39.936-24.576 60.416-62.464 62.464-33.792 2.048-69.632-23.552-77.824-55.296-1.024-5.12-1.024-10.24-1.024-15.36v-165.888c0-23.552-2.048-26.624-26.624-26.624-19.456 0-37.888 0-57.344 0-17.408 0-22.528 5.12-22.528 22.528v299.008c0 23.552 4.096 26.624 27.648 26.624h6.144c28.672 0 29.696 0 38.912-26.624 4.096-11.264 6.144-15.36 17.408-5.12 61.44 54.272 163.84 55.296 217.088-6.144 7.168-8.192 10.24-3.072 15.36 1.024 47.104 38.912 100.352 54.272 159.744 39.936 62.464-14.336 95.232-57.344 108.544-117.76 5.12-15.36 6.144-31.744 6.144-48.128zM338.944 44.544c-33.792-44.032-79.872-63.488-135.168-63.488-115.712 0-200.704 94.208-188.416 205.824 8.192 75.776 75.776 143.36 154.624 156.672 61.44 10.24 115.712-4.096 159.744-50.176 15.36-16.384 15.36-22.528-1.024-36.864-10.24-9.216-20.48-19.456-30.72-28.672-14.336-13.312-18.432-13.312-32.768 0-37.888 33.792-89.088 31.744-121.856-5.12-30.72-33.792-29.696-87.040 2.048-120.832 31.744-32.768 82.944-35.84 118.784-6.144 27.648 22.528 27.648 22.528 55.296 0 5.12-5.12 10.24-9.216 16.384-13.312 16.384-14.336 16.384-19.456 3.072-37.888z" />
<glyph unicode="&#xe918;" glyph-name="close" d="M1024 832l-128 128-384-384-384 384-128-128 384-384-384-384 128-128 384 384 384-384 128 128-384 384 384 384z" />
<glyph unicode="&#xe919;" glyph-name="company" d="M917.504 725.504h-192.512v21.504c0 81.92-67.584 148.48-149.504 148.48h-128c-81.92 0-149.504-66.56-149.504-149.504v-21.504h-191.488c-58.368 0-106.496-47.104-106.496-106.496v-297.984c0-11.264 9.216-21.504 21.504-21.504h361.472v63.488c0 11.264 9.216 21.504 21.504 21.504h212.992c11.264 0 21.504-9.216 21.504-21.504v-63.488h361.472c11.264 0 21.504 9.216 21.504 21.504v297.984c1.024 59.392-46.080 107.52-104.448 107.52zM681.984 725.504h-339.968v21.504c0 58.368 47.104 106.496 106.496 106.496h128c58.368 0 106.496-47.104 106.496-106.496v-21.504zM959.488 256.512h-319.488v-21.504c0-11.264-9.216-21.504-21.504-21.504h-212.992c-11.264 0-21.504 9.216-21.504 21.504v21.504h-319.488c-11.264 0-21.504-9.216-21.504-21.504v-212.992c0-11.264 9.216-21.504 21.504-21.504h894.976c11.264 0 21.504 9.216 21.504 21.504v212.992c0 12.288-10.24 21.504-21.504 21.504zM425.984 342.528h169.984v-86.016h-169.984v86.016z" />
<glyph unicode="&#xe91a;" glyph-name="check-in-o" d="M710.656 612.864l-305.152-283.648-92.16 92.16c-9.216 9.216-21.504 9.216-30.72 0s-9.216-21.504 0-30.72l106.496-106.496c4.096-4.096 10.24-6.144 15.36-6.144s10.24 1.024 14.336 5.12l319.488 297.984c9.216 8.192 9.216 21.504 1.024 30.72-6.144 9.216-20.48 9.216-28.672 1.024zM512 960c-282.624 0-512-229.376-512-512s229.376-512 512-512 512 229.376 512 512-229.376 512-512 512zM512-22.016c-258.048 0-470.016 209.92-470.016 470.016 0 259.072 209.92 470.016 470.016 470.016s470.016-211.968 470.016-470.016-211.968-470.016-470.016-470.016z" />
<glyph unicode="&#xe91b;" glyph-name="crop" d="M744.448 308.736h93.184v371.712c0 51.2-41.984 93.184-93.184 93.184h-371.712v-93.184h371.712v-371.712zM279.552 215.552v744.448h-93.184v-186.368h-185.344v-93.184h185.344v-465.92c0-51.2 41.984-93.184 93.184-93.184h464.896v-185.344h93.184v186.368h185.344v93.184h-743.424z" />
<glyph unicode="&#xe91c;" glyph-name="dashboard" d="M0 391.68h455.68v568.32h-455.68v-568.32zM0-64h455.68v342.016h-455.68v-342.016zM568.32-64h455.68v568.32h-455.68v-568.32zM568.32 960v-342.016h455.68v342.016h-455.68z" />
<glyph unicode="&#xe91d;" glyph-name="delete" d="M172.032 49.664c0-62.464 51.2-113.664 113.664-113.664h454.656c62.464 0 113.664 51.2 113.664 113.664v683.008h-681.984v-683.008zM910.336 903.68h-199.68l-56.32 56.32h-284.672l-56.32-56.32h-199.68v-113.664h794.624v113.664h2.048z" />
<glyph unicode="&#xe91e;" glyph-name="delete-o" d="M896 800.256h-225.28v87.040c0 40.96-32.768 72.704-73.728 72.704h-171.008c-40.96 0-73.728-31.744-73.728-72.704v-87.040h-225.28c-17.408 0-31.744-14.336-31.744-31.744s14.336-31.744 31.744-31.744h44.032l74.752-739.328c3.072-34.816 32.768-61.44 66.56-61.44h398.336c34.816 0 63.488 26.624 66.56 61.44l73.728 739.328h44.032c17.408 0 31.744 14.336 31.744 31.744 1.024 17.408-13.312 31.744-30.72 31.744zM416.768 887.296c0 5.12 4.096 9.216 9.216 9.216h172.032c5.12 0 9.216-4.096 9.216-9.216v-87.040h-190.464v87.040zM714.752 3.584c0-2.048-2.048-3.072-3.072-3.072h-398.336c-1.024 0-3.072 2.048-3.072 4.096l-74.752 732.16h552.96l-73.728-733.184z" />
<glyph unicode="&#xe91f;" glyph-name="delivered" d="M266.24 853.504l-231.424-100.352 498.688-220.16 166.912 86.016-434.176 234.496zM0 165.376c0-9.216 5.12-16.384 12.288-19.456l499.712-209.92v559.104l-512 227.328v-557.056zM128 529.92c0 7.168 4.096 14.336 10.24 18.432s14.336 5.12 20.48 1.024l234.496-107.52c7.168-4.096 12.288-11.264 12.288-19.456v-215.040c0-8.192-4.096-14.336-10.24-18.432-4.096-2.048-7.168-4.096-11.264-4.096-3.072 0-6.144 1.024-9.216 1.024l-233.472 109.568c-8.192 4.096-12.288 11.264-12.288 19.456v215.040zM553.984 495.104v-559.104l456.704 209.92c8.192 4.096 12.288 11.264 12.288 19.456v557.056l-468.992-227.328zM989.184 753.152l-470.016 204.8c-5.12 2.048-11.264 2.048-16.384 0l-188.416-81.92 433.152-234.496 241.664 111.616z" />
<glyph unicode="&#xe920;" glyph-name="domestic" d="M0 788.992v-596.992c0-11.264 9.216-21.504 21.504-21.504h45.056c-1.024 7.168-2.048 14.336-2.048 21.504 0 81.92 66.56 149.504 149.504 149.504s148.48-67.584 148.48-149.504c0-7.168-1.024-14.336-1.024-21.504h302.080c-1.024 6.144-1.024 14.336-1.024 21.504 0 81.92 66.56 149.504 149.504 149.504 81.92 0 148.48-67.584 148.48-149.504 0-7.168-1.024-14.336-1.024-21.504h45.056c11.264 0 21.504 9.216 21.504 21.504v234.496c0 5.12-2.048 11.264-6.144 15.36l-83.968 82.944-107.52 189.44c-4.096 6.144-11.264 11.264-19.456 11.264h-147.456c-11.264 0-21.504-9.216-21.504-21.504v-405.504h-41.984v490.496c0 11.264-9.216 21.504-21.504 21.504h-553.984c-13.312-1.024-22.528-10.24-22.528-21.504zM681.984 617.984c0 11.264 9.216 21.504 21.504 21.504h64.512c7.168 0 15.36-5.12 19.456-11.264l63.488-128c5.12-10.24 1.024-22.528-9.216-27.648-2.048-1.024-6.144-2.048-9.216-2.048-7.168 0-15.36 4.096-19.456 11.264l-58.368 116.736h-51.2c-11.264-1.024-21.504 8.192-21.504 19.456zM809.984 298.496c58.368 0 106.496-47.104 106.496-106.496s-47.104-106.496-106.496-106.496c-58.368 0-106.496 47.104-106.496 106.496s47.104 106.496 106.496 106.496zM214.016 298.496c58.368 0 106.496-47.104 106.496-106.496s-47.104-106.496-106.496-106.496-106.496 48.128-106.496 106.496c-1.024 59.392 48.128 106.496 106.496 106.496z" />
<glyph unicode="&#xe921;" glyph-name="cloud-download-o" d="M763.904 697.856c-45.056 117.76-141.312 192.512-285.696 192.512-185.344 0-314.368-136.192-324.608-313.344-89.088-28.672-153.6-118.784-153.6-220.16 0-124.928 99.328-230.4 216.064-230.4h28.672c17.408 0 31.744 14.336 31.744 31.744s-14.336 31.744-31.744 31.744h-28.672c-81.92 0-152.576 76.8-152.576 166.912 0 79.872 56.32 151.552 126.976 163.84l28.672 5.12-3.072 28.672c0 154.624 102.4 271.36 261.12 271.36 126.976 0 198.656-62.464 231.424-167.936l7.168-21.504h23.552c118.784-3.072 223.232-98.304 223.232-217.088 0-108.544-72.704-229.376-182.272-229.376h-9.216c-17.408 0-31.744-14.336-31.744-31.744s14.336-31.744 31.744-31.744v0c160.768 4.096 252.928 155.648 252.928 292.864 0 146.432-115.712 263.168-260.096 278.528zM647.168 186.88c-9.216 9.216-23.552 9.216-32.768 0l-70.656-76.8v319.488c0 17.408-14.336 31.744-31.744 31.744s-31.744-14.336-31.744-31.744v-320.512l-68.608 75.776c-9.216 9.216-23.552 11.264-32.768 2.048l-7.168-5.12c-9.216-9.216-9.216-24.576 0-33.792l115.712-126.976c0 0 0 0 0-1.024l8.192-8.192c4.096-5.12 10.24-7.168 16.384-7.168s12.288 2.048 16.384 7.168l8.192 8.192c0 0 0 0 0 1.024l118.784 129.024c9.216 9.216 9.216 20.48 0 29.696l-8.192 7.168z" />
<glyph unicode="&#xe922;" glyph-name="drag" d="M418.816 587.264h186.368v140.288h139.264l-232.448 232.448-232.448-232.448h139.264v-140.288zM372.736 541.184h-140.288v139.264l-232.448-232.448 232.448-232.448v139.264h139.264v186.368zM1024 448l-232.448 232.448v-139.264h-140.288v-186.368h139.264v-139.264l233.472 232.448zM605.184 308.736h-186.368v-139.264h-139.264l232.448-233.472 232.448 232.448h-139.264v140.288z" />
<glyph unicode="&#xe923;" glyph-name="dropdown" d="M998.4 736.768c-32.768 34.816-88.064 34.816-121.856 0l-346.112-387.072-384 387.072c-32.768 34.816-88.064 34.816-121.856 0-32.768-32.768-32.768-89.088 0-122.88l430.080-435.2c4.096-6.144 9.216-14.336 14.336-19.456 17.408-17.408 40.96-25.6 62.464-25.6 22.528-1.024 46.080 7.168 62.464 25.6 7.168 7.168 12.288 15.36 16.384 24.576l387.072 430.080c34.816 33.792 34.816 88.064 1.024 122.88z" />
<glyph unicode="&#xe924;" glyph-name="edit" d="M2.048-38.4c-4.096-9.216-3.072-19.456 4.096-25.6s16.384-9.216 24.576-4.096l233.472 117.76-145.408 148.48-116.736-236.544zM992.256 934.4c-20.48 20.48-48.128 32.768-77.824 32.768s-57.344-11.264-77.824-32.768l-47.104-46.080 154.624-156.672 47.104 47.104c44.032 41.984 44.032 112.64 1.024 155.648zM146.432 233.984l154.624-156.672 613.376 622.592-154.624 156.672-613.376-622.592z" />
<glyph unicode="&#xe925;" glyph-name="email" d="M1024 734.72c1.024 5.12 0 10.24-2.048 15.36-8.192 37.888-33.792 56.32-77.824 56.32h-832.512c-37.888 0-78.848-14.336-99.328-41.984-2.048-1.024-3.072-3.072-5.12-5.12-6.144-7.168-9.216-17.408-7.168-26.624 0-2.048 0-5.12 0-8.192v-521.216c0-53.248 59.392-113.664 111.616-113.664h831.488c53.248 0 79.872 60.416 79.872 113.664v521.216c1.024 4.096 1.024 7.168 1.024 10.24zM111.616 740.864h832.512c0 0 0 0 0 0l-432.128-350.208-431.104 349.184c10.24 2.048 22.528 1.024 30.72 1.024zM944.128 155.136h-832.512c-17.408 0-48.128 30.72-48.128 49.152v465.92l427.008-348.16c6.144-5.12 13.312-8.192 20.48-8.192s15.36 3.072 20.48 8.192l427.008 348.16v-466.944c1.024-17.408 3.072-48.128-14.336-48.128z" />
<glyph unicode="&#xe926;" glyph-name="exclamation-triangle-o" d="M490.496 597.504v-342.016c0-12.288 10.24-21.504 21.504-21.504 12.288 0 21.504 10.24 21.504 21.504v342.016c0 12.288-10.24 21.504-21.504 21.504-13.312 0-21.504-8.192-21.504-21.504zM1020.928-32.256l-488.448 980.992c-7.168 15.36-31.744 15.36-39.936 0l-490.496-980.992c-3.072-6.144-2.048-15.36 2.048-21.504s11.264-10.24 19.456-10.24h978.944c7.168 0 15.36 4.096 19.456 10.24 3.072 6.144 3.072 15.36-1.024 21.504zM58.368-18.944l453.632 908.288 452.608-908.288h-906.24zM466.944 114.176c0-24.576 20.48-45.056 45.056-45.056s45.056 20.48 45.056 45.056c0 24.576-20.48 45.056-45.056 45.056s-45.056-20.48-45.056-45.056zM512 114.176v0 0z" />
<glyph unicode="&#xe927;" glyph-name="facebook" d="M568.32 740.864c0 40.96 35.84 56.32 76.8 56.32s82.944-12.288 82.944-12.288l25.6 157.696c0 0-55.296 19.456-186.368 19.456-80.896 0-128-30.72-160.768-76.8-31.744-43.008-32.768-113.664-32.768-158.72v-102.4h-104.448v-153.6h103.424v-533.504h194.56v531.456h154.624l11.264 153.6h-165.888v118.784h1.024z" />
<glyph unicode="&#xe928;" glyph-name="filter" d="M398.336 107.008h227.328v113.664h-227.328v-113.664zM0 788.992v-113.664h1024v113.664h-1024zM171.008 390.656h683.008v114.688h-683.008v-114.688z" />
<glyph unicode="&#xe929;" glyph-name="flickr" d="M1024 448c0-123.904-101.376-225.28-225.28-225.28s-225.28 101.376-225.28 225.28 101.376 225.28 225.28 225.28 225.28-101.376 225.28-225.28zM450.56 448c0-123.904-101.376-225.28-225.28-225.28s-225.28 101.376-225.28 225.28 101.376 225.28 225.28 225.28c124.928 0 225.28-101.376 225.28-225.28z" />
<glyph unicode="&#xe92a;" glyph-name="go-up" d="M0 194.048l512 507.904 512-507.904h-1024z" />
<glyph unicode="&#xe92b;" glyph-name="google-plus" d="M325.632 494.080c0-36.864 0-74.752 0-111.616 61.44-3.072 123.904-1.024 185.344-3.072-26.624-138.24-214.016-182.272-313.344-92.16-101.376 79.872-97.28 252.928 8.192 325.632 74.752 59.392 179.2 45.056 253.952-6.144 29.696 26.624 56.32 55.296 81.92 86.016-61.44 49.152-137.216 84.992-218.112 80.896-166.912 5.12-321.536-141.312-323.584-310.272-10.24-137.216 79.872-271.36 205.824-320.512s289.792-15.36 369.664 98.304c54.272 71.68 65.536 164.864 59.392 251.904-102.4 2.048-205.824 2.048-309.248 1.024zM930.816 495.104c0 30.72 0 61.44 0 93.184-30.72 0-61.44 0-92.16 0 0-30.72 0-61.44-1.024-93.184-30.72 0-61.44 0-93.184 0 0-30.72 0-61.44 0-92.16 30.72 0 61.44 0 93.184-1.024 0-30.72 0-61.44 0-93.184 30.72 0 61.44 0 92.16 0 0 30.72 0 61.44 0 93.184 30.72 0 61.44 0 93.184 1.024 0 30.72 0 61.44 0 92.16-29.696 0-60.416 0-92.16 0z" />
<glyph unicode="&#xe92c;" glyph-name="help_desk" d="M894.976 687.616c0 1.024 0 1.024-1.024 2.048v1.024c0 1.024-1.024 1.024-1.024 2.048 0 0 0 0 0 1.024-1.024 1.024-1.024 2.048-2.048 4.096l-256 256c-1.024 1.024-2.048 2.048-4.096 2.048v0c-1.024 1.024-2.048 1.024-4.096 1.024h-1.024c-1.024 1.024-3.072 3.072-3.072 3.072-1.024 0-2.048 0-4.096 0h-467.968c-11.264 0-21.504-9.216-21.504-21.504v-980.992c0-11.264 9.216-21.504 21.504-21.504h724.992c11.264 0 21.504 9.216 21.504 21.504v724.992c-2.048 1.024-2.048 3.072-2.048 5.12zM640 886.272l182.272-182.272h-182.272v182.272zM852.992-20.992h-681.984v937.984h425.984v-233.472c0-11.264 9.216-21.504 21.504-21.504h233.472v-683.008h1.024zM512 512.512c0-11.264 9.216-21.504 21.504-21.504h169.984c11.264 0 21.504 9.216 21.504 21.504s-9.216 21.504-21.504 21.504h-169.984c-12.288 0-21.504-10.24-21.504-21.504zM703.488 361.984h-169.984c-11.264 0-21.504-9.216-21.504-21.504 0-11.264 9.216-21.504 21.504-21.504h169.984c11.264 0 21.504 9.216 21.504 21.504s-10.24 21.504-21.504 21.504zM703.488 192h-169.984c-11.264 0-21.504-8.192-21.504-21.504 0-11.264 9.216-21.504 21.504-21.504h169.984c11.264 0 21.504 9.216 21.504 21.504 0 13.312-10.24 21.504-21.504 21.504zM432.128 611.84l-92.16-92.16-48.128 48.128c-9.216 9.216-21.504 9.216-30.72 0s-9.216-21.504 0-30.72l63.488-63.488c4.096-4.096 10.24-6.144 15.36-6.144s11.264 2.048 15.36 6.144l106.496 106.496c9.216 9.216 9.216 21.504 0 30.72-7.168 10.24-20.48 10.24-29.696 1.024zM432.128 441.856l-92.16-92.16-48.128 48.128c-9.216 9.216-21.504 9.216-30.72 0s-9.216-21.504 0-30.72l63.488-63.488c4.096-4.096 10.24-6.144 15.36-6.144s11.264 2.048 15.36 6.144l106.496 106.496c9.216 9.216 9.216 21.504 0 30.72-7.168 10.24-20.48 10.24-29.696 1.024zM432.128 271.872l-91.136-92.16-48.128 48.128c-9.216 9.216-21.504 9.216-30.72 0s-9.216-21.504 0-30.72l63.488-63.488c4.096-4.096 10.24-6.144 15.36-6.144s11.264 2.048 15.36 6.144l106.496 106.496c9.216 9.216 9.216 21.504 0 30.72-8.192 8.192-21.504 8.192-30.72 1.024z" />
<glyph unicode="&#xe92d;" glyph-name="help-in-o" d="M460.8 140.8h102.4v102.4h-102.4v-102.4zM512 960c-282.624 0-512-229.376-512-512s229.376-512 512-512 512 229.376 512 512-229.376 512-512 512zM512 38.4c-225.28 0-409.6 184.32-409.6 409.6s184.32 409.6 409.6 409.6 409.6-184.32 409.6-409.6-184.32-409.6-409.6-409.6zM512 755.2c-112.64 0-204.8-92.16-204.8-204.8h102.4c0 56.32 46.080 102.4 102.4 102.4s102.4-46.080 102.4-102.4c0-102.4-153.6-90.112-153.6-256h102.4c0 114.688 153.6 128 153.6 256 0 112.64-92.16 204.8-204.8 204.8z" />
<glyph unicode="&#xe92e;" glyph-name="help-in-o-tiny" d="M512 960c-281.6 0-512-229.376-512-512s230.4-512 512-512 512 229.376 512 512-230.4 512-512 512zM512-18.944c-257.024 0-466.944 209.92-466.944 466.944s209.92 466.944 466.944 466.944 466.944-209.92 466.944-466.944-209.92-466.944-466.944-466.944zM512 715.264c-86.016 0-155.648-70.656-155.648-155.648 0-12.288 10.24-21.504 21.504-21.504 12.288 0 21.504 10.24 21.504 21.504 0 61.44 50.176 111.616 111.616 111.616s111.616-50.176 111.616-111.616-50.176-111.616-111.616-111.616c-12.288 0-21.504-10.24-21.504-21.504v-133.12c0-12.288 10.24-21.504 21.504-21.504 12.288 0 21.504 10.24 21.504 21.504v112.64c75.776 10.24 133.12 75.776 133.12 154.624 2.048 84.992-67.584 154.624-153.6 154.624zM512 224.768c-24.576 0-45.056-20.48-45.056-45.056s20.48-45.056 45.056-45.056 45.056 20.48 45.056 45.056-20.48 45.056-45.056 45.056zM512 180.736v0 0z" />
<glyph unicode="&#xe92f;" glyph-name="image" d="M837.632 145.92v790.528c0 12.288-10.24 23.552-22.528 23.552h-791.552c-13.312 0-23.552-10.24-23.552-23.552v-790.528c0-12.288 10.24-22.528 23.552-22.528h790.528c13.312-2.048 23.552 9.216 23.552 22.528zM790.528 169.472h-743.424v93.184h745.472v-93.184h-2.048zM203.776 308.736l101.376 168.96 94.208-113.664c5.12-6.144 12.288-9.216 20.48-7.168 7.168 1.024 15.36 6.144 18.432 12.288l93.184 205.824 108.544-266.24h-436.224zM790.528 308.736h-100.352l-133.12 333.824c-4.096 9.216-11.264 14.336-20.48 14.336s-18.432-5.12-21.504-14.336l-101.376-222.208-93.184 112.64c-5.12 6.144-11.264 9.216-19.456 7.168-7.168 0-14.336-5.12-18.432-11.264l-133.12-220.16h-103.424v605.184h745.472v-605.184zM1018.88 669.184c-4.096 5.12-10.24 7.168-15.36 7.168l-92.16 9.216c-12.288 1.024-24.576-7.168-25.6-20.48-1.024-12.288 7.168-24.576 20.48-25.6l69.632-6.144-59.392-649.216-671.744 61.44c-12.288 1.024-24.576-8.192-25.6-20.48s8.192-24.576 20.48-25.6l695.296-64.512c1.024 0 1.024 0 2.048 0 5.12 0 10.24 1.024 15.36 5.12s8.192 10.24 8.192 15.36l64.512 696.32c-1.024 7.168-2.048 12.288-6.144 17.408zM233.472 633.344c51.2 0 93.184 41.984 93.184 93.184s-41.984 93.184-93.184 93.184-93.184-41.984-93.184-93.184c-1.024-51.2 41.984-93.184 93.184-93.184zM233.472 774.656c25.6 0 46.080-20.48 46.080-46.080s-20.48-46.080-46.080-46.080-46.080 20.48-46.080 46.080c-1.024 24.576 19.456 46.080 46.080 46.080z" />
<glyph unicode="&#xe930;" glyph-name="infinite" d="M768 189.952c-138.24 0-228.352 133.12-232.448 138.24-6.144 10.24-4.096 23.552 6.144 29.696s23.552 4.096 29.696-6.144c2.048-1.024 81.92-118.784 196.608-118.784 117.76 0 214.016 96.256 214.016 215.040s-95.232 215.040-214.016 215.040c-95.232 0-167.936-115.712-238.592-227.328-76.8-121.856-156.672-245.76-274.432-245.76-140.288 0-254.976 115.712-254.976 258.048s115.712 258.048 256 258.048 208.896-156.672 211.968-163.84c5.12-11.264 0-23.552-11.264-28.672-10.24-5.12-23.552 0-28.672 11.264 0 1.024-60.416 137.216-173.056 137.216-118.784 0-214.016-96.256-214.016-215.040s96.256-215.040 214.016-215.040c95.232 0 167.936 115.712 238.592 227.328 76.8 121.856 156.672 245.76 274.432 245.76 141.312 0 256-115.712 256-258.048 1.024-141.312-114.688-257.024-256-257.024z" />
<glyph unicode="&#xe931;" glyph-name="information" d="M409.6 792.064v167.936h204.8v-167.936h-204.8zM614.4 677.376v-741.376h-204.8v741.376h204.8z" />
<glyph unicode="&#xe932;" glyph-name="instagram" d="M512 867.84c137.216 0 152.576-1.024 206.848-3.072 50.176-2.048 76.8-10.24 95.232-17.408 23.552-9.216 40.96-20.48 58.368-37.888s28.672-34.816 37.888-58.368c7.168-18.432 15.36-45.056 17.408-95.232 3.072-55.296 4.096-70.656 4.096-207.872s-1.024-152.576-3.072-206.848c-2.048-50.176-10.24-76.8-17.408-95.232-9.216-23.552-20.48-40.96-37.888-58.368s-34.816-28.672-58.368-37.888c-18.432-7.168-45.056-15.36-95.232-17.408-55.296-3.072-70.656-4.096-207.872-4.096s-152.576 1.024-206.848 3.072c-50.176 2.048-76.8 10.24-95.232 17.408-23.552 9.216-40.96 20.48-58.368 37.888s-28.672 34.816-37.888 58.368c-7.168 18.432-15.36 45.056-17.408 95.232-3.072 55.296-4.096 70.656-4.096 207.872s1.024 152.576 3.072 206.848c2.048 50.176 10.24 76.8 17.408 95.232 9.216 23.552 20.48 40.96 37.888 58.368s34.816 28.672 58.368 37.888c18.432 7.168 45.056 15.36 95.232 17.408 55.296 3.072 70.656 4.096 207.872 4.096zM512 960c-139.264 0-156.672-1.024-210.944-3.072s-92.16-11.264-123.904-23.552c-33.792-13.312-62.464-30.72-91.136-59.392s-46.080-57.344-59.392-91.136c-12.288-32.768-21.504-69.632-23.552-123.904s-3.072-71.68-3.072-210.944c0-139.264 1.024-156.672 3.072-210.944s11.264-92.16 23.552-123.904c13.312-33.792 30.72-62.464 59.392-91.136s57.344-46.080 91.136-59.392c32.768-12.288 69.632-21.504 123.904-23.552s71.68-3.072 210.944-3.072 156.672 1.024 210.944 3.072c54.272 2.048 92.16 11.264 123.904 23.552 33.792 13.312 62.464 30.72 91.136 59.392s46.080 57.344 59.392 91.136c12.288 32.768 21.504 69.632 23.552 123.904s3.072 71.68 3.072 210.944-1.024 156.672-3.072 210.944c-2.048 54.272-11.264 92.16-23.552 123.904-13.312 33.792-30.72 62.464-59.392 91.136s-57.344 46.080-91.136 59.392c-32.768 12.288-69.632 21.504-123.904 23.552s-71.68 3.072-210.944 3.072v0zM512 711.168c-145.408 0-263.168-117.76-263.168-263.168s117.76-263.168 263.168-263.168 263.168 117.76 263.168 263.168-117.76 263.168-263.168 263.168zM512 276.992c-94.208 0-171.008 76.8-171.008 171.008s76.8 171.008 171.008 171.008 171.008-76.8 171.008-171.008-76.8-171.008-171.008-171.008zM846.848 721.408c0-33.932-27.508-61.44-61.44-61.44s-61.44 27.508-61.44 61.44c0 33.932 27.508 61.44 61.44 61.44s61.44-27.508 61.44-61.44z" />
<glyph unicode="&#xe933;" glyph-name="international" d="M240.64 710.144l187.392-76.8 207.872 91.136-221.184 91.136c-5.12 3.072-11.264 3.072-16.384 0l-158.72-65.536c-8.192-4.096-13.312-11.264-13.312-19.456 1.024-10.24 6.144-17.408 14.336-20.48zM1016.832 723.456c-21.504 52.224-86.016 80.896-139.264 57.344l-577.536-250.88-118.784 60.416c-5.12 3.072-13.312 3.072-18.432 0l-149.504-64.512c-6.144-3.072-11.264-9.216-13.312-15.36-1.024-6.144 1.024-14.336 6.144-19.456l192.512-192.512c6.144-6.144 15.36-8.192 23.552-5.12l276.48 110.592-111.616-296.96c-3.072-8.192-1.024-18.432 5.12-23.552 4.096-4.096 9.216-5.12 14.336-5.12 4.096 0 6.144 1.024 9.216 3.072l172.032 86.016c4.096 3.072 8.192 5.12 9.216 9.216l167.936 334.848 193.536 71.68c54.272 23.552 79.872 84.992 58.368 140.288z" />
<glyph unicode="&#xe934;" glyph-name="invoice" d="M241.664 611.84h364.544c22.528 0 40.96 18.432 40.96 40.96s-18.432 40.96-40.96 40.96h-364.544c-22.528 0-40.96-18.432-40.96-40.96s18.432-40.96 40.96-40.96zM737.28 611.84h40.96c22.528 0 40.96 18.432 40.96 40.96s-18.432 40.96-40.96 40.96h-40.96c-22.528 0-40.96-18.432-40.96-40.96 1.024-22.528 18.432-40.96 40.96-40.96zM241.664 427.52h364.544c22.528 0 40.96 13.312 40.96 35.84s-18.432 35.84-40.96 35.84h-364.544c-22.528 0-40.96-13.312-40.96-35.84s18.432-35.84 40.96-35.84zM737.28 427.52h40.96c22.528 0 40.96 13.312 40.96 35.84s-18.432 35.84-40.96 35.84h-40.96c-22.528 0-40.96-13.312-40.96-35.84 1.024-22.528 18.432-35.84 40.96-35.84zM241.664 232.96h364.544c22.528 0 40.96 18.432 40.96 40.96s-18.432 40.96-40.96 40.96h-364.544c-22.528 0-40.96-18.432-40.96-40.96s18.432-40.96 40.96-40.96zM737.28 232.96h40.96c22.528 0 40.96 18.432 40.96 40.96s-18.432 40.96-40.96 40.96h-40.96c-22.528 0-40.96-18.432-40.96-40.96s18.432-40.96 40.96-40.96zM884.736 960h-749.568c-39.936 0-73.728-30.72-73.728-70.656v-878.592c0-39.936 33.792-73.728 73.728-73.728h749.568c39.936 0 77.824 33.792 77.824 73.728v878.592c0 39.936-36.864 70.656-77.824 70.656zM874.496 17.92h-731.136v860.16h731.136v-860.16z" />
<glyph unicode="&#xe935;" glyph-name="left_arrow" d="M430.080 448l415.744 364.544c4.096 4.096 7.168 9.216 7.168 14.336s-1.024 11.264-5.12 15.36l-91.136 110.592c-3.072 4.096-8.192 7.168-14.336 7.168-5.12 0-11.264-1.024-15.36-5.12l-548.864-490.496c-4.096-4.096-7.168-10.24-7.168-16.384s3.072-12.288 7.168-16.384l549.888-490.496c4.096-3.072 8.192-5.12 13.312-5.12 0 0 1.024 0 1.024 0 5.12 0 10.24 3.072 14.336 7.168l91.136 110.592c3.072 4.096 5.12 10.24 5.12 15.36 0 6.144-3.072 11.264-7.168 14.336l-415.744 364.544z" />
<glyph unicode="&#xe936;" glyph-name="certificate" d="M521.216 235.008c-21.504 39.936-25.6 86.016-10.24 128-15.36 41.984-12.288 88.064 10.24 128 21.504 37.888 61.44 65.536 104.448 72.704 27.648 34.816 70.656 55.296 114.688 55.296 21.504 0 43.008-5.12 63.488-14.336v120.832c0 5.12-2.048 11.264-6.144 15.36l-209.92 211.968c-4.096 4.096-9.216 7.168-15.36 7.168h-465.92c-11.264 0-21.504-9.216-21.504-22.528v-894.976c0-11.264 9.216-21.504 21.504-21.504h443.392v178.176c-11.264 10.24-19.456 22.528-28.672 35.84zM741.376 107.008c-45.056 0-87.040 20.48-114.688 55.296-11.264 1.024-22.528 5.12-32.768 9.216v-214.016c0-7.168 5.12-15.36 12.288-19.456s16.384-2.048 22.528 2.048l39.936 32.768 60.416 51.2c4.096 4.096 9.216 5.12 14.336 5.12s10.24-1.024 14.336-5.12l60.416-51.2 39.936-32.768c6.144-5.12 15.36-6.144 22.528-2.048s12.288 11.264 12.288 19.456v214.016c-10.24-4.096-21.504-7.168-32.768-9.216-31.744-34.816-74.752-55.296-118.784-55.296zM923.648 361.984c17.408 31.744 19.456 72.704 0 106.496-17.408 31.744-55.296 53.248-92.16 53.248v0c-17.408 30.72-51.2 53.248-92.16 53.248-34.816 0-66.56-16.384-86.016-45.056-4.096-5.12-9.216-9.216-15.36-9.216-34.816-4.096-65.536-22.528-81.92-52.224s-19.456-66.56-5.12-97.28c2.048-5.12 2.048-12.288 0-17.408-12.288-26.624-12.288-57.344-1.024-86.016 15.36-36.864 50.176-61.44 87.040-65.536 6.144 0 11.264-4.096 15.36-9.216 19.456-27.648 51.2-45.056 86.016-45.056s66.56 16.384 86.016 45.056c4.096 5.12 9.216 9.216 15.36 9.216 34.816 4.096 65.536 24.576 81.92 52.224 20.48 32.768 21.504 74.752 2.048 107.52zM741.376 278.016c-46.080 0-83.968 37.888-83.968 86.016s37.888 86.016 83.968 86.016c46.080 0 83.968-37.888 83.968-86.016s-36.864-86.016-83.968-86.016z" />
<glyph unicode="&#xe937;" glyph-name="link" d="M295.936 227.84c6.144-6.144 14.336-9.216 22.528-9.216s16.384 3.072 22.528 9.216l388.096 390.144c12.288 12.288 12.288 32.768 0 45.056s-32.768 12.288-45.056 0l-388.096-390.144c-12.288-12.288-12.288-32.768 0-45.056zM476.16 295.424c10.24-47.104-1.024-92.16-36.864-128l-129.024-124.928c-27.648-27.648-63.488-41.984-101.376-41.984-38.912 0-74.752 15.36-101.376 41.984-56.32 56.32-56.32 147.456 0 203.776l125.952 130.048c27.648 27.648 63.488 41.984 101.376 41.984 13.312 0 25.6-2.048 37.888-6.144l50.176 50.176c-27.648 13.312-58.368 19.456-88.064 19.456-53.248 0-106.496-20.48-147.456-60.416l-125.952-130.048c-81.92-81.92-81.92-212.992 0-294.912 40.96-40.96 94.208-60.416 147.456-60.416s106.496 20.48 147.456 60.416l129.024 124.928c62.464 62.464 75.776 148.48 43.008 224.256l-52.224-50.176zM962.56 899.584c-39.936 39.936-93.184 60.416-146.432 60.416s-106.496-20.48-147.456-60.416l-129.024-124.928c-64.512-64.512-77.824-160.768-39.936-237.568l49.152 49.152c-14.336 49.152-3.072 104.448 34.816 142.336l129.024 124.928c27.648 27.648 63.488 41.984 101.376 41.984 38.912 0 74.752-15.36 101.376-41.984 56.32-56.32 56.32-147.456 0-203.776l-126.976-128c-27.648-27.648-63.488-41.984-101.376-41.984-10.24 0-18.432-1.024-27.648 1.024l-51.2-51.2c25.6-10.24 51.2-14.336 78.848-14.336 53.248 0 106.496 20.48 147.456 60.416l128 129.024c81.92 81.92 81.92 212.992 0 294.912z" />
<glyph unicode="&#xe938;" glyph-name="linkedin" d="M225.28-22.016h-199.68v638.976h199.68v-638.976zM120.832 696.832h-1.024c-72.704 0-119.808 48.128-119.808 110.592 0 63.488 48.128 110.592 121.856 110.592s118.784-48.128 120.832-110.592c0-61.44-47.104-110.592-121.856-110.592zM1024-22.016h-226.304v330.752c0 87.040-35.84 145.408-113.664 145.408-59.392 0-92.16-39.936-108.544-77.824-6.144-13.312-5.12-32.768-5.12-52.224v-346.112h-223.232c0 0 3.072 585.728 0 638.976h224.256v-100.352c13.312 44.032 84.992 106.496 199.68 106.496 141.312 0 252.928-92.16 252.928-289.792v-355.328z" />
<glyph unicode="&#xe939;" glyph-name="bars-o" d="M1001.472 916.992h-978.944c-12.288 0-22.528-9.216-22.528-21.504v-212.992c0-11.264 9.216-21.504 21.504-21.504h980.992c11.264 0 21.504 9.216 21.504 21.504v212.992c-1.024 11.264-9.216 21.504-22.528 21.504zM980.992 704h-937.984v169.984h936.96v-169.984h1.024zM1001.472 576h-978.944c-12.288 0-22.528-9.216-22.528-21.504v-212.992c0-11.264 9.216-21.504 21.504-21.504h980.992c11.264 0 21.504 9.216 21.504 21.504v212.992c-1.024 12.288-9.216 21.504-22.528 21.504zM980.992 361.984h-937.984v172.032h936.96v-171.008h1.024zM1001.472 235.008h-978.944c-12.288 0-22.528-9.216-22.528-22.528v-211.968c0-11.264 9.216-21.504 21.504-21.504h980.992c11.264 0 21.504 9.216 21.504 21.504v214.016c-1.024 11.264-9.216 20.48-22.528 20.48zM980.992 22.016h-937.984v169.984h936.96v-169.984h1.024z" />
<glyph unicode="&#xe93a;" glyph-name="live-chat" d="M922.624 411.136c63.488 58.368 101.376 139.264 101.376 225.28 0 177.152-173.056 323.584-384 323.584s-384-146.432-384-323.584h41.984c0 154.624 153.6 280.576 342.016 280.576s342.016-125.952 342.016-280.576c0-77.824-35.84-152.576-98.304-203.776-8.192-6.144-10.24-18.432-5.12-28.672l55.296-98.304-155.648 63.488c-5.12 1.024-9.216 2.048-14.336 0-19.456-6.144-38.912-10.24-57.344-12.288l5.12-44.032c19.456 3.072 38.912 6.144 57.344 12.288l203.776-81.92c2.048-1.024 5.12-1.024 8.192-1.024 6.144 0 11.264 2.048 16.384 8.192 6.144 6.144 6.144 16.384 2.048 25.6l-76.8 135.168zM319.488 546.304c-174.080 0-319.488-129.024-319.488-282.624 0-69.632 27.648-132.096 80.896-179.2l-56.32-115.712c-4.096-7.168-2.048-18.432 4.096-24.576 4.096-5.12 10.24-8.192 15.36-8.192 2.048 0 5.12 0 8.192 1.024l161.792 61.44c97.28-40.96 207.872-30.72 295.936 27.648 82.944 54.272 132.096 142.336 132.096 234.496-2.048 155.648-148.48 285.696-322.56 285.696zM485.376 64c-79.872-52.224-176.128-60.416-263.168-20.48-3.072 1.024-5.12 1.024-9.216 1.024-2.048 0-5.12 0-8.192-1.024l-120.832-46.080 39.936 80.896c5.12 9.216 3.072 20.48-5.12 26.624-51.2 41.984-76.8 95.232-76.8 157.696 0 129.024 126.976 239.616 277.504 239.616s277.504-110.592 277.504-239.616c1.024-76.8-41.984-151.552-111.616-198.656z" />
<glyph unicode="&#xe93b;" glyph-name="login" d="M403.456 244.224l79.872-79.872 284.672 283.648-284.672 284.672-79.872-79.872 146.432-147.456h-549.888v-113.664h549.888l-146.432-147.456zM910.336 960h-796.672c-62.464 0-113.664-51.2-113.664-113.664v-227.328h113.664v227.328h795.648v-796.672h-795.648v227.328h-113.664v-227.328c0-62.464 51.2-113.664 113.664-113.664h795.648c62.464 0 113.664 51.2 113.664 113.664v796.672c1.024 62.464-50.176 113.664-112.64 113.664z" />
<glyph unicode="&#xe93c;" glyph-name="logout" d="M805.888 505.344h-549.888v-113.664h549.888l-146.432-147.456 79.872-79.872 284.672 283.648-284.672 284.672-79.872-79.872 146.432-147.456zM113.664-64h795.648c63.488 0 113.664 51.2 113.664 113.664v227.328l-112.64-113.664v-113.664h-796.672v796.672h795.648v-136.192l113.664-91.136v227.328c1.024 62.464-50.176 113.664-112.64 113.664h-796.672c-62.464 0-113.664-51.2-113.664-113.664v-796.672c0-62.464 51.2-113.664 113.664-113.664z" />
<glyph unicode="&#xe93d;" glyph-name="meetup" d="M831.488 5.632c-6.144 26.624-22.528 73.728-35.84 104.448-26.624 60.416-60.416 173.056-96.256 319.488-12.288 50.176-25.6 98.304-30.72 106.496-11.264 21.504-18.432-45.056-24.576-238.592-3.072-89.088-11.264-183.296-18.432-207.872l-13.312-46.080-200.704-18.432-22.528 28.672c-12.288 15.36-51.2 75.776-86.016 134.144s-64.512 104.448-66.56 102.4c-2.048-1.024 3.072-46.080 10.24-98.304s11.264-103.424 8.192-112.64c-7.168-26.624-102.4-64.512-159.744-62.464-47.104 1.024-57.344 20.48-71.68 140.288-25.6 203.776-27.648 250.88-20.48 425.984l7.168 174.080 45.056 12.288c71.68 19.456 151.552 15.36 174.080-8.192 10.24-11.264 59.392-99.328 109.568-195.584l90.112-175.104 13.312 96.256c18.432 141.312 74.752 331.776 122.88 417.792l19.456 33.792 90.112-2.048c73.728-2.048 93.184-6.144 109.568-22.528 25.6-25.6 73.728-207.872 144.384-546.816 8.192-39.936 21.504-92.16 30.72-115.712 8.192-23.552 15.36-50.176 15.36-60.416s11.264-53.248 25.6-96.256c25.6-78.848 30.72-104.448 18.432-92.16-4.096 4.096-13.312 2.048-20.48-5.12-11.264-9.216-117.76-36.864-147.456-38.912-4.096-1.024-12.288 20.48-19.456 47.104v0z" />
<glyph unicode="&#xe93e;" glyph-name="menu" d="M0 105.984h1024v114.688h-1024v-114.688zM0 391.68h1024v113.664h-1024v-113.664zM0 790.016v-113.664h1024v113.664c0 0-1024 0-1024 0z" />
<glyph unicode="&#xe93f;" glyph-name="move" d="M1018.88 434.688c0 0 0 1.024 1.024 1.024 0 1.024 1.024 1.024 1.024 2.048 0 0 0 1.024 0 2.048s0 1.024 1.024 3.072c0 1.024 0 2.048 0 4.096v0 0c0 1.024 0 3.072 0 4.096s0 1.024 0 3.072c0 1.024 0 1.024 0 2.048s-1.024 1.024-1.024 2.048c0 0 0 1.024-1.024 1.024-1.024 1.024-1.024 2.048-2.048 4.096l-128 129.024c-9.216 9.216-23.552 9.216-31.744 0-9.216-9.216-9.216-22.528 0-31.744l90.112-90.112h-414.72v413.696l90.112-90.112c4.096-4.096 10.24-6.144 15.36-6.144s11.264 2.048 15.36 6.144c9.216 9.216 9.216 22.528 0 31.744l-126.976 129.024c-4.096 3.072-9.216 5.12-15.36 5.12s-11.264-2.048-15.36-6.144l-126.976-128c-9.216-9.216-9.216-22.528 0-31.744s22.528-9.216 31.744 0l90.112 89.088v-413.696h-414.72l90.112 90.112c9.216 9.216 9.216 22.528 0 31.744s-22.528 9.216-31.744 0l-128-128c-1.024-1.024-2.048-2.048-2.048-4.096 0 0 0-1.024-1.024-1.024 0-1.024-1.024-1.024-1.024-3.072 0 0 0-1.024 0-2.048s0-1.024-1.024-2.048c0-1.024 0-3.072 0-4.096v0 0c0-1.024 0-2.048 0-4.096 0-1.024 0-1.024 1.024-2.048v-1.024c0-1.024 1.024-1.024 1.024-2.048v-1.024c1.024-1.024 1.024-3.072 2.048-4.096l126.976-129.024c4.096-4.096 10.24-6.144 15.36-6.144s11.264 2.048 15.36 6.144c9.216 9.216 9.216 22.528 0 31.744l-90.112 90.112h412.672v-413.696l-90.112 90.112c-9.216 9.216-22.528 9.216-31.744 0s-9.216-22.528 0-31.744l126.976-129.024c1.024-1.024 2.048-2.048 4.096-2.048 0 0 0 0 1.024 0s2.048-1.024 2.048-1.024h1.024c1.024 0 1.024 0 2.048-1.024 1.024 0 2.048 0 4.096 0 1.024 0 2.048 0 4.096 0 1.024 0 1.024 0 3.072 1.024h1.024c1.024 0 2.048 1.024 2.048 1.024s0 0 1.024 0c1.024 1.024 2.048 1.024 4.096 2.048l128 128c9.216 9.216 9.216 23.552 0 31.744-9.216 9.216-22.528 9.216-31.744 0l-90.112-90.112v415.744h419.84l-90.112-90.112c-9.216-9.216-9.216-22.528 0-31.744 4.096-4.096 10.24-6.144 15.36-6.144s11.264 2.048 15.36 6.144l128 128c2.048 0 2.048 1.024 3.072 2.048z" />
<glyph unicode="&#xe940;" glyph-name="tag" d="M983.040 437.76v0l4.096 4.096c17.408 19.456 26.624 43.008 27.648 67.584v0l9.216 226.304v10.24c0 25.6-10.24 51.2-29.696 70.656l-112.64 111.616c-20.48 20.48-47.104 30.72-73.728 29.696v0l-9.216-2.048-222.208-15.36h-4.096c-20.48-2.048-39.936-10.24-56.32-22.528l-12.288-12.288-479.232-468.992-7.168-6.144c-24.576-27.648-23.552-68.608 3.072-95.232l379.904-377.856c26.624-26.624 71.68-26.624 98.304 0v0 0l484.352 480.256zM741.376 679.424c-30.72 30.72-34.816 77.824-10.24 113.664 2.048 4.096 6.144 9.216 10.24 12.288 29.696 29.696 75.776 34.816 109.568 12.288 6.144-4.096 11.264-7.168 16.384-12.288 6.144-6.144 10.24-11.264 14.336-19.456 19.456-34.816 15.36-77.824-14.336-107.52-4.096-4.096-9.216-7.168-12.288-10.24-34.816-23.552-82.944-19.456-113.664 11.264z" />
<glyph unicode="&#xe941;" glyph-name="eye-slash" d="M512 704c129.024 0 232.448-104.448 232.448-232.448 0-30.72-6.144-58.368-16.384-84.992l136.192-136.192c70.656 58.368 125.952 134.144 159.744 221.184-80.896 204.8-279.552 349.184-512 349.184-65.536 0-128-11.264-185.344-32.768l100.352-100.352c26.624 10.24 55.296 16.384 84.992 16.384zM46.080 830.976l106.496-106.496 21.504-20.48c-76.8-60.416-138.24-140.288-174.080-232.448 80.896-204.8 279.552-349.184 512-349.184 71.68 0 141.312 14.336 203.776 38.912l155.648-155.648 59.392 59.392-825.344 825.344-59.392-59.392zM304.128 573.952l71.68-71.68c-2.048-10.24-4.096-20.48-4.096-30.72 0-76.8 62.464-139.264 139.264-139.264 10.24 0 20.48 1.024 30.72 4.096l71.68-71.68c-30.72-15.36-65.536-24.576-102.4-24.576-129.024 0-232.448 104.448-232.448 232.448 1.024 35.84 10.24 69.632 25.6 101.376zM504.832 609.792l146.432-146.432 1.024 7.168c0 76.8-62.464 139.264-139.264 139.264h-8.192z" />
<glyph unicode="&#xe942;" glyph-name="notifications" d="M916.48 248.32c-38.912 46.080-91.136 110.592-91.136 175.104v208.896c0 180.224-138.24 327.68-314.368 327.68s-314.368-147.456-314.368-327.68v-209.92c0-63.488-57.344-124.928-93.184-173.056-31.744-41.984-57.344-76.8-40.96-110.592 15.36-29.696 53.248-32.768 83.968-32.768h188.416c0-93.184 79.872-169.984 175.104-169.984s176.128 76.8 176.128 172.032h193.536c20.48 0 66.56 0 82.944 32.768s-10.24 63.488-46.080 107.52zM510.976 2.56c-58.368 0-106.496 46.080-106.496 103.424h214.016c-2.048-56.32-49.152-103.424-107.52-103.424zM879.616 175.616h-732.16c-5.12 0-9.216 0-12.288 0 6.144 10.24 16.384 22.528 24.576 32.768 38.912 52.224 106.496 126.976 106.496 214.016v209.92c0 143.36 106.496 259.072 244.736 259.072s245.76-116.736 245.76-258.048v-209.92c0-90.112 61.44-164.864 106.496-219.136 8.192-9.216 16.384-19.456 24.576-29.696-3.072 1.024-6.144 1.024-8.192 1.024z" />
<glyph unicode="&#xe943;" glyph-name="open" d="M899.072 49.664h-774.144v796.672h387.072v113.664h-387.072c-61.44 0-109.568-51.2-109.568-113.664v-796.672c0-62.464 48.128-113.664 109.568-113.664h772.096c60.416 0 110.592 51.2 110.592 113.664v398.336h-110.592v-398.336h2.048zM622.592 960v-113.664h198.656l-542.72-559.104 77.824-80.896 542.72 559.104v-204.8h109.568v399.36h-386.048z" />
<glyph unicode="&#xe944;" glyph-name="open-tiny" d="M906.24 1.536h-841.728v653.312h260.096l65.536 63.488-1.024 2.048h-324.608c-35.84 0-64.512-29.696-64.512-65.536v-653.312c0-35.84 28.672-65.536 64.512-65.536h841.728c35.84 0 64.512 29.696 64.512 65.536v510.976l-64.512-62.464v-448.512zM267.264 262.656h65.536c45.056 260.096 269.312 457.728 539.648 457.728 11.264 0 22.528 0 32.768 0l-118.784-119.808c-12.288-12.288-12.288-33.792 0-46.080 6.144-6.144 14.336-9.216 22.528-9.216s16.384 3.072 22.528 9.216l192.512 197.632-191.488 198.656c-12.288 12.288-32.768 12.288-46.080 0-12.288-12.288-12.288-33.792 0-46.080l117.76-118.784c-10.24 0-20.48 0-30.72 0-306.176 0-559.104-227.328-606.208-523.264z" />
<glyph unicode="&#xe945;" glyph-name="orders" d="M844.8 830.976h-145.408v21.504c0 11.264-9.216 21.504-20.48 21.504h-64.512c-10.24 49.152-52.224 86.016-102.4 86.016s-92.16-36.864-102.4-86.016h-65.536c-11.264 0-20.48-9.216-20.48-21.504v-21.504h-145.408c-11.264 0-20.48-9.216-20.48-21.504v-851.968c0-11.264 9.216-21.504 20.48-21.504h667.648c11.264 0 20.48 9.216 20.48 21.504v851.968c1.024 12.288-9.216 21.504-21.504 21.504zM366.592 830.976h62.464c11.264 0 20.48 9.216 20.48 21.504 0 35.84 27.648 63.488 62.464 63.488s62.464-27.648 62.464-63.488c0-11.264 9.216-21.504 20.48-21.504h62.464v-128h-290.816v128zM824.32-20.992h-625.664v809.984h124.928v-105.472c0-11.264 9.216-21.504 20.48-21.504h332.8c11.264 0 20.48 9.216 20.48 21.504v105.472h124.928v-809.984h2.048zM261.12 553.472c0-11.264 9.216-21.504 20.48-21.504h459.776c11.264 0 20.48 9.216 20.48 21.504s-9.216 21.504-20.48 21.504h-459.776c-11.264 1.024-20.48-8.192-20.48-21.504zM741.376 489.984h-459.776c-11.264 0-20.48-9.216-20.48-21.504s9.216-20.48 20.48-20.48h459.776c11.264 0 20.48 9.216 20.48 21.504s-8.192 20.48-20.48 20.48zM741.376 406.016h-459.776c-11.264 0-20.48-9.216-20.48-21.504 0-11.264 9.216-21.504 20.48-21.504h459.776c11.264 0 20.48 9.216 20.48 21.504 0 11.264-8.192 21.504-20.48 21.504zM741.376 320h-459.776c-11.264 0-20.48-9.216-20.48-21.504 0-11.264 9.216-21.504 20.48-21.504h459.776c11.264 0 20.48 9.216 20.48 21.504 0 13.312-8.192 21.504-20.48 21.504zM741.376 235.008h-459.776c-11.264 0-20.48-9.216-20.48-21.504 0-11.264 9.216-21.504 20.48-21.504h459.776c11.264 0 20.48 9.216 20.48 21.504s-8.192 21.504-20.48 21.504zM741.376 150.016h-459.776c-11.264 0-20.48-9.216-20.48-21.504 0-11.264 9.216-21.504 20.48-21.504h459.776c11.264 0 20.48 9.216 20.48 21.504s-8.192 21.504-20.48 21.504z" />
<glyph unicode="&#xe946;" glyph-name="exclamation" d="M624.64 157.184v-221.184h-225.28v221.184h225.28zM562.176 243.2h-102.4l-55.296 441.344v275.456h212.992v-275.456l-55.296-441.344z" />
<glyph unicode="&#xe947;" glyph-name="payment-info" d="M1002.496 748.032h-980.992c-11.264 0-21.504-9.216-21.504-22.528v-256c0-11.264 9.216-21.504 21.504-21.504h101.376l249.856 249.856c4.096 4.096 9.216 6.144 15.36 6.144h546.816c9.216 0 16.384-5.12 19.456-12.288 4.096-8.192 1.024-16.384-5.12-22.528l-80.896-80.896c-1.024 0-1.024-1.024-2.048-1.024l-389.12-392.192-4.096-3.072h-451.584c-11.264 0-21.504-9.216-21.504-21.504 0-11.264 9.216-21.504 21.504-21.504h470.016l297.984 299.008h212.992c11.264 0 21.504 9.216 21.504 21.504v256c0 12.288-9.216 22.528-21.504 22.528zM21.504 233.984h425.984c5.12 0 11.264 2.048 15.36 6.144l419.84 420.864h-486.4l-390.144-389.12c-6.144-6.144-8.192-15.36-5.12-22.528 4.096-10.24 11.264-15.36 20.48-15.36zM307.2 422.4c7.168 9.216 20.48 10.24 29.696 2.048s10.24-20.48 2.048-30.72c-1.024-2.048-2.048-4.096-4.096-6.144v0c18.432 0 46.080 14.336 60.416 31.744 1.024 3.072 3.072 4.096 4.096 6.144-19.456 0-32.768 9.216-39.936 22.528-4.096 9.216-8.192 28.672 12.288 54.272 20.48 24.576 53.248 41.984 82.944 46.080l16.384 19.456c7.168 9.216 20.48 10.24 29.696 3.072 9.216-8.192 10.24-20.48 3.072-30.72l-4.096-5.12c2.048-3.072 5.12-6.144 6.144-9.216 4.096-9.216 8.192-28.672-12.288-53.248-8.192-9.216-20.48-10.24-29.696-2.048-9.216 7.168-10.24 20.48-2.048 29.696 1.024 3.072 4.096 4.096 4.096 6.144v0c-18.432 0-46.080-14.336-60.416-31.744-1.024-2.048-4.096-4.096-4.096-6.144 19.456 0 32.768-9.216 39.936-22.528 4.096-9.216 8.192-28.672-12.288-54.272-20.48-24.576-53.248-43.008-82.944-46.080l-17.408-20.48c-2.048-2.048-9.216-5.12-15.36-5.12-5.12 0-9.216 1.024-14.336 5.12-9.216 8.192-10.24 20.48-2.048 29.696l4.096 5.12c-2.048 3.072-5.12 6.144-6.144 9.216-4.096 8.192-8.192 27.648 12.288 53.248z" />
<glyph unicode="&#xe948;" glyph-name="credit-card" d="M921.6 868.864h-819.2c-56.32 0-102.4-47.104-102.4-104.448v-632.832c0-58.368 46.080-104.448 102.4-104.448h819.2c56.32 0 102.4 47.104 102.4 104.448v632.832c0 58.368-46.080 104.448-102.4 104.448zM921.6 131.584h-819.2v316.416h819.2v-316.416zM921.6 658.944h-819.2v105.472h819.2v-105.472z" />
<glyph unicode="&#xe949;" glyph-name="clock-o-tiny" d="M512 960c-282.624 0-512-229.376-512-512s229.376-512 512-512c282.624 0 512 229.376 512 512s-229.376 512-512 512zM512-0.512c-246.784 0-448.512 201.728-448.512 448.512s201.728 448.512 448.512 448.512 448.512-201.728 448.512-448.512c0-246.784-201.728-448.512-448.512-448.512zM543.744 461.312v307.2c0 17.408-14.336 31.744-31.744 31.744s-31.744-14.336-31.744-31.744v-320.512c0-9.216 4.096-17.408 10.24-22.528 1.024-1.024 1.024-1.024 2.048-2.048l158.72-158.72c12.288-12.288 32.768-12.288 45.056 0s12.288 32.768 0 45.056l-152.576 151.552z" />
<glyph unicode="&#xe94a;" glyph-name="person" d="M978.944 139.776c-31.744 62.464-138.24 102.4-286.72 155.648-16.384 6.144-34.816 12.288-52.224 19.456v102.4c19.456 15.36 58.368 57.344 63.488 124.928 10.24 7.168 17.408 21.504 21.504 40.96 7.168 30.72 4.096 65.536-17.408 87.040 1.024 2.048 2.048 6.144 4.096 10.24 16.384 40.96 47.104 117.76 34.816 178.176-15.36 75.776-118.784 101.376-204.8 101.376-66.56 0-147.456-16.384-171.008-62.464-25.6-2.048-45.056-12.288-58.368-31.744-36.864-50.176-10.24-138.24 4.096-186.368 1.024-2.048 1.024-5.12 2.048-7.168-21.504-20.48-25.6-57.344-17.408-88.064 4.096-19.456 11.264-32.768 21.504-40.96 5.12-67.584 45.056-108.544 63.488-124.928v-102.4c-17.408-6.144-35.84-12.288-52.224-19.456-149.504-52.224-256-92.16-287.744-154.624-46.080-90.112-46.080-179.2-46.080-183.296 0-11.264 9.216-21.504 21.504-21.504h980.992c11.264 0 21.504 9.216 21.504 21.504-1.024 4.096-1.024 93.184-45.056 181.248z" />
<glyph unicode="&#xe94b;" glyph-name="store" d="M141.312-64h743.424c41.984 0 73.728 31.744 73.728 75.776v512l6.144 4.096c35.84 18.432 59.392 55.296 59.392 96.256 0 16.384-4.096 31.744-9.216 46.080l-1.024 2.048c0 1.024 0 1.024 0 2.048l-71.68 230.4c-11.264 29.696-45.056 55.296-75.776 55.296h-707.584c-30.72 0-65.536-25.6-74.752-57.344l-71.68-229.376c0-1.024 0-1.024 0-1.024l-1.024-4.096c-7.168-15.36-11.264-30.72-11.264-46.080 0-40.96 21.504-77.824 57.344-96.256l6.144-4.096v-512c0-40.96 33.792-73.728 77.824-73.728zM184.32 555.52l4.096 4.096c3.072 2.048 4.096 5.12 6.144 9.216l11.264 20.48 10.24-19.456c19.456-32.768 54.272-55.296 92.16-55.296 36.864 0 72.704 20.48 91.136 55.296l10.24 19.456 10.24-19.456c19.456-32.768 54.272-55.296 91.136-55.296s72.704 20.48 91.136 55.296l13.312 19.456 10.24-19.456c19.456-32.768 53.248-55.296 91.136-55.296s71.68 20.48 91.136 55.296l10.24 19.456 10.24-19.456c0-1.024 1.024-2.048 2.048-4.096 2.048-4.096 8.192-9.216 8.192-16.384v-490.496h-160.768v280.576c0 29.696-21.504 52.224-49.152 52.224h-227.328c-28.672 0-52.224-24.576-52.224-52.224v-278.528h-164.864v494.592z" />
<glyph unicode="&#xe94c;" glyph-name="pinterest" d="M512 960c-277.504 0-502.784-229.376-502.784-512 0-209.92 123.904-390.144 301.056-468.992-1.024 35.84 0 77.824 9.216 117.76 10.24 40.96 65.536 278.528 65.536 278.528s-16.384 32.768-16.384 80.896c0 75.776 44.032 133.12 97.28 133.12 46.080 0 67.584-34.816 67.584-76.8 0-47.104-29.696-116.736-45.056-182.272-12.288-53.248 26.624-98.304 79.872-98.304 93.184 1.024 158.72 124.928 158.72 273.408 0 112.64-73.728 195.584-209.92 195.584-152.576 0-247.808-115.712-247.808-245.76 0-45.056 12.288-75.776 32.768-100.352 9.216-11.264 10.24-15.36 7.168-28.672-2.048-9.216-7.168-31.744-10.24-40.96-4.096-12.288-14.336-18.432-25.6-12.288-70.656 29.696-103.424 107.52-103.424 195.584 0 145.408 120.832 319.488 359.424 319.488 192.512 0 318.464-142.336 318.464-292.864 0-200.704-109.568-350.208-271.36-350.208-54.272 0-105.472 29.696-122.88 63.488 0 0-29.696-117.76-35.84-141.312-10.24-39.936-31.744-78.848-51.2-110.592 47.104-15.36 94.208-22.528 144.384-22.528 277.504 0 502.784 229.376 502.784 512s-224.256 514.048-501.76 514.048z" />
<glyph unicode="&#xe94d;" glyph-name="plans" d="M256 64h512v768h-512v-768zM0 166.4h204.8v563.2h-204.8v-563.2zM819.2 729.6v-563.2h204.8v563.2h-204.8z" />
<glyph unicode="&#xe94e;" glyph-name="pm-amex" d="M917.504 832h-811.008c-58.368 0-106.496-48.128-106.496-106.496v-555.008c0-58.368 48.128-106.496 106.496-106.496h811.008c58.368 0 106.496 48.128 106.496 106.496v555.008c0 58.368-48.128 106.496-106.496 106.496zM980.992 170.496c0-34.816-28.672-63.488-63.488-63.488h-811.008c-34.816 0-63.488 28.672-63.488 63.488v555.008c0 34.816 28.672 63.488 63.488 63.488h811.008c34.816 0 63.488-28.672 63.488-63.488v-555.008zM181.248 532.992l-73.728-171.008h51.2l13.312 43.008h73.728l13.312-43.008h51.2l-73.728 171.008h-55.296zM185.344 426.496l24.576 60.416 24.576-60.416h-49.152zM429.056 470.528l-51.2 62.464h-36.864v-171.008h43.008v96.256l43.008-53.248h3.072l38.912 53.248v-96.256h63.488v171.008h-53.248l-50.176-62.464zM618.496 426.496h63.488v43.008h-63.488v21.504h63.488v43.008h-106.496v-171.008h128v43.008h-84.992v20.48zM906.24 532.992h-62.464l-13.312-17.408c-5.12-6.144-12.288-17.408-20.48-29.696-9.216 12.288-17.408 23.552-23.552 31.744l-11.264 16.384h-64.512l67.584-81.92-70.656-89.088h63.488l15.36 18.432c6.144 7.168 14.336 17.408 23.552 30.72 2.048-3.072 6.144-8.192 12.288-15.36 6.144-8.192 10.24-12.288 10.24-13.312l17.408-20.48h64.512l-72.704 89.088 64.512 80.896z" />
<glyph unicode="&#xe94f;" glyph-name="bank-o" d="M84.992 469.504h43.008v-340.992h-43.008v340.992zM277.504 107.008h-212.992c-12.288 0-21.504 9.216-21.504 21.504s9.216 21.504 21.504 21.504h212.992c12.288 0 21.504-9.216 21.504-21.504s-10.24-21.504-21.504-21.504zM1002.496-64h-980.992c-12.288 0-21.504 9.216-21.504 21.504s9.216 21.504 21.504 21.504h980.992c12.288 0 21.504-9.216 21.504-21.504s-9.216-21.504-21.504-21.504zM1002.496 20.992h-980.992c-12.288 0-21.504 9.216-21.504 21.504s9.216 21.504 21.504 21.504h980.992c12.288 0 21.504-9.216 21.504-21.504s-9.216-21.504-21.504-21.504zM277.504 448h-212.992c-12.288 0-21.504 9.216-21.504 21.504s9.216 21.504 21.504 21.504h212.992c12.288 0 21.504-9.216 21.504-21.504s-10.24-21.504-21.504-21.504zM618.496 107.008h-212.992c-12.288 0-21.504 9.216-21.504 21.504s9.216 21.504 21.504 21.504h212.992c12.288 0 21.504-9.216 21.504-21.504s-9.216-21.504-21.504-21.504zM618.496 448h-212.992c-12.288 0-21.504 9.216-21.504 21.504s9.216 21.504 21.504 21.504h212.992c12.288 0 21.504-9.216 21.504-21.504s-9.216-21.504-21.504-21.504zM212.992 469.504h43.008v-340.992h-43.008v340.992zM427.008 469.504h43.008v-340.992h-43.008v340.992zM555.008 469.504h43.008v-340.992h-43.008v340.992zM960.512 107.008h-214.016c-12.288 0-21.504 9.216-21.504 21.504s9.216 21.504 21.504 21.504h212.992c12.288 0 21.504-9.216 21.504-21.504s-9.216-21.504-20.48-21.504zM960.512 448h-214.016c-12.288 0-21.504 9.216-21.504 21.504s9.216 21.504 21.504 21.504h212.992c12.288 0 21.504-9.216 21.504-21.504s-9.216-21.504-20.48-21.504zM768 469.504h43.008v-340.992h-43.008v340.992zM896 469.504h43.008v-340.992h-43.008v340.992zM1002.496 532.992h-980.992c-9.216 0-17.408 6.144-20.48 14.336s0 18.432 7.168 23.552l491.52 384c8.192 6.144 18.432 6.144 26.624 0l489.472-384c7.168-5.12 10.24-15.36 7.168-23.552s-11.264-14.336-20.48-14.336zM82.944 576h857.088l-427.008 335.872-430.080-335.872z" />
<glyph unicode="&#xe950;" glyph-name="pm-dinnersclub" d="M93.184 260.608h-61.44v-4.096c12.288-1.024 18.432-2.048 18.432-10.24 0-5.12-2.048-12.288-3.072-14.336l-28.672-99.328c-4.096-14.336-7.168-15.36-19.456-17.408v-4.096h60.416c69.632 0 102.4 38.912 102.4 87.040 1.024 24.576-14.336 62.464-68.608 62.464zM59.392 118.272c-11.264 0-16.384 1.024-16.384 9.216 0 4.096 3.072 14.336 5.12 21.504l27.648 97.28c0 3.072 1.024 7.168 15.36 7.168 41.984 0 45.056-28.672 45.056-53.248 0-14.336-2.048-81.92-76.8-81.92zM191.488 119.296c-2.048 0-4.096 2.048-4.096 3.072 0 3.072 3.072 12.288 4.096 15.36l20.48 75.776h-1.024c-9.216-2.048-28.672-5.12-37.888-6.144v-4.096c13.312 0 15.36-1.024 15.36-6.144 0-6.144-18.432-64.512-18.432-75.776 0-4.096 0-14.336 11.264-14.336 13.312 0 23.552 13.312 32.768 26.624l-3.072 3.072c-9.216-12.288-16.384-17.408-19.456-17.408zM197.632 252.416c0-8.192 5.12-12.288 11.264-12.288 8.192 0 11.264 7.168 11.264 12.288s-4.096 13.312-12.288 13.312c-4.096-1.024-10.24-5.12-10.24-13.312zM303.104 120.32c0 0-4.096 0-4.096 4.096 0 7.168 19.456 65.536 19.456 75.776s-5.12 15.36-16.384 15.36c-19.456 0-41.984-32.768-52.224-50.176v0l15.36 49.152h-1.024c-13.312-3.072-25.6-5.12-38.912-7.168v-4.096c13.312 0 15.36-3.072 15.36-6.144 0-5.12-16.384-60.416-23.552-87.040h17.408c10.24 31.744 13.312 41.984 23.552 58.368 8.192 13.312 23.552 33.792 34.816 33.792 4.096 0 6.144-3.072 6.144-7.168 0-9.216-17.408-66.56-17.408-72.704 0-7.168 0-14.336 11.264-14.336 13.312 0 21.504 11.264 32.768 26.624l-3.072 3.072c-9.216-10.24-15.36-17.408-19.456-17.408zM358.4 156.16c38.912 5.12 60.416 24.576 60.416 43.008 0 10.24-7.168 16.384-19.456 16.384-33.792 0-70.656-39.936-70.656-73.728 0-14.336 7.168-32.768 32.768-32.768 23.552 0 45.056 21.504 48.128 25.6l-3.072 3.072c-12.288-9.216-21.504-17.408-34.816-17.408-10.24 0-22.528 5.12-22.528 21.504 0 5.12 1.024 9.216 2.048 14.336h7.168zM357.376 170.496c9.216 20.48 24.576 38.912 37.888 38.912 6.144 0 8.192-4.096 8.192-9.216 0-2.048-1.024-29.696-50.176-39.936l4.096 10.24zM493.568 190.976c3.072 0 11.264 0 11.264 12.288 0 8.192-6.144 11.264-11.264 11.264-15.36 0-32.768-27.648-40.96-43.008l-2.048-4.096 11.264 47.104h-1.024c-10.24-2.048-24.576-5.12-36.864-6.144v-4.096c3.072 0 5.12 1.024 8.192 1.024 7.168 0 8.192-4.096 8.192-7.168 0-2.048-1.024-10.24-4.096-18.432l-19.456-68.608h18.432c10.24 31.744 13.312 41.984 22.528 59.392 2.048 3.072 16.384 29.696 23.552 29.696 5.12-1.024 2.048-9.216 12.288-9.216zM558.080 210.432c-7.168 0-12.288 4.096-22.528 4.096-25.6 0-28.672-18.432-28.672-26.624 0-18.432 28.672-40.96 28.672-56.32 0-8.192-4.096-19.456-17.408-19.456-19.456 0-22.528 21.504-24.576 31.744h-4.096l-5.12-37.888h4.096c1.024 3.072 2.048 5.12 6.144 5.12 7.168 0 16.384-4.096 23.552-4.096 13.312 0 35.84 6.144 35.84 31.744 0 20.48-28.672 40.96-28.672 56.32 0 11.264 7.168 13.312 13.312 13.312 15.36 0 21.504-13.312 22.528-26.624h2.048l5.12 32.768h-3.072c-2.048-1.024-3.072-4.096-7.168-4.096zM762.88 267.776c-1.024-2.048-3.072-5.12-9.216-5.12-5.12 0-19.456 6.144-36.864 6.144-54.272 0-96.256-52.224-96.256-97.28 0-47.104 34.816-63.488 62.464-63.488 34.816 0 55.296 24.576 64.512 34.816l-4.096 3.072c-11.264-11.264-27.648-27.648-55.296-27.648-28.672 0-40.96 19.456-40.96 50.176 0 34.816 24.576 91.136 71.68 91.136 33.792 0 35.84-31.744 36.864-37.888l4.096-1.024 9.216 47.104h-6.144zM782.336 118.272c-3.072 0-3.072 3.072-3.072 5.12 0 3.072 2.048 9.216 2.048 11.264l35.84 136.192-1.024 1.024c-12.288-3.072-24.576-5.12-36.864-6.144v-4.096c6.144 0 16.384 0 16.384-6.144 0-5.12-34.816-128-34.816-133.12 0-6.144 1.024-14.336 11.264-14.336 14.336 0 23.552 11.264 35.84 29.696l-3.072 2.048c-11.264-14.336-16.384-21.504-22.528-21.504zM892.928 120.32c-2.048 0-2.048 2.048-2.048 3.072 0 3.072 3.072 14.336 4.096 18.432l18.432 70.656h-17.408c-9.216-25.6-14.336-39.936-25.6-57.344-8.192-12.288-22.528-34.816-32.768-34.816-5.12 0-6.144 5.12-5.12 8.192l21.504 86.016h-1.024c-12.288-3.072-23.552-5.12-35.84-6.144v-3.072c10.24 0 14.336 0 14.336-7.168 0-6.144-18.432-65.536-18.432-75.776s4.096-14.336 13.312-14.336c21.504 0 38.912 29.696 55.296 56.32h1.024c-5.12-19.456-10.24-38.912-10.24-43.008 0-3.072 0-12.288 11.264-12.288 12.288 0 18.432 6.144 32.768 27.648l-3.072 2.048c-9.216-10.24-15.36-18.432-20.48-18.432zM996.352 221.696c-21.504 0-33.792-12.288-40.96-23.552v0c8.192 26.624 15.36 53.248 20.48 72.704l-1.024 1.024c-12.288-2.048-24.576-4.096-35.84-5.12v-4.096c13.312 0 15.36-1.024 15.36-7.168 0-3.072-2.048-9.216-4.096-15.36l-32.768-117.76v-2.048c0-5.12 18.432-12.288 30.72-12.288 35.84 0 75.776 40.96 75.776 77.824 0 17.408-10.24 35.84-27.648 35.84zM949.248 114.176c-11.264 0-11.264 6.144-11.264 8.192 3.072 41.984 23.552 88.064 50.176 88.064 15.36 0 16.384-19.456 16.384-26.624-1.024-20.48-23.552-69.632-55.296-69.632zM302.080 404.992l13.312-5.12v291.84l-13.312-5.12c-60.416-20.48-101.376-77.824-101.376-141.312 0-62.464 40.96-119.808 101.376-140.288zM351.232 302.592h296.96c135.168 0 244.736 109.568 244.736 243.712s-109.568 242.688-244.736 242.688h-296.96c-135.168 0-244.736-109.568-244.736-243.712s109.568-242.688 244.736-242.688zM351.232 763.392c120.832 0 219.136-97.28 219.136-217.088s-98.304-217.088-219.136-217.088c-120.832 0-219.136 97.28-219.136 217.088s98.304 217.088 219.136 217.088zM501.76 546.304c0 63.488-40.96 119.808-101.376 141.312l-13.312 5.12v-291.84l13.312 5.12c60.416 19.456 101.376 76.8 101.376 140.288z" />
<glyph unicode="&#xe951;" glyph-name="pm-girobank" d="M125.952 483.84c0 18.432 0 36.864 0 55.296-19.456 0-37.888 0-57.344 0 0-18.432 0-36.864 0-55.296 19.456 0 37.888 0 57.344 0zM371.712 489.984c10.24 0 19.456 0 29.696 0 0 8.192 0 16.384 0 24.576-10.24 0-19.456 0-29.696 0 0-8.192 0-16.384 0-24.576zM992.256 435.712c10.24 13.312 19.456 25.6 28.672 38.912-11.264 0-21.504 0-32.768 0-8.192-12.288-15.36-23.552-23.552-35.84 0 25.6 0 51.2 0 76.8-10.24 0-19.456 0-29.696 0 0-43.008 0-86.016 0-129.024 10.24 0 19.456 0 29.696 0 0 15.36 0 30.72 0 46.080 8.192-15.36 15.36-30.72 23.552-46.080 11.264 0 23.552 0 34.816 0-9.216 15.36-20.48 32.768-30.72 49.152zM303.104 455.168c0-7.168 0-15.36 0-22.528 6.144 0 12.288 0 18.432 0 0-8.192 0-16.384 0-24.576-11.264-2.048-24.576-2.048-33.792 5.12-8.192 6.144-12.288 15.36-14.336 25.6-1.024 9.216-1.024 18.432 3.072 26.624 4.096 10.24 13.312 17.408 24.576 19.456 14.336 4.096 30.72 1.024 44.032-6.144 1.024 8.192 2.048 16.384 3.072 24.576-13.312 4.096-27.648 6.144-40.96 6.144-17.408 0-36.864-5.12-49.152-18.432-13.312-13.312-17.408-33.792-15.36-52.224 1.024-13.312 6.144-26.624 15.36-35.84 10.24-10.24 24.576-15.36 38.912-16.384 18.432-2.048 36.864-1.024 55.296 4.096 0 22.528 0 44.032 0 66.56-17.408-2.048-33.792-2.048-49.152-2.048zM464.896 473.6c-7.168-3.072-11.264-10.24-14.336-16.384 0 5.12 0 11.264 0 16.384-9.216 0-17.408 0-26.624 0 0-29.696 0-59.392 0-88.064 10.24 0 19.456 0 29.696 0 0 13.312 0 26.624 0 39.936 0 8.192 2.048 16.384 8.192 21.504s15.36 4.096 22.528 2.048c0 9.216 1.024 17.408 1.024 26.624-7.168 1.024-14.336 2.048-20.48-2.048zM903.168 470.528c-9.216 7.168-22.528 8.192-32.768 4.096-8.192-2.048-14.336-8.192-18.432-15.36 0 5.12 0 10.24 0 15.36-9.216 0-18.432 0-26.624 0 0-29.696 0-59.392 0-88.064 10.24 0 19.456 0 29.696 0 0 14.336 0 29.696 0 44.032 0 8.192 3.072 17.408 11.264 20.48 5.12 1.024 12.288 1.024 15.36-3.072 4.096-5.12 4.096-11.264 4.096-17.408 0-14.336 0-29.696 0-44.032 10.24 0 19.456 0 29.696 0 0 18.432 0 36.864 0 55.296-1.024 10.24-4.096 21.504-12.288 28.672zM0 419.328c19.456 0 37.888 0 57.344 0 0 18.432 0 36.864 0 55.296-19.456 0-37.888 0-57.344 0 0-18.432 0-36.864 0-55.296zM125.952 475.648c-19.456 0-37.888 0-57.344 0 0-18.432 0-36.864 0-55.296 19.456 0 37.888 0 57.344 0 0 18.432 0 36.864 0 55.296zM137.216 475.648c0-18.432 0-36.864 0-55.296 19.456 0 38.912 0 57.344 0 0 18.432 0 36.864 0 55.296-18.432 0-37.888 0-57.344 0zM371.712 385.536c10.24 0 19.456 0 29.696 0 0 29.696 0 59.392 0 88.064-10.24 0-19.456 0-29.696 0 0-28.672 0-58.368 0-88.064zM569.344 470.528c-12.288 7.168-27.648 7.168-40.96 5.12s-25.6-9.216-31.744-21.504c-6.144-10.24-6.144-23.552-4.096-35.84s10.24-23.552 20.48-29.696c12.288-6.144 26.624-7.168 39.936-5.12 12.288 2.048 24.576 8.192 30.72 19.456 7.168 11.264 8.192 25.6 6.144 37.888s-9.216 23.552-20.48 29.696zM552.96 409.088c-6.144-6.144-17.408-6.144-23.552 1.024-7.168 7.168-8.192 18.432-6.144 27.648 1.024 7.168 5.12 14.336 12.288 16.384 6.144 2.048 13.312 1.024 17.408-4.096 4.096-4.096 6.144-11.264 6.144-17.408 1.024-8.192 0-17.408-6.144-23.552zM664.576 476.672c-10.24 0-20.48-5.12-26.624-14.336 0 17.408 0 34.816 0 52.224-10.24 0-19.456 0-29.696 0 0-43.008 0-86.016 0-129.024 9.216 0 17.408 0 26.624 0 0 6.144 0 11.264 0 17.408 2.048-3.072 3.072-5.12 6.144-7.168 13.312-14.336 38.912-14.336 52.224 1.024 9.216 9.216 12.288 23.552 12.288 35.84s-3.072 25.6-12.288 33.792c-8.192 7.168-19.456 10.24-28.672 10.24zM672.768 422.4c-1.024-6.144-6.144-12.288-12.288-14.336-6.144-1.024-13.312 0-17.408 4.096-6.144 7.168-6.144 16.384-5.12 25.6 1.024 7.168 7.168 15.36 14.336 16.384 5.12 1.024 12.288-1.024 15.36-5.12 6.144-8.192 6.144-18.432 5.12-26.624zM793.6 465.408c-7.168 8.192-17.408 10.24-26.624 11.264-13.312 0-26.624-1.024-38.912-6.144 1.024-6.144 1.024-13.312 1.024-19.456 12.288 5.12 26.624 10.24 38.912 4.096 5.12-2.048 7.168-8.192 7.168-13.312-9.216 0-18.432 0-27.648-1.024s-19.456-4.096-25.6-12.288c-8.192-12.288-5.12-32.768 8.192-39.936 9.216-5.12 21.504-5.12 30.72-1.024 6.144 2.048 10.24 7.168 15.36 12.288 0-4.096 0-9.216 1.024-13.312 8.192 0 17.408 0 25.6 0 0 17.408 0 34.816 0 52.224 0 9.216-2.048 19.456-9.216 26.624zM771.072 410.112c-5.12-6.144-13.312-8.192-19.456-5.12s-7.168 14.336 0 17.408c7.168 4.096 16.384 3.072 24.576 3.072-1.024-5.12-1.024-11.264-5.12-15.36zM68.608 412.16c0-18.432 0-36.864 0-55.296 19.456 0 37.888 0 57.344 0 0 18.432 0 36.864 0 55.296-18.432 0-37.888 0-57.344 0z" />
<glyph unicode="&#xe952;" glyph-name="pm-giropay" d="M743.424 421.376c0-7.168 7.168-12.288 15.36-12.288 14.336 0 23.552 13.312 23.552 26.624-5.12 0-10.24 1.024-16.384 1.024-12.288 0-22.528-4.096-22.528-15.36zM628.736 470.528c-14.336 0-23.552-12.288-23.552-28.672s10.24-28.672 23.552-28.672c14.336 0 23.552 12.288 23.552 29.696 0 15.36-8.192 27.648-23.552 27.648zM944.128 663.040h-865.28c-44.032 0-78.848-36.864-78.848-79.872v-282.624c0-43.008 34.816-77.824 78.848-77.824h865.28c44.032 0 79.872 34.816 79.872 77.824v282.624c0 43.008-35.84 79.872-79.872 79.872zM532.48 253.44h-456.704c-26.624 0-45.056 21.504-45.056 49.152v276.48c0 27.648 18.432 53.248 45.056 53.248h456.704v-378.88zM641.024 386.56c-13.312 0-27.648 0-34.816 20.48h-2.048v-61.44h-40.96v153.6h40.96v-20.48h-1.024c7.168 10.24 23.552 21.504 40.96 21.504 30.72 0 47.104-28.672 47.104-55.296 0-31.744-17.408-58.368-50.176-58.368zM785.408 386.56c0 10.24-1.024 10.24-1.024 20.48v0c-9.216-20.48-19.456-21.504-34.816-21.504-21.504 0-40.96 10.24-40.96 33.792 0 33.792 36.864 37.888 57.344 37.888 6.144 0 13.312-1.024 17.408-2.048 0 15.36-11.264 19.456-25.6 19.456-12.288 0-24.576-2.048-34.816-8.192l-1.024 25.6c13.312 5.12 27.648 8.192 44.032 8.192 28.672 0 53.248-12.288 53.248-46.080v-40.96c0-8.192 0-16.384 2.048-26.624h-35.84zM916.48 394.752c-11.264-27.648-19.456-55.296-54.272-55.296-8.192 0-16.384 1.024-23.552 2.048l2.048 28.672c5.12-2.048 10.24-2.048 15.36-2.048 9.216 0 16.384 6.144 19.456 16.384l-45.056 114.688h40.96l23.552-71.68 22.528 71.68h37.888l-38.912-104.448zM135.168 387.584c15.36 0 27.648 9.216 36.864 19.456h2.048v-7.168c0-21.504-12.288-31.744-34.816-31.744-16.384 0-25.6 3.072-37.888 9.216l-2.048-29.696c9.216-3.072 22.528-7.168 39.936-7.168 45.056 0 64.512 14.336 64.512 60.416v98.304h-30.72v-20.48h-1.024c-8.192 10.24-21.504 21.504-37.888 21.504-34.816 0-50.176-24.576-50.176-57.344 2.048-32.768 20.48-55.296 51.2-55.296zM147.456 470.528c17.408 0 24.576-13.312 24.576-26.624 0-17.408-11.264-28.672-24.576-28.672-11.264 0-21.504 10.24-21.504 26.624-1.024 16.384 7.168 28.672 21.504 28.672zM445.44 384.512c36.864 0 64.512 21.504 64.512 57.344 0 36.864-27.648 58.368-64.512 58.368s-64.512-21.504-64.512-58.368c0-36.864 27.648-57.344 64.512-57.344zM445.44 473.6c17.408 0 24.576-14.336 24.576-31.744 0-16.384-7.168-30.72-24.576-30.72s-24.576 14.336-24.576 30.72c0 16.384 7.168 31.744 24.576 31.744zM235.52 499.2h40.96v-112.64h-40.96v112.64zM337.92 433.664c0 21.504 9.216 34.816 27.648 34.816 4.096 0 8.192 0 12.288-1.024l2.048 31.744c-4.096 1.024-8.192 2.048-13.312 2.048-16.384 0-26.624-12.288-32.768-22.528h4.096v20.48h-40.96v-112.64h40.96v47.104zM235.52 540.16h40.96v-20.48h-40.96v20.48z" />
<glyph unicode="&#xe953;" glyph-name="pm-ideal" d="M113.664 117.248h163.84v274.432h-163.84v-274.432zM197.632 622.080c-51.2 0-93.184-41.984-93.184-93.184s41.984-93.184 93.184-93.184c51.2 0 93.184 41.984 93.184 93.184-1.024 51.2-41.984 93.184-93.184 93.184zM989.184 650.752c-22.528 56.32-55.296 103.424-97.28 141.312-74.752 66.56-179.2 102.4-303.104 104.448v0h-588.8v-899.072h588.8c129.024 2.048 230.4 33.792 303.104 96.256 88.064 75.776 132.096 194.56 132.096 353.28 0 76.8-11.264 145.408-34.816 203.776zM577.536 57.856c-20.48 0-465.92 0-518.144 0 0 53.248 0 726.016 0 779.264 52.224 0 497.664 0 518.144 0 113.664 0 208.896-30.72 275.456-90.112 74.752-66.56 111.616-167.936 111.616-300.032 0-261.12-126.976-389.12-387.072-389.12zM680.96 507.392c7.168 0 22.528 0 29.696 0-3.072 7.168-10.24 28.672-15.36 40.96-4.096-12.288-11.264-32.768-14.336-40.96zM390.144 473.6c4.096 1.024 8.192 3.072 11.264 5.12s5.12 7.168 7.168 13.312c2.048 6.144 3.072 15.36 3.072 27.648 0 11.264-1.024 20.48-3.072 26.624s-4.096 10.24-8.192 13.312c-3.072 3.072-7.168 5.12-12.288 6.144-3.072 1.024-9.216 1.024-24.576 1.024 0 0-5.12 0-9.216 0v-94.208c6.144 0 18.432 0 18.432 0 7.168 0 13.312 0 17.408 1.024zM910.336 472.576c-15.36 229.376-191.488 292.864-357.376 292.864h-199.68v-163.84h21.504c13.312 0 23.552-1.024 30.72-3.072 10.24-3.072 18.432-8.192 25.6-15.36s12.288-16.384 15.36-26.624c3.072-10.24 5.12-23.552 5.12-37.888 0-13.312-2.048-24.576-5.12-34.816-4.096-12.288-10.24-21.504-17.408-29.696-6.144-6.144-14.336-10.24-23.552-13.312-7.168-2.048-17.408-3.072-28.672-3.072h-22.528v-320.512h198.656c173.056 0 357.376 52.224 358.4 320.512h-114.688v162.816h39.936c0 0 0-119.808 0-128 6.144 0 58.368 0 73.728 0zM604.16 437.76h-125.952v163.84h122.88v-34.816c0 0-75.776 0-82.944 0 0-5.12 0-20.48 0-25.6 7.168 0 77.824 0 77.824 0v-34.816c0 0-69.632 0-77.824 0 0-6.144 0-27.648 0-33.792 7.168 0 86.016 0 86.016 0v-34.816zM738.304 437.76c0 0-11.264 30.72-13.312 35.84-5.12 0-51.2 0-56.32 0-2.048-5.12-13.312-35.84-13.312-35.84h-41.984l63.488 163.84h38.912l65.536-163.84h-43.008z" />
<glyph unicode="&#xe954;" glyph-name="pm-jcb" d="M0 702.976c0-35.84 0-175.104 0-314.368 12.288-7.168 68.608-25.6 92.16-26.624 50.176-3.072 81.92 13.312 86.016 54.272v152.576h111.616v-149.504c-6.144-84.992-81.92-102.4-198.656-97.28-30.72 1.024-71.68 8.192-91.136 13.312 0-139.264 0-264.192 0-264.192s145.408 0 193.536 0c53.248 0 121.856 48.128 121.856 121.856 0 123.904 0 630.784 0 630.784s-141.312 0-191.488 0c-64.512 0-123.904-57.344-123.904-120.832zM0 388.608v-53.248c0 0 0 0 0 0 0 17.408 0 34.816 0 53.248 0 0 0 0 0 0zM355.328 702.976c0-22.528 0-87.040 0-165.888 38.912 29.696 101.376 44.032 181.248 37.888 45.056-3.072 78.848-9.216 97.28-15.36v-53.248c-20.48 10.24-60.416 24.576-93.184 26.624-74.752 5.12-114.688-29.696-114.688-84.992 0-50.176 30.72-93.184 114.688-87.040 27.648 2.048 73.728 17.408 93.184 26.624v-51.2c-16.384-5.12-69.632-16.384-118.784-16.384-74.752-1.024-126.976 15.36-159.744 39.936 0-148.48 0-287.744 0-287.744s145.408 0 193.536 0c53.248 0 121.856 48.128 121.856 121.856 0 123.904 0 630.784 0 630.784s-141.312 0-191.488 0c-64.512-1.024-123.904-58.368-123.904-121.856zM771.072 432.64v-66.56h75.776c14.336 0 32.768 12.288 32.768 33.792 0 19.456-16.384 32.768-32.768 32.768-21.504 0-67.584 0-75.776 0zM840.704 530.944c-21.504 0-61.44 1.024-69.632 0v-60.416h71.68c12.288 0 28.672 11.264 28.672 29.696-1.024 18.432-15.36 30.72-30.72 30.72zM832.512 823.808c-64.512 0-123.904-57.344-123.904-121.856 0-19.456 0-69.632 0-134.144h184.32c36.864 0 79.872-15.36 79.872-59.392 0-23.552-12.288-50.176-58.368-58.368v-1.024c26.624 0 72.704-15.36 72.704-61.44 0-48.128-50.176-61.44-76.8-61.44h-201.728c0-136.192 0-256 0-256s145.408 0 193.536 0c53.248 0 121.856 48.128 121.856 121.856 0 123.904 0 630.784 0 630.784s-141.312 1.024-191.488 1.024z" />
<glyph unicode="&#xe955;" glyph-name="pm-maestro" d="M917.504 840.192h-811.008c-58.368 0-106.496-49.152-106.496-108.544v-566.272c0-60.416 48.128-108.544 106.496-108.544h811.008c58.368 0 106.496 49.152 106.496 108.544v566.272c0 59.392-48.128 108.544-106.496 108.544zM980.992 164.352c0-35.84-28.672-65.536-63.488-65.536h-811.008c-34.816 0-63.488 29.696-63.488 65.536v567.296c0 35.84 28.672 65.536 63.488 65.536h811.008c34.816 0 63.488-29.696 63.488-65.536v-567.296zM349.184 625.152c62.464 0 117.76-33.792 152.576-76.8h52.224c-4.096 0-7.168 20.48-11.264 26.624 35.84 36.864 83.968 55.296 135.168 55.296 62.464 0 117.76-38.912 152.576-81.92h52.224c-40.96 87.040-117.76 130.048-205.824 130.048-61.44 0-119.808-21.504-163.84-65.536-43.008 41.984-100.352 61.44-164.864 61.44-88.064 0-164.864-39.936-205.824-126.976h53.248c35.84 44.032 91.136 77.824 153.6 77.824zM677.888 240.128c-54.272 0-98.304 15.36-132.096 50.176 9.216 13.312 16.384 38.912 22.528 38.912h-48.128c-33.792-44.032-97.28-103.424-169.984-103.424-73.728 0-137.216 60.416-169.984 103.424h-49.152c36.864-87.040 120.832-141.312 220.16-141.312 65.536 0 124.928 30.72 167.936 73.728 41.984-41.984 97.28-68.608 160.768-68.608 95.232 0 177.152 49.152 215.040 136.192h-49.152c-36.864-43.008-97.28-89.088-167.936-89.088zM180.224 487.936l6.144-113.664h32.768l48.128 114.688-21.504-114.688h35.84l27.648 148.48h-57.344l-38.912-92.16-3.072 92.16h-55.296l-27.648-148.48h32.768l20.48 113.664zM672.768 465.408h18.432l5.12 29.696h-18.432l5.12 27.648h-35.84l-16.384-92.16-2.048-9.216-2.048-12.288c-1.024-4.096-1.024-7.168-1.024-11.264 0-17.408 10.24-26.624 27.648-26.624 8.192 0 15.36 1.024 25.6 4.096l5.12 26.624c-2.048-1.024-5.12-1.024-9.216-1.024-8.192 0-12.288 3.072-12.288 9.216 0 1.024 0 3.072 1.024 5.12l9.216 50.176zM761.856 460.288c1.024 0 3.072 0 4.096 0l4.096-1.024 13.312 33.792c-3.072 1.024-4.096 1.024-4.096 1.024-2.048 0-3.072 1.024-3.072 1.024-1.024 0-2.048 0-3.072 0-11.264 0-20.48-5.12-30.72-19.456l3.072 18.432h-31.744l-21.504-120.832h35.84c11.264 74.752 16.384 87.040 33.792 87.040zM592.896 468.48c7.168 0 16.384-1.024 25.6-2.048l5.12 27.648c-9.216 1.024-23.552 2.048-31.744 2.048-39.936 0-54.272-18.432-54.272-40.96 0-15.36 8.192-25.6 27.648-33.792 14.336-6.144 16.384-8.192 16.384-13.312 0-7.168-6.144-11.264-20.48-11.264-10.24 0-20.48 1.024-31.744 5.12l-5.12-27.648h2.048l6.144-1.024c2.048 0 5.12-1.024 9.216-1.024 8.192-1.024 15.36-1.024 19.456-1.024 37.888 0 55.296 12.288 55.296 39.936 0 16.384-7.168 26.624-25.6 33.792-15.36 6.144-16.384 7.168-16.384 13.312 1.024 7.168 7.168 10.24 18.432 10.24zM397.312 373.248v3.072l1.024 4.096 1.024 6.144 1.024 8.192 7.168 43.008c2.048 13.312 3.072 18.432 3.072 23.552 0 23.552-16.384 35.84-47.104 35.84-13.312 0-24.576-2.048-43.008-6.144l-5.12-27.648 3.072 1.024 5.12 1.024c8.192 2.048 19.456 3.072 29.696 3.072 16.384 0 22.528-3.072 22.528-11.264 0-2.048 0-4.096-1.024-8.192-5.12 1.024-10.24 1.024-14.336 1.024-39.936 0-62.464-17.408-62.464-47.104 0-19.456 13.312-32.768 32.768-32.768 16.384 0 28.672 5.12 36.864 14.336l-1.024-12.288h30.72zM346.112 397.824c-8.192 0-12.288 5.12-12.288 12.288 0 12.288 10.24 18.432 30.72 18.432 3.072 0 4.096 0 8.192 0-2.048-18.432-12.288-30.72-26.624-30.72zM523.264 423.424c3.072 12.288 4.096 20.48 4.096 29.696 0 26.624-18.432 44.032-48.128 44.032-35.84 0-62.464-30.72-62.464-72.704 0-35.84 20.48-54.272 60.416-54.272 12.288 0 24.576 2.048 36.864 5.12l6.144 30.72c-12.288-5.12-24.576-7.168-36.864-7.168-20.48 0-30.72 7.168-30.72 21.504 0 1.024 0 2.048 0 4.096h70.656zM479.232 470.528c10.24 0 16.384-6.144 16.384-15.36 0-2.048 0-4.096 0-6.144h-38.912c3.072 13.312 11.264 21.504 22.528 21.504zM837.632 498.176c-41.984 0-69.632-28.672-69.632-71.68 0-30.72 16.384-56.32 56.32-56.32 36.864 0 63.488 17.408 68.608 58.368 1.024 7.168 1.024 7.168 1.024 15.36 1.024 30.72-19.456 54.272-56.32 54.272zM856.064 429.568c-3.072-18.432-19.456-29.696-27.648-29.696-12.288 0-20.48 11.264-20.48 27.648 0 19.456 11.264 41.984 29.696 41.984 14.336 0 19.456-12.288 19.456-24.576 0-6.144 0-11.264-1.024-15.36z" />
</font>
</defs>
</svg>
