<?xml version="1.0" standalone="no"?>
<!DOCTYPE svg PUBLIC "-//W3C//DTD SVG 1.1//EN" "http://www.w3.org/Graphics/SVG/1.1/DTD/svg11.dtd">
<svg xmlns="http://www.w3.org/2000/svg">
<metadata>Generated by Fontastic.me</metadata>
<defs>
<font id="bloombees" horiz-adv-x="512">
<font-face font-family="bloombees" units-per-em="512" ascent="480" descent="-32"/>
<missing-glyph horiz-adv-x="512" />

<glyph glyph-name="plus" unicode="&#85;" d="M256 461c-113 0-205-92-205-205 0-113 92-205 205-205 113 0 205 92 205 205 0 113-92 205-205 205z m0-396c-105 0-191 86-191 191 0 105 86 191 191 191 105 0 191-86 191-191 0-105-86-191-191-191z m86 198l-79 0 0 79c0 4-3 7-7 7-4 0-7-3-7-7l0-79-79 0c-4 0-7-3-7-8 0-4 3-6 7-6l79 0 0-80c0-4 3-7 8-7 3 0 7 3 7 7l0 80 79 0c4 0 7 3 7 6-1 5-4 8-8 8z"/>
<glyph glyph-name="money" unicode="&#86;" d="M207 161c10-10 21-17 35-19l0 94c-1 1-3 2-6 2-3 1-5 2-8 2-11 3-22 7-33 11-11 4-20 9-29 16-9 7-15 16-21 25-5 11-7 23-7 38 0 15 3 28 8 40 6 12 14 22 23 30 10 8 21 14 34 18 13 4 25 7 39 8l0 35 27 0 0-35c13-2 26-5 38-9 11-4 22-10 31-18 9-7 16-17 22-28 6-12 9-25 10-41l-64 0c0 12-4 22-11 31-7 8-16 13-26 13l0-80c3-1 7-2 11-3 4-1 8-2 12-3 22-6 39-13 51-22 12-9 21-18 27-28 5-10 9-19 10-29 1-9 1-18 1-25 0-7-1-15-5-25-3-11-9-20-18-30-8-10-20-18-34-26-14-7-33-11-55-13l0-39-27 0 0 39c-34 2-60 12-79 31-19 18-29 45-32 81l63 0c0-18 4-32 13-41z m20 210c-4-1-9-3-12-7-5-3-8-7-10-12-2-4-3-10-3-16 0-10 3-18 9-23 7-6 17-10 32-13l0 73c-6 0-11 0-16-2z m59-226c5 2 11 5 16 9 4 3 8 8 11 13 3 5 4 11 4 19 0 12-3 20-11 26-7 6-20 11-38 16l0-87c6 1 12 3 18 4z"/>
<glyph glyph-name="settings" unicode="&#87;" d="M413 236c1 7 1 13 1 20 0 7 0 13-1 20l44 34c4 3 5 8 3 13l-42 71c-3 4-8 6-13 4l-52-20c-11 8-23 15-36 20l-8 54c0 5-5 9-10 9l-85 0c-5 0-10-4-10-9l-8-54c-13-5-25-12-36-20l-52 20c-5 2-10 0-13-4l-42-71c-2-5-1-10 3-13l44-34c-1-7-1-13-1-20 0-7 0-13 1-20l-44-34c-4-3-5-8-3-13l42-71c3-4 8-6 13-4l52 20c11-8 23-15 36-20l8-54c0-5 5-9 10-9l84 0c5 0 10 4 10 9l8 54c13 5 25 12 36 20l52-20c5-2 10 0 13 4l42 71c2 5 1 10-3 13z m-157-52c-40 0-74 33-74 72 0 39 34 72 74 72 40 0 74-33 74-72 0-39-34-72-74-72z"/>
<glyph glyph-name="payment-info" unicode="&#88;" d="M452 376l-392 0c-5 0-9-4-9-9l0-102c0-5 4-9 9-9l40 0 100 100c2 1 4 2 6 2l219 0c4 0 7-2 8-5 1-3 0-6-2-9l-33-32c0 0 0-1-1-1l-155-156-1-1-181 0c-5 0-9-4-9-9 0-5 4-9 9-9l188 0 119 120 85 0c5 0 9 4 9 9l0 102c0 5-4 9-9 9z m-392-206l170 0c2 0 5 2 7 3l167 169-194 0-156-157c-3-2-3-6-2-9 1-3 4-6 8-6z m114 76c3 3 8 4 12 1 3-3 4-8 1-13-1-1-1-1-2-2 8 0 19 6 24 13 1 1 1 1 2 2-8 0-13 4-16 10-1 3-3 11 5 21 8 10 22 17 33 18l7 8c3 4 8 4 12 1 3-3 4-8 1-12l-2-2c1-1 2-3 3-4 1-3 3-11-5-21-3-4-8-4-12-1-4 3-4 8-1 11 1 2 2 2 2 3-8 0-19-6-24-13-1-1-2-1-2-2 8 0 13-4 16-10 1-3 3-11-5-21-8-10-22-17-34-18l-6-8c-1-1-4-2-6-2-2 0-4 0-6 2-4 3-4 8-1 12l2 2c-2 1-3 2-3 3-2 4-3 12 5 22z"/>
<glyph glyph-name="certified" unicode="&#89;" d="M260 170c-9 16-11 35-5 52-6 17-5 35 5 51 8 15 24 26 42 29 11 14 28 22 46 22 8 0 17-2 25-6l0 49c0 2-1 5-2 6l-85 85c-1 2-3 3-6 3l-186 0c-5 0-9-4-9-9l0-358c0-5 4-9 9-9l177 0 0 71c-4 4-8 9-11 14z m88-51c-18 0-35 8-46 22-5 1-10 2-14 4l0-86c0-3 2-6 5-7 3-2 7-1 10 1l15 13 25 21c1 1 3 2 5 2 2 0 4-1 6-2l24-21 16-13c2-2 6-3 9-1 3 1 5 4 5 7l0 86c-4-1-9-3-13-3-13-15-29-23-47-23z m73 103c7 12 8 29 0 42-7 13-22 22-37 22-7 12-20 21-37 21-14 0-26-6-34-18-2-2-4-3-6-3-14-2-26-10-33-21-7-12-8-27-2-39 1-2 1-5 0-7-5-11-5-23-1-35 7-15 20-24 35-26 3 0 5-1 6-3 8-12 21-18 35-18 13 0 26 6 34 18 1 2 4 3 6 3 14 2 26 10 33 21 8 12 9 29 1 43z m-73-34c-19 0-34 15-34 34 0 19 15 35 34 35 18 0 33-16 33-35 0-19-14-34-33-34z"/>
<glyph glyph-name="call" unicode="&#48;" d="M440 168l-42 44c-19 19-51 19-70 0l-7-8c-41 36-81 77-116 119l8 7c19 20 19 52 0 72l-42 44c-19 20-51 20-70 0l-23-24c-23-24-27-62-9-90 68-106 158-199 261-269 12-8 25-12 39-12 18 0 35 7 49 21l23 24c9 10 14 23 14 37 0 13-5 26-15 35z m-14-57l-23-24c-16-17-43-20-62-7-101 68-189 160-256 263-13 20-10 47 6 65l23 24c6 6 13 9 21 9 8 0 16-3 21-9l42-44c12-12 12-31 0-43l-14-15c-3-3-4-9 0-14 38-48 83-94 130-134 4-3 10-3 14 1l14 14c11 12 30 12 41 0l42-43c6-6 9-14 9-22 1-8-2-16-8-21z m-114 193l88 0c6 0 10 4 10 10 0 5-4 10-10 10l-65 0 114 119c4 4 4 10 0 14-4 4-10 4-14 0l-113-118 0 67c0 6-5 10-10 10-6 0-10-4-10-10l0-92c0-2 1-5 3-7 2-2 4-3 7-3z"/>
<glyph glyph-name="crosshair" unicode="&#49;" d="M285 461l-58 0 0-176-176 0 0-58 176 0 0-176 58 0 0 176 176 0 0 58-176 0 0 176"/>
<glyph glyph-name="clipboard-black" unicode="&#50;" d="M404 420l-88 0c-9 23-32 41-60 41-28 0-51-18-60-41l-88 0c-24 0-43-19-43-41l0-287c0-22 19-41 43-41l296 0c24 0 43 19 43 41l0 287c0 22-19 41-43 41z m-148 0c12 0 21-9 21-21 0-11-10-20-21-20-11 0-21 9-21 20 0 12 9 21 21 21z m42-287l-148 0 0 41 148 0z m64 82l-212 0 0 41 212 0 0-41z m0 82l-212 0 0 41 212 0 0-41z"/>
<glyph glyph-name="warning" unicode="&#51;" d="M400 403c-39 38-90 59-144 58-55-1-106-23-145-63-40-39-61-91-60-146 1-54 23-106 61-143 38-37 87-58 140-58 1 0 3 0 4 0 115 2 206 95 205 209-1 54-23 106-61 143z m-144-334c-50 0-96 18-132 52-34 35-54 81-55 132-1 50 19 97 54 133 36 36 83 56 134 57 1 0 2 0 3 0 49 0 94-18 128-52 35-34 55-81 55-131 2-104-82-189-187-191z m0 152c5 0 9 4 9 8l0 125c0 5-4 8-9 8-5 0-9-4-9-8l0-125c0-5 4-8 9-8z m0-36c-10 0-18-8-18-18 0-10 8-18 18-18 10 0 18 8 18 18 0 10-8 18-18 18z m0-18l9 0z"/>
<glyph glyph-name="attach" unicode="&#52;" d="M130 74c-20 0-40 8-56 23-30 29-30 78 0 108l209 204c19 19 46 29 73 29 28 0 55-10 74-29 20-20 31-45 31-73 0-27-11-52-31-72l-147-144c-4-3-9-3-13 0-3 3-3 9 0 12l148 144c17 16 26 37 26 60 0 22-9 44-26 60-16 16-38 25-61 25-23 0-45-9-62-25l-208-203c-24-24-24-61 0-84 23-23 62-23 86 0l199 195c10 10 10 26 0 36-10 10-27 10-37 0l-148-144c-3-3-8-3-12 0-3 3-3 8 0 11l148 145c16 16 45 16 62 0 16-17 16-44 0-60l-200-196c-16-15-35-22-55-22z"/>
<glyph glyph-name="balance" unicode="&#54;" d="M324 239l0 179c0 29-71 43-137 43-65 0-136-14-136-43l0-256c0-29 71-42 137-42l0-26c0-29 71-42 137-42 65-1 136 13 136 42l0 102c0 30-71 43-137 43z m120-94c0-8-41-26-119-26-79 0-120 18-120 26l0 29c25-14 74-20 120-20 46 0 94 6 119 20z m-137 222c0-8-40-25-119-25-79 0-119 17-119 25l0 29c25-14 73-20 119-20 46 0 95 6 119 20z m-119-43c46 0 95 7 119 21l0-30c0-7-40-25-119-25-79 0-119 18-119 25l0 30c24-14 73-21 119-21z m0-51c46 0 95 7 119 20l0-29c0-7-40-25-119-25-79 0-119 18-119 25l0 29c24-13 73-20 119-20z m-120-31c25-14 73-20 119-20 9 0 17 0 26 0-16-6-26-15-26-26l0-9c-78 0-119 18-119 26z m376-46c0-8-41-26-119-26-79 0-120 18-120 26 0 8 41 26 120 26 78 0 119-18 119-26z m-146 42c4 2 7 3 9 4l0-3c-3 0-5 0-9-1z m-110 206c79 0 119-18 119-26 0-7-40-25-119-25-79 0-119 18-119 25-1 8 40 26 119 26z m-120-282l0 29c25-13 73-20 119-20l0-34c-78 0-119 18-119 25z m256-94c-79 0-119 18-119 26l0 29c25-14 73-21 119-21 46 0 95 7 119 21l0-29c1-8-40-26-119-26z"/>
<glyph glyph-name="share-black" unicode="&#98;" d="M383 172c-16 0-30-7-41-16l-152 85c1 4 3 9 3 14 0 5-2 10-3 14l149 85c12-10 27-17 43-17 36 0 64 28 64 61 0 34-28 62-64 62-35 0-63-28-63-62 0-5 1-9 2-14l-149-84c-11 10-27 17-43 17-35 0-63-28-63-62 0-34 28-61 63-61 17 0 32 6 43 17l151-86c-1-4-2-8-2-13 0-33 28-60 62-60 34 0 62 27 62 60-1 32-28 60-62 60z"/>
<glyph glyph-name="star-black" unicode="&#100;" d="M256 140l126-75-33 141 112 96-148 12-57 133-57-133-148-12 112-96-34-141z"/>
<glyph glyph-name="star" unicode="&#101;" d="M461 302l-148 12-57 133-57-133-148-12 112-96-34-141 127 75 126-75-33 141z m-205-125l-77-45 21 86-68 58 89 8 35 81 35-81 89-8-67-58 20-87z"/>
<glyph glyph-name="switch" unicode="&#102;" d="M142 280l-91-95 91-94 0 71 160 0 0 47-160 0z m319 47l-91 94 0-70-160 0 0-47 160 0 0-71z"/>
<glyph glyph-name="sn-twitter" unicode="&#106;" d="M461 385c-15-7-31-11-48-13 17 10 30 27 37 47-17-10-35-17-54-21-15 17-37 27-61 27-47 0-84-38-84-85 0-7 0-13 2-19-70 3-132 37-173 89-7-13-11-28-11-43 0-30 14-56 37-72-14 1-27 5-38 11l0-1c0-41 29-76 68-84-7-2-15-3-22-3-6 0-11 1-16 2 11-34 41-59 78-60-29-23-65-36-104-36-7 0-14 0-20 1 37-24 81-38 129-38 154 0 239 130 239 243 0 3 0 7 0 11 15 12 30 27 41 44z"/>
<glyph glyph-name="view" unicode="&#107;" d="M459 261c-4 5-92 115-203 115-111 0-199-110-203-115-2-3-2-8 0-11 4-4 92-114 203-114 111 0 199 110 203 115 2 3 2 7 0 10z m-203-108c-90 0-166 81-185 103 19 22 95 103 185 103 90 0 166-81 185-103-19-22-95-103-185-103z m0 180c-42 0-77-35-77-77 0-42 35-77 77-77 42 0 77 35 77 77 0 42-35 77-77 77z m0-137c-33 0-60 27-60 60 0 33 27 60 60 60 33 0 60-27 60-60 0-33-27-60-60-60z m0 103c-5 0-9-4-9-9 0-4 4-8 9-8 14 0 26-12 26-26 0-14-12-26-26-26-14 0-26 12-26 26 0 5-3 9-8 9-5 0-9-4-9-9 0-24 19-43 42-43 24 0 43 19 43 43 0 24-18 43-42 43z"/>
<glyph glyph-name="alert" unicode="&#108;" d="M247 316l0-137c0-5 4-9 9-9 5 0 9 5 9 9l0 137c0 5-4 9-9 9-5 0-9-4-9-9z m213-252l-196 392c-3 6-13 6-16 0l-196-392c-1-3-1-6 1-9 1-2 4-4 7-4l392 0c3 0 6 2 8 4 1 3 1 6 0 9z m-385 5l181 364 181-364z m163 53c0-9 8-18 18-18 10 0 18 9 18 18 0 10-8 18-18 18-10 0-18-8-18-18z m18 0l9 0z"/>
<glyph glyph-name="sn-facebook" unicode="&#109;" d="M279 373c0 17 14 23 30 23 17 0 34-5 34-5l10 63c0 0-22 7-75 7-32 0-51-12-64-30-13-18-14-46-14-64l0-41-41 0 0-61 41 0 0-214 78 0 0 213 62 0 5 62-67 0 0 47z"/>
<glyph glyph-name="checklist" unicode="&#113;" d="M410 352c0 0 0 0-1 1 0 0 0 0 0 0 0 1 0 1 0 1 0 0 0 0 0 1-1 0-1 1-1 1l-103 103c0 0-1 1-1 1-1 0-1 0-2 0 0 0 0 0 0 0-1 0-1 1-1 1-1 0-1 0-2 0l-188 0c-5 0-9-4-9-9l0-393c0-4 4-8 9-8l290 0c5 0 9 3 9 8l0 291c0 0 0 1 0 2z m-103 80l73-74-73 0z m86-364l-274 0 0 376 171 0 0-94c0-4 3-8 8-8l94 0 0-274z m-137 214c0-5 4-9 9-9l68 0c4 0 9 3 9 9 0 5-4 8-9 8l-68 0c-5 0-9-4-9-8z m77-60l-68 0c-5 0-9-4-9-9 0-5 4-9 9-9l68 0c4 0 9 4 9 9 0 5-5 9-9 9z m0-68l-68 0c-5 0-9-4-9-9 0-5 4-9 9-9l68 0c4 0 9 4 9 9 0 5-5 9-9 9z m-109 168l-37-37-19 19c-4 4-9 4-12 0-4-3-4-9 0-12l25-26c2-1 4-2 6-2 2 0 5 1 7 2l42 43c4 3 4 8 0 12-3 4-8 4-12 1z m0-69l-37-36-19 19c-4 4-9 4-12 0-4-4-4-9 0-12l25-26c2-1 4-2 6-2 2 0 5 1 7 2l42 43c4 3 4 8 0 12-3 4-8 4-12 0z m0-68l-36-37-20 20c-3 4-8 4-12 0-3-4-3-9 0-12l26-26c1-1 4-3 6-3 2 0 5 2 6 3l43 43c3 3 3 8 0 12-4 3-9 3-13 0z"/>
<glyph glyph-name="image" unicode="&#115;" d="M386 135l0 317c0 5-4 9-9 9l-317 0c-5 0-9-4-9-9l0-317c0-5 4-9 9-9l317 0c5-1 9 4 9 9z m-18 9l-298 0 0 38 298 0 0-38z m-235 56l40 68 38-46c2-2 5-3 8-3 3 1 6 3 7 5l38 83 43-107z m235 0l-40 0-54 134c-2 3-5 5-8 5-4 0-7-2-9-5l-40-89-38 45c-2 2-4 3-7 3-4 0-6-2-8-5l-53-88-41 0 0 242 298 0z m91 145c-2 2-4 3-6 3l-37 3c-5 1-10-3-10-8-1-5 3-10 8-10l27-3-23-259-269 24c-5 1-10-3-10-8-1-5 3-10 8-10l278-26c0 0 0 0 1 0 2 0 4 1 6 2 2 2 3 4 3 6l26 279c0 2-1 5-2 7z m-315-15c21 0 38 17 38 38 0 20-17 37-38 37-20 0-37-17-37-37 0-21 17-38 37-38z m0 57c11 0 19-9 19-19 0-10-8-18-19-18-10 0-18 8-18 18 0 10 8 19 18 19z"/>
<glyph glyph-name="infinite" unicode="&#116;" d="M358 153c-55 0-91 53-92 55-3 4-2 10 2 12 4 3 10 2 12-2 1-1 32-48 78-48 48 0 86 38 86 86 0 48-38 86-86 86-37 0-67-46-95-91-31-48-62-98-109-98-57 0-103 46-103 103 0 57 46 103 103 103 56 0 83-63 84-66 2-4 0-9-5-11-4-2-9 0-11 5 0 0-24 55-69 55-47 0-85-39-85-87 0-47 38-86 85-86 38 0 67 47 95 91 31 49 63 98 110 98 56 0 102-46 102-103 1-56-45-102-102-102z"/>
<glyph glyph-name="information" unicode="&#117;" d="M215 394l0 67 82 0 0-67z m82-46l0-297-82 0 0 297z"/>
<glyph glyph-name="menu" unicode="&#66;" d="M51 119l410 0 0 46-410 0z m0 114l410 0 0 46-410 0z m0 160l0-46 410 0 0 46z"/>
<glyph glyph-name="move" unicode="&#67;" d="M459 251c0 0 0 0 0 0 0 1 1 1 1 1 0 0 0 1 0 1 0 1 0 1 0 1 0 1 0 1 0 2 0 1 0 1 0 2 0 0 0 0 0 1 0 0 0 0 0 1 0 0 0 0 0 1 0 0 0 0-1 0 0 1 0 1-1 2l-51 51c-4 3-9 3-13 0-3-4-3-9 0-13l36-36-165 0 0 166 36-36c1-2 4-3 6-3 2 0 4 1 6 3 3 3 3 9 0 13l-51 51c-1 1-3 2-6 2-3 0-5-1-6-3l-51-51c-3-4-3-9 0-13 4-3 9-3 13 0l36 36 0-165-166 0 36 36c3 3 3 9 0 12-4 4-9 4-13 0l-51-51c0 0-1-1-1-1 0 0 0-1 0-1 0 0-1 0-1-1 0 0 0 0 0-1 0 0 0 0 0-1 0 0 0-1 0-2 0 0 0-1 0-1 0-1 0-1 0-1 0 0 0-1 0-1 0 0 1 0 1-1 0 0 0 0 0 0 0-1 0-1 1-2l50-51c2-1 5-2 7-2 2 0 4 1 6 2 3 4 3 9 0 13l-36 36 165 0 0-166-36 36c-4 4-9 4-13 0-3-3-3-9 0-13l51-51c0 0 1-1 1-1 0 0 0 0 1 0 0 0 1 0 1 0 0 0 0 0 0 0 1 0 1 0 1-1 1 0 1 0 2 0 0 0 1 0 1 0 1 0 1 0 2 1 0 0 0 0 0 0 1 0 1 0 1 0 0 0 0 0 1 0 0 1 1 1 1 1l51 51c3 4 3 10 0 13-4 4-9 4-13 0l-36-36 0 166 168 0-36-36c-3-3-3-9 0-12 2-2 4-3 6-3 2 0 5 1 7 3l51 51c0 0 0 0 1 1z"/>
<glyph glyph-name="bell" unicode="&#69;" d="M418 176c-16 19-37 44-37 70l0 84c0 72-55 131-126 131-70 0-125-59-125-131l0-84c0-26-23-50-37-69-13-17-23-31-17-44 6-12 22-14 34-14l75 0c0-37 32-68 70-68 39 0 71 31 71 69l77 0c8 0 27 0 33 13 7 13-4 26-18 43z m-163-98c-23 0-42 18-42 41l85 0c0-22-19-41-43-41z m148 69l-293 0c-2 0-4 0-5 0 3 4 7 9 10 13 16 21 43 51 43 86l0 84c0 57 42 103 97 103 56 0 99-46 99-103l0-84c0-36 24-66 42-88 3-3 7-7 10-12-1 1-2 1-3 1z"/>
<glyph glyph-name="anchor" unicode="&#70;" d="M450 234c-6 0-11-4-11-10l0-151-366 0 0 366 172 0c6 0 11 5 11 11 0 6-5 11-11 11l-183 0c-6 0-11-5-11-11l0-388c0-6 5-11 11-11l388 0c6 0 11 5 11 11l0 162c0 5-5 10-11 10z m11 216c0 1 0 2 0 2 0 1 0 1-1 1 0 1 0 1 0 1 0 1-1 1-1 1 0 0 0 1 0 1-1 1-2 2-3 3 0 0-1 0-1 0 0 0 0 1-1 1 0 0-1 0-1 0 0 0 0 0-1 0 0 0-1 0-2 0l-129 0c-7 0-11-4-11-10 0-7 4-11 11-11l103 0-176-175c-4-4-4-12 0-16 2-2 5-3 8-3 3 0 6 1 8 3l175 176 0-103c0-7 5-11 11-11 6 0 11 4 11 11z"/>
<glyph glyph-name="clipboard" unicode="&#72;" d="M390 410l-59 0 0 8c0 5-3 9-8 9l-26 0c-4 19-21 34-41 34-20 0-37-15-41-34l-26 0c-5 0-8-4-8-9l0-8-59 0c-4 0-8-4-8-9l0-342c0-4 4-8 8-8l268 0c5 0 8 3 8 8l0 342c0 5-4 9-8 9z m-192 0l25 0c4 0 8 3 8 8 0 15 11 26 25 26 14 0 25-11 25-26 0-4 4-8 8-8l25 0 0-52-116 0z m183-342l-250 0 0 325 50 0 0-43c0-4 3-8 8-8l134 0c4 0 8 3 8 8l0 43 50 0 0-325z m-225 230c0-4 3-8 8-8l184 0c5 0 8 3 8 8 0 6-3 9-8 9l-184 0c-5 0-8-3-8-9z m192-25l-184 0c-5 0-8-4-8-9 0-5 3-8 8-8l184 0c5 0 8 4 8 9 0 5-3 8-8 8z m0-34l-184 0c-5 0-8-3-8-9 0-4 3-8 8-8l184 0c5 0 8 3 8 8 0 5-3 9-8 9z m0-34l-184 0c-5 0-8-4-8-9 0-5 3-9 8-9l184 0c5 0 8 4 8 9 0 5-3 9-8 9z m0-35l-184 0c-5 0-8-3-8-8 0-5 3-9 8-9l184 0c5 0 8 4 8 9 0 5-3 8-8 8z m0-33l-184 0c-5 0-8-4-8-9 0-5 3-9 8-9l184 0c5 0 8 4 8 9 0 5-3 9-8 9z"/>
<glyph glyph-name="exclamation" unicode="&#73;" d="M301 140l0-89-90 0 0 89z m-25 34l-41 0-22 177 0 110 85 0 0-110z"/>
<glyph glyph-name="cc" unicode="&#74;" d="M420 424l-328 0c-22 0-41-18-41-42l0-252c0-24 19-42 41-42l328 0c22 0 41 18 41 42l0 252c0 24-19 42-41 42z m0-294l-328 0 0 126 328 0z m0 210l-328 0 0 42 328 0z"/>
<glyph glyph-name="person" unicode="&#75;" d="M443 133c-13 25-55 41-115 62-6 3-14 5-21 8l0 41c8 6 24 23 26 50 4 3 7 9 9 16 3 13 1 26-8 35 1 1 1 3 2 4 7 17 19 47 14 71-6 31-48 41-82 41-27 0-59-7-69-25-10-1-18-5-23-13-15-20-4-55 1-75 1-1 1-2 1-3-9-8-10-23-7-35 2-8 5-14 9-17 2-27 18-43 25-50l0-41c-7-2-14-5-21-7-60-21-102-37-115-62-18-36-18-72-18-73 0-5 4-9 9-9l393 0c4 0 8 4 8 9 0 1 0 37-18 73z"/>
<glyph glyph-name="store" unicode="&#76;" d="M108 51l297 0c17 0 30 13 30 30l0 205 2 2c15 7 24 22 24 38 0 7-2 13-4 19l0 1c0 0 0 0 0 1l-29 92c-5 12-18 22-30 22l-283 0c-13 0-26-10-30-23l-29-92c0 0 0 0 0 0l0-2c-3-6-5-12-5-18 0-17 9-32 23-39l3-1 0-205c0-16 13-30 31-30z m17 248l1 2c1 1 2 2 3 3l5 8 4-7c7-14 21-22 37-22 14 0 29 8 36 22l4 7 4-7c8-14 22-22 36-22 15 0 30 8 37 22l5 7 4-7c8-14 22-22 36-22 15 0 29 8 37 22l4 7 4-7c0-1 0-1 1-2 1-1 3-3 3-7l0-196-63 0 0 112c0 12-9 21-20 21l-91 0c-11 0-21-9-21-21l0-111-66 0z"/>
<glyph glyph-name="sn-pinterest" unicode="&#77;" d="M256 461c-111 0-201-92-201-205 0-84 49-156 120-187 0 14 0 31 4 47 4 16 26 111 26 111 0 0-7 14-7 33 0 30 18 53 39 53 18 0 27-14 27-31 0-19-12-46-18-73-5-21 11-39 32-39 38 0 64 50 64 109 0 45-30 78-84 78-61 0-99-46-99-98 0-18 5-30 13-40 4-4 4-6 3-11-1-4-3-13-4-17-2-5-6-7-10-5-28 12-42 43-42 79 0 58 48 128 144 128 77 0 128-57 128-118 0-80-44-140-109-140-21 0-42 12-49 26 0 0-12-47-14-57-4-15-13-31-21-44 19-6 38-9 58-9 111 0 201 92 201 205 0 113-90 205-201 205z"/>
<glyph glyph-name="print" unicode="&#78;" d="M432 359l-48 0 0 102-256 0 0-102-48 0c-16 0-29-13-29-29l0-173c0-16 13-29 29-29l48 0 0-77 256 0 0 77 48 0c16 0 29 13 29 29l0 173c0 16-13 29-29 29z m-278 77l204 0 0-77-204 0z m204-359l-204 0 0 141 204 0z m77 80c0-2-1-3-3-3l-48 0 0 90-256 0 0-90-48 0c-2 0-3 1-3 3l0 173c0 2 1 3 3 3l353 0c1 0 3-1 3-3l0-173z m-51 151l-13 0c-7 0-13-6-13-13 0-7 6-13 13-13l13 0c7 0 13 6 13 13 0 7-6 13-13 13z"/>
<glyph glyph-name="lock" unicode="&#79;" d="M377 324l-20 0 0 40c0 53-45 97-100 97-56 0-101-44-101-97l0-39-20 0c-22 0-40-18-40-39l0-195c0-22 18-39 40-39l241 0c22 0 41 17 41 39l0 194c-1 22-19 39-41 39z m-121-176c-22 0-40 18-40 39 0 22 17 39 40 39 23 0 40-17 40-39 0-21-18-39-40-39z m62 176l-124 0 0 40c0 33 28 60 62 60 34 0 62-27 62-60z"/>
<glyph glyph-name="search" unicode="&#56;" d="M458 66l-153 153c23 26 37 60 37 96 0 81-66 146-146 146-80 0-145-65-145-145 0-80 65-146 145-146 37 0 71 14 96 37l154-153c1-2 4-3 6-3 2 0 5 1 6 3 3 3 3 8 0 12z m-389 250c0 71 57 128 128 128 70 0 128-57 128-128 0-71-58-128-128-128-71 0-128 57-128 128z"/>
<glyph glyph-name="check" unicode="&#57;" d="M181 166l-97 97-33-33 130-130 280 279-33 33z"/>
<glyph glyph-name="checkout" unicode="&#33;" d="M378 309c-16-21-42-34-66-34-21 0-41 8-56 22-15-14-35-22-56-22-24 0-50 13-66 34-9-8-21-15-36-15-10 0-20 3-28 7l0-226c0-5 4-10 9-10l354 0c5 0 9 4 9 10l0 226c-9-5-18-7-28-7-15 0-26 7-36 15z m-122-168l-131 0 0 96 131 0z m131-57l-75 0 0 153 74 0 0-153z m0 287l0-44c9-10 18-14 28-14 25 0 46 22 46 48l0 10z m68 19l-28 57-60 0 17-57z m-315 57l-55 0-28-57 70 0z m107 0l-88 0-12-57 100 0 0 57z m101 0l-83 0 0-57 100 0z m-223-120l0 44-74 0 0-10c0-26 21-48 47-48 9 0 18 4 27 14z m243-1l0 45-103 0 0-57c13-12 29-20 47-20 21 0 43 13 56 32z m-168-32c18 0 34 8 47 21l0 56-103 0 0-44c13-20 35-33 56-33z m158-153c6 0 10 4 10 10 0 5-4 10-10 10-5 0-9-4-9-10 0-6 4-10 9-10z"/>
<glyph glyph-name="tools" unicode="&#35;" d="M418 367l-76 0 0 9c0 33-28 59-60 59l-52 0c-32 0-60-26-60-60l0-8-76 0c-24 0-43-19-43-43l0-119c0-5 4-9 9-9l145 0 0 26c0 4 3 8 9 8l85 0c5 0 9-3 9-8l0-26 145 0c4 0 8 4 8 9l0 119c0 24-19 43-43 43z m-94 0l-136 0 0 9c0 23 19 42 42 42l52 0c23 0 42-19 42-42z m111-188l-128 0 0-9c0-4-3-8-9-8l-84 0c-5 0-9 3-9 8l0 9-128 0c-5 0-9-3-9-9l0-85c0-5 4-9 9-9l358 0c5 0 9 4 9 9l0 85c0 6-4 9-9 9z m-213 35l68 0 0-35-68 0z"/>
<glyph glyph-name="dashboard" unicode="&#37;" d="M51 233l182 0 0 228-182 0z m0-182l182 0 0 137-182 0z m228 0l182 0 0 228-182 0z m0 410l0-137 182 0 0 137z"/>
<glyph glyph-name="trash" unicode="&#38;" d="M441 410l-118 0 0 42c0 5-4 9-8 9l-135 0c-4 0-8-4-8-9l0-42-101 0c-4 0-8-4-8-9 0-5 4-9 8-9l34 0 0-333c0-4 4-8 8-8l269 0c5 0 9 3 9 8l0 333 50 0c5 0 9 4 9 9 0 5-5 9-9 9z m-252 34l118 0 0-34-118 0z m185-376l-253 0 0 325 253 0z m-194 282c-4 0-8-4-8-9l0-205c0-4 4-9 8-9 5 0 8 4 8 9l0 205c1 5-3 9-8 9z m68 0c-5 0-8-4-8-9l0-205c0-4 3-9 8-9 4 0 8 4 8 9l0 205c0 5-4 9-8 9z m59-8l0-205c0-5 3-9 8-9 4 0 8 4 8 9l0 205c0 4-4 8-8 8-5 0-8-4-8-8z"/>
<glyph glyph-name="trash-black" unicode="&#39;" d="M120 97c0-25 20-46 45-46l182 0c25 0 46 21 46 46l0 273-273 0z m295 341l-80 0-22 23-114 0-22-23-80 0 0-45 318 0 0 45z"/>
<glyph glyph-name="arrow-down" unicode="&#42;" d="M451 372c-14 14-36 14-49 0l-139-155-153 155c-14 14-36 14-49 0-13-14-13-36 0-49l172-175c1-2 4-5 6-7 7-7 16-10 25-10 9-1 18 3 25 10 3 3 5 6 6 10l156 172c13 13 13 35 0 49z"/>
<glyph glyph-name="upload" unicode="&#58;" d="M185 361l71 71 0-193c0-5 4-9 9-9 4 0 8 4 8 9l0 193 71-71c2-2 4-3 6-3 2 0 4 1 6 3 3 4 3 9 0 12l-86 85c-1 1-1 2-2 2-2 1-5 1-7 0-1 0-2-1-2-2l-85-85c-4-4-4-9 0-13 3-3 8-3 11 1z m274-179c0 1-1 2-2 3l-67 68c-2 2-4 3-7 3l-42 0c-5 0-9-4-9-9 0-4 4-8 9-8l39 0 51-52-99 0c-4 0-8-3-8-8l0-26-136 0 0 26c0 4-4 8-9 8l-98 0 51 52 56 0c5 0 9 3 9 8 0 5-4 9-9 9l-59 0c-3 0-5-1-7-3l-68-68c-1-1-1-1-2-2 0-1 0-2 0-3l0-120c0-4 3-8 8-8l392 0c4 0 8 3 8 8l0 119c0 1 0 2-1 3z m-16-114l-374 0 0 102 102 0 0-25c0-5 4-9 9-9l153 0c4 0 9 4 9 9l0 25 101 0 0-102z"/>
<glyph glyph-name="sn-google" unicode="&#59;" d="M181 274c0-14 0-29 0-44 25-1 50-1 74-1-10-55-85-73-125-37-40 32-39 101 4 130 29 24 71 18 101-3 12 11 23 23 33 35-25 19-55 34-87 32-67 2-129-56-130-124-4-55 32-108 83-128 50-19 115-6 148 40 21 28 26 66 23 100-41 1-82 1-124 0z m242 1c0 12 0 25 0 37-12 0-24 0-36 0 0-12 0-24-1-37-12 0-25 0-37 0 0-12 0-25 0-37 12 0 24 0 37 0 0-13 0-25 0-38 12 0 25 0 37 0 0 12 0 25 0 38 12 0 24 0 37 0 0 12 0 25 0 37-11 0-24 0-37 0z"/>
<glyph glyph-name="sn-flickr" unicode="&#110;" d="M393 475c23 0 42-8 58-24 16-16 24-35 24-58l0-274c0-23-8-42-24-58-16-16-35-24-58-24l-274 0c-23 0-42 8-58 24-16 16-24 35-24 58l0 274c0 23 8 42 24 58 16 16 35 24 58 24z m-157-219c0 17-6 31-18 43-12 12-26 18-43 18-16 0-31-6-42-18-12-12-18-26-18-43 0-17 6-31 18-43 11-12 26-18 42-18 17 0 31 6 43 18 12 12 18 26 18 43z m161 0c0 17-6 31-18 43-11 12-26 18-42 18-17 0-31-6-43-18-12-12-18-26-18-43 0-17 6-31 18-43 12-12 26-18 43-18 16 0 31 6 42 18 12 12 18 26 18 43z"/>
<glyph glyph-name="sn-tumblr" unicode="&#111;" d="M379 132l23-67c-4-7-15-13-31-19-17-6-34-9-51-9-20-1-38 2-54 7-17 5-30 12-41 21-11 9-20 19-27 30-8 12-13 23-16 35-3 11-5 22-5 33l0 156-48 0 0 61c14 5 26 12 37 20 11 8 20 17 26 26 6 9 12 18 17 29 4 11 7 20 9 28 2 9 4 17 5 26 0 1 0 1 1 2 1 1 1 1 2 1l70 0 0-121 95 0 0-72-96 0 0-148c0-6 1-11 2-16 2-5 4-10 7-15 3-5 7-9 14-12 6-3 14-4 23-4 15 0 28 3 38 8z"/>
<glyph glyph-name="bee" unicode="&#114;" d="M150 149c-18 0-33-15-33-34 0-19 15-35 33-35 17 0 32 16 32 35 0 19-15 34-32 34z m20 213c-14 62-72 89-125 56-54-33-59-100-16-145 38-41 83-75 132-110 4 68 25 132 9 199z m312-82c-27 27-75 34-112 14-16-8-30-21-44-32-35-24-96-75-96-75 0 0-26-21-43-39 81-30 151-68 230-67 44 0 73 23 88 67 15 45 5 104-23 132z"/>
<glyph glyph-name="bank-account-black" unicode="&#119;" d="M501 22l-490 0c-6 0-11-6-11-11 0-6 5-11 11-11l490 0c6 0 11 5 11 11 0 5-5 11-11 11z m-501 31c0-5 5-11 11-11l490 0c6 0 11 5 11 11 0 6-5 11-11 11l-490 0c-6 0-11-5-11-11z m32 53c-6 0-10-4-10-10 0-6 4-11 10-11l107 0c5 0 11 5 11 11 0 6-5 10-11 10l-11 0 0 150 11 0c5 0 11 5 11 11 0 6-5 11-11 11l-107 0c-6 0-10-5-10-11 0-6 4-11 10-11l11 0 0-150z m171 0c-6 0-11-4-11-10 0-6 5-11 11-11l107 0c5 0 11 5 11 11 0 6-5 10-11 10l-11 0 0 150 11 0c5 0 11 5 11 11 0 6-5 11-11 11l-107 0c-6 0-11-5-11-11 0-6 5-11 11-11l11 0 0-150z m170 0c-6 0-11-4-11-10 0-6 5-11 11-11l107 0c6 0 11 5 11 11 0 6-5 10-11 10l-10 0 0 150 10 0c6 0 11 5 11 11 0 6-5 11-11 11l-107 0c-6 0-11-5-11-11 0-6 5-11 11-11l11 0 0-150z m-362 192l490 0c5 0 9 4 10 8 2 4 0 9-3 11l-245 193c-4 3-9 3-13 0l-246-192c-3-3-5-8-3-12 1-4 5-8 10-8z"/>
<glyph glyph-name="sn-behance-circle" unicode="&#122;" d="M256 512c-139 0-251-115-251-256 0-141 112-256 251-256 139 0 251 115 251 256 0 141-112 256-251 256z m0-490c-127 0-231 104-231 234 0 130 104 234 231 234 127 0 231-105 231-234 0-130-104-234-231-234z m-12 305c5-8 8-16 8-26 0-11-2-20-8-27-3-3-7-7-13-10 9-3 16-9 20-15 5-7 7-16 7-26 0-10-3-20-8-28-3-6-7-10-12-14-6-4-12-7-20-8-8-2-16-3-25-3l-79 0 0 176 85 0c21 0 37-7 45-19z m-95-12l0-39 42 0c8 0 14 2 19 5 5 3 7 8 7 15 0 9-3 14-9 17-6 2-12 2-21 2z m0-67l0-47 42 0c8 0 14 1 18 3 8 4 12 11 12 22 0 9-3 15-11 19-4 2-10 3-17 3z m215 49c9-4 16-10 23-19 5-8 8-17 10-27 1-6 1-14 1-25l-94 0c0-13 5-22 13-28 6-3 12-5 19-5 8 0 14 2 19 6 3 2 5 5 7 9l35 0c-1-8-5-15-12-24-12-12-29-19-50-19-17 0-32 5-45 16-14 11-20 28-20 52 0 23 6 40 18 52 12 12 27 18 46 18 11 1 21-1 30-6z m-51-29c-4-5-7-11-9-20l58 0c0 10-3 16-9 21-5 4-12 7-20 7-8 0-15-3-20-8z m58 70l-76 0 0-22 76 0z"/>
<glyph glyph-name="sn-flickr-circle" unicode="&#71;" d="M256 512c-139 0-251-115-251-256 0-141 112-256 251-256 139 0 251 115 251 256 0 141-112 256-251 256z m0-490c-127 0-231 104-231 234 0 130 104 234 231 234 127 0 231-105 231-234 0-130-104-234-231-234z m157 234c0-38-31-69-69-69-38 0-70 31-70 69 0 38 31 69 70 69 37 0 69-31 69-69z m-175 0c0-38-31-69-70-69-37 0-69 31-69 69 0 38 31 69 69 69 38 0 70-31 70-69z"/>
<glyph glyph-name="sn-tumblr-circle" unicode="&#60;" d="M256 512c-139 0-251-115-251-256 0-141 112-256 251-256 139 0 251 115 251 256 0 141-112 256-251 256z m0-490c-127 0-231 104-231 234 0 130 104 234 231 234 127 0 231-105 231-234 0-130-104-234-231-234z m83 171c0 1-1 1-1 1l-38 0c0 0-1 1-1 1-1 2-1 4-1 6l0 62c0 0 1 1 2 1l44 0c1 0 1 0 1 1l0 63c0 1 0 1-1 1l-44 0c-1 0-2 1-2 1l0 62c0 0 0 1-1 1l-78 0c-5 0-12-4-13-12-4-32-18-51-46-60l-3-1c0 0-1-1-1-1l0-54c0-1 1-1 1-1l28 0c0 0 0-51 0-67 0-53 37-78 105-78 28 0 55 10 64 21l2 3z m4-49c-9-8-27-14-43-14-1 0-2 0-3 0-55 0-70 42-70 67l0 76c0 1 0 1-1 1l-26 0c-1 0-1 1-1 1l0 35c0 1 0 1 0 1 29 12 45 34 49 68 0 2 2 2 2 2l36 0c0 0 1-1 1-1l0-62c0 0 0-1 1-1l44 0c1 0 1 0 1-1l0-40c0 0 0-1-1-1l-44 0c-1 0-1 0-1-1l0-73c0-16 8-24 23-24 6 0 14 1 20 4 1 0 2 0 2-1l11-34c0-1 0-1 0-2z"/>
<glyph glyph-name="sn-behance" unicode="&#61;" d="M235 385c10-14 14-30 14-49 0-19-4-34-15-46-5-7-13-13-24-18 17-6 29-15 37-28 8-13 12-28 12-47 0-19-5-36-14-51-6-9-14-17-23-25-10-7-22-12-36-16-13-3-28-4-44-4l-142 0 0 317 153 0c38 0 66-11 82-33z m-172-22l0-70 77 0c14 0 25 3 33 8 9 5 13 14 13 28 0 15-6 24-17 29-10 3-22 5-37 5z m0-122l0-84 77 0c14 0 24 2 32 5 14 7 21 20 21 40 0 16-7 27-20 34-8 3-18 5-32 5l-78 0z m388 90c16-7 30-19 41-35 9-14 15-30 18-48 2-11 3-26 3-47l-171 0c1-23 9-40 24-49 9-6 21-9 34-9 14 0 25 4 34 11 4 4 9 9 12 16l63 0c-2-14-9-28-23-43-21-22-50-34-88-34-31 0-59 10-82 29-24 19-36 51-36 94 0 40 11 71 32 93 22 21 49 32 84 32 20 1 39-3 55-10z m-92-53c-8-9-14-21-16-36l106 0c-2 16-7 28-17 37-10 8-22 12-36 12-16 0-28-4-37-13z m104 125l-136 0 0-39 136 0z"/>
<glyph glyph-name="arrow-up" unicode="&#62;" d="M481 132l-48-47c-3-4-7-6-12-6-5 0-10 2-13 6l-152 151-152-151c-3-4-8-6-13-6-5 0-9 2-12 6l-48 47c-3 3-5 8-5 13 0 5 2 9 5 13l212 211c4 4 8 6 13 6 5 0 9-2 13-6l212-211c3-4 5-8 5-13 0-5-2-10-5-13z"/>
<glyph glyph-name="download" unicode="&#64;" d="M382 381c-23 59-71 96-143 96-93 0-157-68-162-156-45-15-77-60-77-111 0-62 50-115 108-115l14 0c9 0 16 7 16 16 0 9-7 16-16 16l-14 0c-41 0-76 38-76 83 0 40 28 76 63 82l15 3-2 14c0 78 51 136 131 136 63 0 99-31 115-84l4-11 12 0c59-1 111-49 111-108 0-55-36-115-91-115l-4 0c-9 0-16-7-16-16 0-9 7-16 16-16 80 2 126 78 126 147 0 73-58 131-130 139z m-58-256c-5 5-12 5-17 0l-35-38 0 160c0 8-7 16-16 16-9 0-16-8-16-16l0-160-34 37c-5 5-12 6-17 1l-3-2c-5-5-5-12 0-17l58-64c0 0 0 0 0 0l4-4c2-3 5-4 8-4 3 0 6 1 8 4l4 4c0 0 0 0 0 0l60 65c4 5 4 10 0 15z"/>
<glyph glyph-name="email" unicode="&#91;" d="M512 399c1 3 0 5-1 8-4 19-17 28-39 28l-416 0c-19 0-40-7-50-21-1 0-1-1-2-2-3-4-5-9-4-14 0-1 0-2 0-4l0-260c0-27 30-57 56-57l416 0c26 0 39 30 39 57l0 260c1 2 1 4 1 5z m-456 3l416 0-216-175-216 175c6 1 12 0 16 0z m416-292l-416 0c-9 0-24 15-24 24l0 233 213-174c3-3 7-4 10-4 4 0 8 1 11 4l213 174 0-233c1-9 2-24-7-24z"/>
<glyph glyph-name="go-up" unicode="&#93;" d="M0 129l256 254 256-254z"/>
<glyph glyph-name="filter" unicode="&#94;" d="M199 86l114 0 0 56-114 0z m-199 340l0-56 512 0 0 56z m86-199l341 0 0 58-341 0z"/>
<glyph glyph-name="schedule" unicode="&#95;" d="M256 512l-45-45 179-179-390 0 0-64 390 0-179-179 45-45 256 256z"/>
<glyph glyph-name="pending" unicode="&#96;" d="M256 512c-141 0-256-115-256-256 0-141 115-256 256-256 141 0 256 115 256 256 0 141-115 256-256 256z m0-480c-123 0-224 101-224 224 0 123 101 224 224 224 123 0 224-101 224-224 0-123-101-224-224-224z m16 231l0 153c0 9-7 16-16 16-9 0-16-7-16-16l0-160c0-5 2-9 5-11 1-1 1-1 1-1l80-80c6-6 16-6 22 0 6 6 6 17 0 23z"/>
<glyph glyph-name="pm-amex" unicode="&#123;" d="M459 448l-406 0c-29 0-53-24-53-53l0-278c0-29 24-53 53-53l406 0c29 0 53 24 53 53l0 278c0 29-24 53-53 53z m31-331c0-17-14-31-31-31l-406 0c-17 0-31 14-31 31l0 278c0 17 14 31 31 31l406 0c17 0 31-14 31-31z m-399 181l-37-85 25 0 7 21 37 0 7-21 25 0-37 85z m2-53l12 30 12-30z m122 22l-26 31-19 0 0-85 22 0 0 48 22-27 1 0 19 27 0-48 32 0 0 85-26 0z m94-22l32 0 0 22-32 0 0 11 32 0 0 21-53 0 0-85 64 0 0 21-43 0z m144 53l-31 0-7-8c-2-3-6-9-10-15-5 6-9 12-12 16l-5 8-33 0 34-41-35-44 32 0 7 9c3 3 7 8 12 15 1-1 3-4 6-8 3-4 5-6 5-6l9-10 32 0-36 44z"/>
<glyph glyph-name="bank-account" unicode="&#124;" d="M42 267l22 0 0-171-22 0z m97-181l-107 0c-6 0-10 4-10 10 0 6 4 11 10 11l107 0c6 0 11-5 11-11 0-6-6-10-11-10z m362-86l-490 0c-6 0-11 5-11 11 0 6 5 11 11 11l490 0c6 0 11-5 11-11 0-6-5-11-11-11z m0 42l-490 0c-6 0-11 5-11 11 0 6 5 11 11 11l490 0c6 0 11-5 11-11 0-6-5-11-11-11z m-362 214l-107 0c-6 0-10 5-10 11 0 6 4 11 10 11l107 0c6 0 11-5 11-11 0-6-6-11-11-11z m170-170l-106 0c-6 0-11 4-11 10 0 6 5 11 11 11l106 0c6 0 11-5 11-11 0-6-5-10-11-10z m0 170l-106 0c-6 0-11 5-11 11 0 6 5 11 11 11l106 0c6 0 11-5 11-11 0-6-5-11-11-11z m-203 11l22 0 0-171-22 0z m108 0l21 0 0-171-21 0z m64 0l21 0 0-171-21 0z m202-181l-107 0c-6 0-11 4-11 10 0 6 5 11 11 11l107 0c6 0 10-5 10-11 0-6-4-10-10-10z m0 170l-107 0c-6 0-11 5-11 11 0 6 5 11 11 11l107 0c6 0 10-5 10-11 0-6-4-11-10-11z m-96 11l22 0 0-171-22 0z m64 0l22 0 0-171-22 0z m53 31l-490 0c-5 0-9 4-10 8-2 4 0 9 3 11l246 192c4 4 9 4 13 0l245-192c3-2 5-7 3-11-1-4-5-8-10-8z m-460 22l429 0-213 168z"/>
<glyph glyph-name="pm-dinnersclub" unicode="&#125;" d="M47 162l-31 0 0-2c6 0 9-1 9-5 0-2-1-6-1-7l-15-50c-2-7-3-7-10-8l0-2 31 0c35 0 51 19 51 43 0 12-7 31-34 31z m-17-71c-6 0-8 1-8 5 0 2 1 7 2 10l14 49c0 2 0 4 8 4 21 0 22-15 22-27 0-7-1-41-38-41z m66 1c-1 0-2 1-2 1 0 2 1 6 2 8l10 38-1 0c-4-1-14-3-18-3l0-2c6 0 7-1 7-3 0-4-9-33-9-38 0-2 0-7 6-7 6 0 11 6 16 13l-2 1c-4-6-8-8-9-8z m3 66c0-4 2-6 5-6 5 0 6 4 6 6 0 3-2 7-6 7-2-1-5-3-5-7z m53-66c0 0-2 0-2 2 0 4 9 33 9 38 0 5-2 8-8 8-10 0-21-17-26-25l8 24-1 0c-7-1-13-2-19-3l0-2c6 0 7-2 7-3 0-3-8-31-11-44l8 0c5 16 7 21 12 29 4 7 12 17 17 17 2 0 4-1 4-3 0-5-9-34-9-37 0-3 0-7 5-7 7 0 11 6 17 13l-2 2c-4-5-7-9-9-9z m27 18c20 3 30 12 30 22 0 5-3 8-9 8-17 0-36-20-36-37 0-7 4-16 17-16 12 0 22 10 24 12l-2 2c-6-5-10-9-17-9-5 0-11 3-11 11 0 2 0 5 1 7z m0 7c4 10 12 20 19 20 3 0 4-2 4-5 0-1-1-15-25-20z m68 10c1 0 5 0 5 7 0 4-3 5-5 5-8 0-17-14-21-21l-1-2 6 23-1 0c-5-1-12-2-18-3l0-2c2 0 3 1 4 1 4 0 4-2 4-4 0-1 0-5-2-9l-10-34 10 0c5 15 6 21 11 29 1 2 8 15 12 15 2 0 1-5 6-5z m32 10c-4 0-6 2-11 2-13 0-15-9-15-13 0-9 15-21 15-28 0-4-2-10-9-10-10 0-11 11-12 16l-2 0-3-19 2 0c1 2 1 3 3 3 4 0 8-2 12-2 7 0 18 3 18 15 0 11-14 21-14 29 0 5 3 6 6 6 8 0 11-6 12-13l1 0 2 16-1 0c-1 0-2-2-4-2z m102 29c0-1-1-3-4-3-3 0-10 3-19 3-27 0-48-26-48-48 0-24 18-32 32-32 17 0 27 12 32 17l-2 2c-6-6-14-14-28-14-14 0-20 10-20 25 0 18 12 46 35 46 17 0 18-16 19-19l2-1 5 24z m10-75c-1 0-1 2-1 3 0 1 1 4 1 5l18 68-1 1c-6-2-12-3-18-3l0-2c3 0 8 0 8-3 0-3-18-64-18-67 0-3 1-7 6-7 7 0 12 6 18 15l-2 1c-5-7-8-11-11-11z m55 1c-1 0-1 1-1 2 0 1 2 7 2 9l10 35-9 0c-5-13-7-20-13-28-4-7-11-18-16-18-3 0-3 3-3 4l11 43-1 0c-6-1-11-2-17-3l0-1c5 0 7 0 7-4 0-3-9-33-9-38 0-5 2-7 6-7 11 0 20 15 28 28l0 0c-2-10-5-19-5-21 0-2 0-6 6-6 6 0 9 3 16 13l-1 1c-5-5-8-9-11-9z m52 51c-11 0-17-6-20-12 4 13 7 27 10 36l-1 1c-6-1-12-2-17-3l0-2c6 0 7 0 7-3 0-2-1-5-2-8l-16-59 0-1c0-2 9-6 15-6 18 0 38 20 38 39 0 9-5 18-14 18z m-23-54c-6 0-6 3-6 4 2 21 12 44 25 44 8 0 8-10 8-13 0-10-12-35-27-35z m-324 145l7-2 0 146-7-3c-30-10-51-39-51-70 0-32 21-60 51-71z m25-51l148 0c68 0 122 55 122 122 0 67-54 121-122 121l-148 0c-68 0-123-54-123-121 0-67 55-122 123-122z m0 231c60 0 109-49 109-109 0-60-49-108-109-108-61 0-110 48-110 108 0 60 49 109 110 109z m75-109c0 32-21 60-51 71l-6 2 0-146 6 3c30 10 51 38 51 70z"/>
<glyph glyph-name="pm-girobank" unicode="&#126;" d="M63 274c0 9 0 18 0 28-10 0-19 0-29 0 0-10 0-19 0-28 10 0 19 0 29 0z m123 3c5 0 10 0 15 0 0 4 0 8 0 12-5 0-10 0-15 0 0-4 0-8 0-12z m310-27c5 7 10 13 14 19-5 0-10 0-16 0-4-6-8-11-12-18 0 13 0 26 0 39-5 0-9 0-15 0 0-22 0-43 0-65 6 0 10 0 15 0 0 8 0 16 0 23 4-7 8-15 12-23 6 0 12 0 17 0-4 8-10 17-15 25z m-344 10c0-4 0-8 0-12 3 0 6 0 9 0 0-4 0-8 0-12-6-1-13-1-17 3-4 3-6 7-7 12-1 5-1 10 1 14 2 5 7 8 13 9 7 2 15 1 22-3 0 4 1 9 1 13-7 2-14 3-20 3-9 0-19-3-25-9-7-7-9-17-8-27 1-6 3-13 8-18 5-5 12-7 19-8 10-1 19 0 28 2 0 12 0 22 0 34-9-1-17-1-24-1z m80 9c-3-2-5-5-7-8 0 2 0 5 0 8-4 0-8 0-13 0 0-15 0-30 0-44 5 0 10 0 15 0 0 6 0 13 0 20 0 4 1 8 4 10 3 3 8 3 11 2 0 4 1 8 1 13-4 0-7 1-11-1z m220-2c-5 4-12 4-17 2-4-1-7-4-9-7 0 2 0 5 0 7-5 0-9 0-13 0 0-15 0-29 0-44 5 0 9 0 15 0 0 7 0 15 0 22 0 4 1 9 5 11 3 0 6 0 8-2 2-3 2-6 2-9 0-7 0-15 0-22 5 0 10 0 15 0 0 9 0 19 0 28-1 5-2 11-6 14z m-452-25c10 0 19 0 29 0 0 9 0 18 0 27-10 0-19 0-29 0 0-9 0-18 0-27z m63 28c-10 0-19 0-29 0 0-9 0-19 0-28 10 0 19 0 29 0 0 9 0 19 0 28z m6 0c0-9 0-19 0-28 9 0 19 0 28 0 0 9 0 19 0 28-9 0-19 0-28 0z m117-45c5 0 10 0 15 0 0 15 0 29 0 44-5 0-10 0-15 0 0-15 0-29 0-44z m99 42c-6 4-14 4-21 3-6-1-13-5-16-11-3-5-3-12-2-18 1-6 5-12 11-15 6-3 13-3 19-2 7 1 13 4 16 9 3 6 4 13 3 19-1 7-5 12-10 15z m-9-30c-3-4-8-4-11 0-4 4-4 9-3 14 0 3 2 7 6 8 3 1 6 1 8-2 3-2 4-6 4-9 0-4 0-8-4-11z m56 33c-5 0-10-2-13-7 0 9 0 18 0 26-5 0-10 0-15 0 0-21 0-43 0-64 5 0 9 0 13 0 0 3 0 5 0 8 1-1 2-2 4-3 6-7 19-7 26 0 4 5 6 12 6 18 0 6-2 13-6 17-4 4-10 5-15 5z m4-27c0-3-3-6-6-7-3 0-6 0-8 2-4 4-4 8-3 13 0 3 4 8 7 8 3 1 6 0 8-2 3-5 3-10 2-14z m61 22c-4 4-9 5-14 5-6 0-13 0-19-3 1-3 1-6 1-9 6 2 13 5 19 2 3-1 4-5 4-7-5 0-10 0-14-1-5 0-10-2-13-6-4-6-3-16 4-20 5-2 11-2 15 0 3 1 6 3 8 6 0-2 0-5 1-7 4 0 8 0 12 0 0 9 0 18 0 26 0 5-1 10-4 14z m-11-28c-3-3-7-4-10-3-3 2-4 8 0 9 3 2 8 2 12 2 0-3 0-6-2-8z m-352 1c0-9 0-18 0-28 10 0 19 0 29 0 0 10 0 19 0 28-9 0-19 0-29 0z"/>
<glyph glyph-name="pm-giropay" unicode="&#92;" d="M372 243c0-4 3-6 7-6 8 0 12 6 12 13-2 0-5 0-8 0-6 0-11-2-11-7z m-58 24c-7 0-11-6-11-14 0-8 5-14 11-14 8 0 12 6 12 14 0 8-4 14-12 14z m158 97l-433 0c-22 0-39-19-39-40l0-142c0-21 17-39 39-39l433 0c22 0 40 18 40 39l0 142c0 21-18 40-40 40z m-206-205l-228 0c-13 0-23 10-23 24l0 139c0 13 10 26 23 26l228 0z m55 66c-7 0-14 0-18 11l-1 0 0-31-20 0 0 77 20 0 0-11 0 0c3 5 11 11 20 11 15 0 24-14 24-28 0-15-9-29-25-29z m72 0c0 5-1 5-1 11-4-11-10-11-17-11-11 0-21 5-21 17 0 17 19 19 29 19 3 0 7-1 9-1 0 7-6 9-13 9-6 0-12-1-18-4l0 13c7 3 14 4 22 4 14 0 27-6 27-23l0-20c0-5 0-9 1-14z m65 4c-5-13-9-27-27-27-4 0-8 0-12 1l1 14c3-1 5-1 8-1 5 0 8 3 10 8l-23 58 21 0 11-36 12 36 19 0z m-390-3c7 0 13 4 18 10l1 0 0-4c0-11-6-16-17-16-9 0-13 2-19 5l-1-15c4-2 11-4 20-4 22 0 32 7 32 30l0 50-15 0 0-11-1 0c-4 5-11 11-19 11-17 0-25-12-25-29 1-16 10-27 26-27z m6 41c8 0 12-6 12-13 0-9-6-14-12-14-6 0-11 5-11 13-1 8 4 14 11 14z m149-43c18 0 32 11 32 29 0 18-14 29-32 29-19 0-33-11-33-29 0-19 14-29 33-29z m0 45c8 0 12-7 12-16 0-8-4-15-12-15-9 0-13 7-13 15 0 8 4 16 13 16z m-105 13l20 0 0-57-20 0z m51-33c0 11 5 17 14 17 2 0 4 0 6 0l1 16c-2 0-4 1-7 1-8 0-13-7-16-12l2 0 0 11-21 0 0-57 21 0z m-51 53l20 0 0-10-20 0z"/>
<glyph glyph-name="sn-instagram" unicode="&#57344;" d="M256 466c69 0 76-1 103-2 26-1 39-5 48-8 12-5 21-11 29-19 9-9 15-18 19-29 4-10 8-23 9-48 1-28 2-35 2-104 0-69-1-76-2-103-1-26-5-39-8-48-5-12-11-21-19-29-9-9-18-15-29-19-10-4-23-8-48-9-28-1-35-2-104-2-69 0-76 1-103 2-26 1-39 5-48 8-12 5-21 11-29 19-9 9-15 18-19 29-4 10-8 23-9 48-1 28-2 35-2 104 0 69 1 76 2 103 1 26 5 39 8 48 5 12 11 21 19 29 9 9 18 15 29 19 10 4 23 8 48 9 28 1 35 2 104 2m0 46c-70 0-78-1-105-2-28-1-47-5-62-11-17-7-32-16-46-30-14-14-23-29-30-46-6-16-10-34-11-62-1-27-2-35-2-105 0-70 1-78 2-105 1-28 5-47 11-62 7-17 16-32 30-46 14-14 29-23 46-30 16-6 34-10 62-11 27-1 35-2 105-2 70 0 78 1 105 2 28 1 47 5 62 11 17 7 32 16 46 30 14 14 23 29 30 46 6 16 10 34 11 62 1 27 2 35 2 105 0 70-1 78-2 105-1 28-5 47-11 62-7 17-16 32-30 46-14 14-29 23-46 30-16 6-34 10-62 11-27 1-35 2-105 2z m0-124c-73 0-132-59-132-132 0-73 59-132 132-132 73 0 132 59 132 132 0 73-59 132-132 132z m0-218c-47 0-86 39-86 86 0 47 39 86 86 86 47 0 86-39 86-86 0-47-39-86-86-86z m167 223c0-17-13-31-30-31-17 0-31 14-31 31 0 17 14 30 31 30 17 0 30-13 30-30z"/>
<glyph glyph-name="pm-sepa" unicode="&#57345;" d="M0 181l5 0c1-1 1-3 2-4 1-1 2-1 4-1 2 0 3 1 4 1 1 1 2 2 2 3 0 0 0 1-1 1 0 1-1 1-2 1 0 0-2 1-4 1-3 1-5 2-6 3-1 1-2 3-2 5 0 2 0 3 1 4 1 1 2 2 3 2 2 1 3 1 5 1 4 0 6 0 8-2 1-1 3-3 3-6l-6 0c0 1-1 3-2 3-1 1-2 2-3 2-2 0-3-1-4-1 0-1-1-1-1-2 0-1 1-1 1-2 1 0 3-1 5-1 3-1 5-1 6-2 1-1 2-2 3-3 1-1 1-2 1-4 0-1 0-3-1-4-1-1-2-2-4-3-1 0-3-1-5-1-4 0-6 1-8 3-2 0-3 3-4 6z m28 13l0 4 5 0 0-4z m0-22l0 19 5 0 0-19z m28 0l-5 0 0 9c0 2 0 4 0 4 0 1-1 1-1 2-1 0-1 0-2 0-1 0-1 0-2 0-1-1-1-1-2-2 0-1 0-2 0-5l0-8-6 0 0 19 5 0 0-3c2 2 4 3 6 3 1 0 2 0 3-1 1 0 2-1 2-1 1-1 1-2 1-2 0-1 1-2 1-4l0-11z m6-2l6 0c0-1 1-1 1-2 0 0 1 0 2 0 2 0 3 0 3 0 1 1 1 1 1 2 0 0 0 1 0 3l0 3c-1-2-3-3-5-3-3 0-5 1-7 3-1 1-1 4-1 6 0 3 1 6 3 8 1 1 3 3 5 3 3 0 5-2 6-4l0 3 5 0 0-17c0-2 0-5-1-6 0-1-1-2-1-2-1-1-2-1-3-2-1-1-3-1-5-1-3 0-5 0-7 1-2 1-2 3-2 4 0 1 0 1 0 1z m5 12c0-2 1-4 1-5 1-1 2-1 3-1 1 0 2 0 3 1 1 1 2 3 2 5 0 2-1 3-1 4-1 1-2 2-3 2-1 0-2-1-3-2-1-1-2-2-2-4z m20-10l0 26 5 0 0-26z m23 6l5-1c-1-2-2-3-3-4-2-1-3-2-6-2-3 0-5 1-7 3-2 2-2 4-2 7 0 3 1 5 2 7 2 2 4 3 6 3 4 0 6-1 7-3 2-2 3-5 3-9l-13 0c0-1 0-2 1-3 1-1 1-1 3-1 1 0 2 0 2 0 1 1 1 2 2 3z m0 5c0 2-1 3-1 4-1 1-2 1-3 1-1 0-2-1-3-1 0-1-1-2-1-4z m22-11l0 26 20 0 0-4-15 0 0-7 14 0 0-4-14 0 0-7 15 0 0-5-20 0z m38 0l0 3c0-1-1-2-2-3-1 0-3-1-4-1-1 0-2 1-3 1-1 1-2 2-2 3-1 1-1 2-1 4l0 12 5 0 0-9c0-2 0-4 1-5 0 0 0-1 1-1 0-1 1-1 2-1 1 0 1 0 2 1 1 0 1 1 2 1 0 1 1 3 1 5l0 8 5 0 0-19-7 0z m16 0l-5 0 0 19 5 0 0-3c1 2 1 2 2 3 0 0 1 0 2 0 1 0 2 0 4-1l-2-4c-1 0-2 1-3 1 0 0-1 0-2-1 0 0-1-1-1-2 0-1 0-3 0-6l0-6z m10 10c0 1 1 3 1 5 1 1 2 3 4 3 1 1 3 1 5 1 3 0 5-1 7-3 2-2 3-4 3-7 0-3-1-5-4-7-2-2-4-3-7-3-1 0-3 1-5 1-1 1-3 2-3 4 0 2-1 4-1 6z m5-1c0-2 1-3 2-4 1-1 2-2 3-2 2 0 3 1 4 2 1 1 1 2 1 4 0 2 0 4-1 5-1 1-2 1-4 1-1 0-2 0-3-1-1-1-2-3-2-5z m32-9l0 26 9 0c3 0 5 0 6 0 2-1 3-1 4-3 1-1 2-3 2-5 0-2-1-3-1-4-1-1-2-2-2-3-1 0-2-1-3-1-1 0-3 0-5 0l-4 0 0-10z m5 22l0-8 3 0c2 0 4 0 4 1 1 0 1 0 2 1 0 1 0 2 0 2 0 1 0 2-1 3 0 1-1 1-2 1 0 0-2 0-4 0z m25-9l-5 1c1 2 2 3 3 4 1 1 3 2 5 2 2 0 4-1 5-1 1-1 2-1 3-2 0-1 0-3 0-5l0-6c0-1 0-3 0-3 0-1 1-2 1-3l-5 0c0 1 0 1 0 2 0 0 0 0 0 0-1-1-2-1-3-2-1 0-2 0-3 0-2 0-3 0-4 1-1 1-2 3-2 4 0 1 1 2 1 3 1 1 1 2 2 2 1 1 2 1 4 1 3 1 4 1 5 1l0 1c0 1 0 1 0 2-1 0-2 0-3 0-1 0-1 0-2 0-2 0-2-1-2-2z m6-4c0 0-1 0-3-1-1 0-2 0-2-1-1 0-1-1-1-2 0 0 0-1 1-2 0 0 1-1 2-1 1 0 2 1 2 1 1 1 1 1 1 2 0 0 0 1 0 2z m9 10l6 0 4-14 5 14 5 0-7-18-1-4c-1-1-1-2-2-3 0 0-1-1-1-1-1-1-1-1-2-1-1 0-2-1-3-1-1 0-2 0-3 1l0 4c1 0 1 0 2 0 1 0 2 0 2 1 1 0 1 1 2 3z m24 0l5 0 0-3c1 2 3 3 6 3 1 0 2 0 3 0 1-1 1-2 2-3 1 1 1 2 3 3 1 0 2 0 3 0 1 0 2 0 3-1 1 0 2-1 2-2 1-1 1-2 1-4l0-12-5 0 0 11c0 2 0 3-1 3 0 1-1 1-2 1 0 0-1 0-2 0-1-1-1-1-2-2 0-1 0-2 0-4l0-9-5 0 0 10c0 2 0 3-1 4 0 0 0 1-1 1 0 0-1 0-1 0-1 0-2 0-2 0-1-1-1-1-2-2 1-1 1-2 1-4l0-9-5 0z m46-13l5-1c0-2-1-3-3-4-1-1-3-2-5-2-3 0-6 1-8 3-1 2-2 4-2 7 0 3 1 5 3 7 1 2 4 3 6 3 3 0 5-1 7-3 1-2 2-5 2-9l-13 0c0-1 1-2 2-3 1-1 1-1 3-1 1 0 1 0 2 0 0 1 1 2 1 3z m0 5c0 2 0 3-1 4 0 1-1 1-2 1-1 0-2-1-3-1 0-1-1-2-1-4z m28-11l-5 0 0 9c0 2 0 4 0 4 0 1-1 1-1 2-1 0-1 0-2 0-1 0-1 0-2 0-1-1-1-1-2-2 0-1 0-2 0-4l0-9-6 0 0 19 6 0 0-3c1 2 3 3 6 3 1 0 2 0 3 0 1-1 1-1 2-2 0 0 1-1 1-2 0-1 0-2 0-3z m16 19l0-4-4 0 0-8c0-1 0-2 0-2 0-1 0-1 1-1 0 0 0 0 1 0 0 0 1 0 2 1l0-4c-1-1-2-1-4-1-1 0-1 0-2 1-1 0-1 0-2 1-1 0-1 1-1 2 0 0 0 2 0 3l0 9-2 0 0 4 2 0 0 4 6 3 0-6 3 0z m2-14l5 1c0-1 1-1 2-2 0 0 1-1 2-1 2 0 3 0 4 1 0 0 0 1 0 1 0 1 0 1 0 1-1 0-1 1-2 1-4 1-7 1-8 2-1 1-2 3-2 5 0 1 0 3 2 4 1 1 3 1 6 1 3 0 5 0 6-1 2-1 2-2 3-4l-5-1c0 1 0 2-1 2 0 0-2 0-3 0-1 0-2 0-3 0 0-1 0-1 0-1 0-1 0-1 0-1 1-1 2-1 5-2 3 0 5-1 6-2 1-1 1-2 1-3 0-2 0-3-2-5-1-1-3-2-7-2-2 0-4 1-6 2-1 1-2 3-3 4z m60-5l-6 0-3 6-10 0-2-6-6 0 10 26 6 0z m-10 10l-4 10-3-10z m18-10l-5 0 0 19 5 0 0-3c1 2 1 2 2 3 0 0 1 0 2 0 1 0 2 0 4-1l-2-4c-1 0-2 1-3 1 0 0-1 0-2-1 0 0-1-1-1-2 0-1 0-3 0-6l0-6z m22 6l5-1c0-2-1-3-3-4-1-1-3-2-5-2-3 0-5 1-7 3-2 2-2 4-2 7 0 3 1 5 2 7 2 2 4 3 6 3 3 0 5-1 7-3 1-2 2-5 2-9l-12 0c0-1 0-2 1-3 1-1 2-1 3-1 1 0 1 0 2 0 1 1 1 2 1 3z m1 5c0 2-1 3-1 4-1 1-2 1-3 1-1 0-2-1-2-1-1-1-1-2-1-4z m14 2l-5 1c1 2 2 3 3 4 1 1 3 2 5 2 2 0 4-1 5-1 1-1 2-1 3-2 0-1 0-3 0-5l0-6c0-1 0-3 0-3 0-1 1-2 1-3l-5 0c0 1 0 1 0 2 0 0 0 0 0 0-1-1-2-1-3-2-1 0-2 0-3 0-2 0-3 0-4 1-1 1-2 3-2 4 0 1 1 2 1 3 1 1 1 2 2 2 1 1 2 1 4 1 3 1 4 1 5 1l0 1c0 1 0 1 0 2-1 0-2 0-3 0-1 0-1 0-2 0-1 0-2-1-2-2z m7-4c-1 0-2 0-3-1-2 0-3 0-3-1 0 0-1-1-1-2 0 0 1-1 1-2 1 0 1-1 2-1 1 0 2 1 3 1 0 1 1 1 1 2 0 0 0 1 0 2z m-392 123l-35 0c0 5-1 9-2 11-2 3-8 5-18 5-9 0-15-1-18-3-3-1-4-5-4-10 0-5 1-9 4-11 2-1 5-2 8-2l7 0c15-1 24-2 28-2 12-1 20-5 26-10 4-4 7-9 8-16 0-4 0-8 0-13 0-11-1-20-3-25-4-9-13-16-26-18-6-1-14-2-26-2-19 0-33 1-41 4-10 3-16 9-19 17-1 5-2 13-2 25l34 0c0-1 0-2 0-3 0-6 2-10 5-12 3-1 6-2 9-2l13 0c7 0 11 1 13 1 3 1 5 3 6 6 0 2 1 4 1 7 0 6-2 10-7 11-1 1-9 1-23 2-12 1-19 2-24 3-11 2-19 6-23 13-3 6-5 14-5 26 0 8 1 16 3 21 2 5 4 9 8 12 6 4 14 7 23 8 7 0 16 1 25 1 15 0 25-1 32-3 15-4 23-15 23-34 0-2 0-4 0-7z m154-96l0 140 70 0c10 0 17-1 22-2 12-4 19-12 23-22 2-6 3-15 3-27 0-14-1-25-4-31-4-12-13-19-27-21-2 0-9 0-21 0l-29 0 0-37z m38 69l23 0c8 1 12 1 14 2 2 1 4 3 5 7 0 2 0 6 0 10 0 7 0 11-1 14-2 4-5 6-10 7-1 0-4 0-7 0l-24 0 0-40z m160-45l-50 0-6-24-39 0 42 140 57 0 42-140-38 0z m-7 28l-17 60-17-60z m-243 69c15 0 29-7 38-19l9 18c-13 11-31 19-49 19-30 0-55-18-66-43l-16 0-9-20 20 0c0-2 0-4 0-6 0-2 0-5 1-7l-10 0-10-20 24 0c11-25 36-42 66-42 14 0 28 5 39 12l0 25c-9-10-23-17-37-17-18 0-33 9-42 22l52 0 10 20-69 0c-1 3-1 5-1 8 0 1 0 3 0 5l75 0 9 20-77 0c8 14 25 25 43 25z m0-1c15 0 29-7 38-18l0-1 1 1 8 18 0 0 0 0c-14 12-31 19-50 19-14 0-28-4-40-12-12-8-21-19-26-31l0 0-16 0 0 0-9-20-1-1 22 0 0 0c0-2 0-4 0-5 0-3 0-5 0-7l1 0-11 0 0 0-9-20-1-1 25 0 0 1c11-26 37-43 66-43 14 0 28 4 39 13l1 0 0 26-2-1c-9-11-22-17-36-17-17 0-32 8-41 22l-1-1 52 0 0 0 10 20 0 1-69 0 0 0c0 2 0 5 0 7 0 2 0 3 0 5l-1 0 76 0 0 0 9 20 0 1-78 0 1-1c8 15 25 25 42 25z m-43-25l78 0-1 1-9-20 0 0-75 0 0 0c0-2 0-4 0-5 0-3 0-6 0-8l0-1 70 0-1 1-9-20 0 1-52 0 0-1c9-14 25-23 42-23 14 0 28 6 38 17l-2 1 0-25 1 1c-12-8-25-12-39-12-29 0-54 16-65 41l0 1-25 0 0-1 10 20-1-1 11 0 0 1c0 2-1 4-1 7 0 1 0 3 0 5l0 1-20 0 0-1 10 20-1-1 16 0 0 1c6 12 14 23 26 30 11 8 25 12 39 12 18 0 35-7 49-19l0 0-9-17 1 0c-9 12-23 18-38 18-18 0-35-10-44-25l0-1 1 0z"/>
<glyph glyph-name="pm-sofort" unicode="&#57346;" d="M197 280c-1 7-4 13-10 17-4 3-9 4-14 5l-6 0c-11-1-23-7-31-14-11-10-18-23-23-36-2-9-4-19 0-28 3-7 10-12 17-13 11-2 23 0 33 6 12 6 20 18 26 30 4 11 8 22 8 33z m-27-9c-2-8-5-16-8-24-2-4-5-9-9-13-4-3-9-4-14-2-3 1-3 6-3 10 2 8 4 16 8 23 3 6 7 14 14 17 3 1 7 1 10-1 3-3 2-7 2-10z m176 8c0 6-3 13-9 17-5 4-10 5-16 6l-5 0c-12-1-23-7-32-14-11-10-18-23-22-37-3-8-5-19-1-28 3-6 10-11 17-12 10-2 21-1 31 4 13 6 21 18 27 31 6 11 10 21 10 33z m-27-7c-1-5-3-11-5-17-2-6-5-12-9-18-2-3-6-6-10-6-3 0-7 0-8 2-2 3-2 7-1 11 1 7 4 14 7 21 3 6 8 14 15 16 3 0 7 1 9-1 3-2 3-5 2-8z m-238-4c-2 1-4 4-3 7 2 4 5 4 9 5 11 0 22 0 33 0 5 8 13 15 22 21-19 0-37 0-55 0-8 0-16-1-22-5-8-5-13-14-16-22-1-5-3-10-1-15 3-6 9-9 15-10 4-1 8-2 10-4 3-2 1-7-3-8-2-1-5-1-8-1-18 0-36 0-53 0-3-8-6-16-8-23 19 0 38 0 58 0 10 0 19 2 28 6 10 6 16 18 18 29 1 5-1 11-5 14-6 3-12 4-19 6z m153 8c1 2 3 4 6 4 9 0 19 0 28 0 6 8 14 15 23 21-17 0-34 0-52 0-7 0-14-2-19-6-6-3-10-9-13-15-8-23-16-45-25-68 9 0 19 0 28 0 5 12 9 24 13 35 8 0 16 0 24 0 2 6 4 13 6 19-8 0-15 0-24 0 2 3 3 6 5 10z m188 24c7-5 10-13 9-21 5 0 11 0 16 0-8-22-17-45-25-68 8 0 16 0 25 0 8 23 16 46 25 68 11 0 22 0 32 0 3 7 5 14 8 21-30 0-60 0-90 0z m2-17c0 5-3 9-7 12-6 5-14 5-21 5-10 0-20 0-31 0-11-30-22-59-33-88 10 0 19 0 28 0 4 10 8 20 12 31 2-10 5-20 7-31 10 0 20 0 30 0-4 13-7 26-13 38 6 2 12 5 16 10 7 6 11 14 12 23z m-26-9c-1-4-4-9-9-11-4-2-9-2-13-2 2 7 5 14 8 21 4 0 8 1 12-1 2-1 2-5 2-7z"/>
<glyph glyph-name="pm-trustpay" unicode="&#57347;" d="M317 257c-2-10-4-19-5-29-1-4-2-5-6-5-4 1-8 0-14 0 6 31 13 61 19 92 17 0 34 0 51-2 11-1 16-9 14-22 0-6-2-11-4-17-6-14-19-17-33-17-7 0-14 0-22 0z m4 15c6 0 11 0 16 0 13 0 18 4 20 17 1 6-1 9-6 9-8 2-17 2-25 2-2-9-3-18-5-28z m56-1c2 13 11 20 25 21 7 0 14 0 20-1 11-2 14-8 12-18-3-15-6-30-9-45 0-3-1-5-5-4-2 0-5 0-8 0-2 0-5-1-4 2-7-1-14-3-21-4-7 0-15 0-18 7-3 9 0 17 5 23 5 8 13 10 21 11 5 1 12 1 17 2 2 1 4 3 4 4 1 3 1 6-2 9-6 3-16 1-20-5-1-1-2-2-3-2-4 0-9 0-14 0z m36-17c-3 0-6 0-9-1-4-1-8-1-12-3-4-1-7-7-5-11 1-5 5-5 9-5 11 0 17 7 17 20z m56-13c2 3 3 5 4 6 6 13 12 26 19 39 1 3 3 5 7 5 4-1 8 0 13 0-5-9-9-17-14-25-10-18-19-36-30-53-8-15-15-18-33-15 1 4 1 8 2 12 2 0 4 0 6 0 9 1 15 8 13 16-5 21-9 43-11 65 6 0 11 0 16 0 4 0 3-3 3-5 1-13 2-25 4-37-1-2 0-4 1-8z m-320-11c-8-7-17-8-26-8-11 1-17 5-15 17 1 13 4 26 7 39 2 13 3 13 16 13 1 0 2 0 3 0-1-7-2-14-4-21-1-8-3-16-5-23-1-7 1-10 9-11 10-1 16 3 18 13 3 13 5 25 8 37 0 4 2 5 5 4 4 0 9 0 13 0-4-22-9-45-13-67-6 0-10 0-15 0-1 2-1 4-1 7z m31 14c6 0 10 0 16 0 3-10 16-13 25-7 1 1 3 4 3 6 0 1-3 4-5 4-6 2-13 4-19 5-13 4-16 10-12 23 4 12 14 16 25 17 7 0 13 0 19-1 10-2 14-8 13-19-5 0-11 0-17 0 0 1 1 1 1 1-3 2-5 6-8 6-5 0-11 0-15-3-4-2-2-7 3-9 6-2 12-3 18-4 17-4 18-16 10-28-1-5-6-8-11-10-11-4-23-4-35-1-9 3-12 9-11 20z m-103 70c0 0 0-1 0-1-3-13-3-13-17-13-13 0-13 0-16-14-5-19-8-39-12-58 0-3-2-5-5-4-4 0-9 0-14 0 5 25 10 50 15 76-10 0-19 0-28 0 1 5 2 9 3 12 0 1 2 3 3 3 23 0 46 0 70 0 0 0 0 0 1-1z m205-78c-1-13-1-13-13-13 0 0-1 0-2 0-12 0-15 3-13 15 3 12 5 25 8 38-3 0-6 1-9 1 1 5 1 9 2 13 4 2 10-2 10 5 1 4 2 8 3 12 3 0 5 0 8 0 3 0 6 0 9 0-1-5-2-11-3-16 4 0 7 0 11 0-1-5-1-9-2-15-4 0-8 0-12 0-3-11-5-23-7-34-1-4 1-6 6-6 1 0 2 0 4 0z m-174 56c-1-5-2-10-3-16-1 0-1 0-2 0-13 2-20-5-23-18-2-11-5-22-7-34-5 0-11 0-17 0 5 23 9 45 14 67 5 0 10 0 16 0 0-2 0-4 0-7 6 6 13 9 22 8z"/>
<glyph glyph-name="pm-visa" unicode="&#57348;" d="M459 448l-406 0c-29 0-53-24-53-53l0-278c0-29 24-53 53-53l406 0c29 0 53 24 53 53l0 278c0 29-24 53-53 53z m31-331c0-17-14-32-31-32l-406 0c-17 0-31 14-31 32l0 278c0 17 14 31 31 31l406 0c17 0 31-14 31-31z m-287 194c-5 2-12 0-15-5l-37-79-8 73c0 5-5 9-10 9l-28 0c-6 0-10-4-10-11 0-6 4-10 10-10l18 0 8-77c1-5 5-9 11-9l15 0c4 0 7 3 9 6l42 88c2 6 0 12-5 15z m36-1c-6 1-11-3-13-8l-17-87c-1-6 2-11 8-13 1 0 2 0 2 0 5 0 9 4 10 9l18 86c2 6-2 12-8 13z m80 1c-14 3-40 4-51-14-11-17-4-34 19-48 9-6 15-12 14-16 0-2-3-7-8-10-6-3-15-3-27 1-5 2-12-1-14-6-2-6 1-12 7-14 9-3 17-5 24-5 8 0 14 2 20 5 9 4 16 13 19 23 2 10 0 25-24 39-16 10-15 15-12 19 4 8 23 5 27 4 6-1 12 2 13 8 2 6-1 12-7 14z m95-73c0 1 0 2 0 4l-5 58c0 5-5 9-10 9l-16 1c-5 0-8-2-10-6l-41-87c-3-5-1-12 5-14 1-1 3-1 5-1 4 0 7 2 9 6l9 19 34 0 1-14c0-6 6-10 11-10 6 1 10 6 10 12l-2 21c0 1 0 2 0 2z m-43 11l18 38 3-38z"/>
<glyph glyph-name="pm-yandex" unicode="&#57350;" d="M91 512c-51 0-91-40-91-91l0-330c0-51 40-91 91-91l243 0 178 256-178 256z m136-94l58 0c3 0 5-1 5-4l0-318c0-2-1-4-4-4l-31 0c-2 0-4 2-4 3l0 118-25 0-71-118c-1-2-3-3-6-3l-36 0c-4 0-7 3-4 7l77 121c-41 16-65 47-65 90 1 71 49 108 106 108z m-2-27c-30 0-61-22-61-77 0-52 32-73 66-73l21 0 0 150z"/>
<glyph glyph-name="secured" unicode="&#57351;" d="M167 233c-2 2-4 4-7 5-2 1-5 2-8 2-5 0-8-2-11-4-3-2-6-5-7-9l0 39-4 0 0-71 4 0 0 11c1-4 4-6 7-9 3-2 6-3 11-3 3 0 6 1 8 2 3 1 5 3 7 5 2 2 3 4 4 7 1 3 2 6 2 9 0 3-1 6-2 8-1 3-2 6-4 8z m1-23c-1-3-2-5-4-6-1-2-3-3-5-4-3-1-5-2-8-2-2 0-5 1-7 2-2 1-4 2-6 4-1 1-2 3-3 6-1 2-1 4-1 7 0 2 0 5 1 7 1 2 2 4 3 6 2 2 4 3 6 4 2 1 5 1 7 1 3 0 5 0 8-1 2-1 4-2 5-4 2-2 3-4 4-6 1-2 1-5 1-7 0-3 0-5-1-7z m11-15l4 0 0 71-4 0z m46 38c-2 2-4 4-6 5-3 1-6 2-9 2-4 0-7-1-9-2-3-1-5-3-7-5-2-2-3-5-4-7-1-3-2-6-2-9 0-3 1-6 2-9 1-3 2-5 4-7 2-2 4-4 7-5 2-1 5-2 9-2 3 0 6 1 9 2 2 1 5 3 6 5 2 2 4 4 5 7 1 3 1 6 1 9 0 3 0 6-1 9-1 2-3 5-5 7z m1-23c-1-3-2-5-4-6-1-2-3-3-5-4-2-1-5-2-7-2-3 0-5 1-8 2-2 1-4 2-5 4-2 1-3 3-4 6-1 2-1 4-1 7 0 2 0 5 1 7 1 2 2 4 4 6 1 2 3 3 5 4 3 1 5 1 8 1 2 0 5 0 7-1 2-1 4-2 5-4 2-2 3-4 4-6 1-2 1-5 1-7 0-3 0-5-1-7z m44 23c-2 2-4 4-7 5-2 1-5 2-9 2-3 0-6-1-9-2-2-1-4-3-6-5-2-2-4-5-5-7-1-3-1-6-1-9 0-3 0-6 1-9 1-3 3-5 5-7 2-2 4-4 6-5 3-1 6-2 9-2 4 0 7 1 9 2 3 1 5 3 7 5 2 2 3 4 5 7 1 3 1 6 1 9 0 3 0 6-1 9-2 2-3 5-5 7z m1-23c-1-3-2-5-4-6-1-2-3-3-5-4-3-1-5-2-8-2-2 0-5 1-7 2-2 1-4 2-5 4-2 1-3 3-4 6-1 2-1 4-1 7 0 2 0 5 1 7 1 2 2 4 4 6 1 2 3 3 5 4 2 1 5 1 7 1 3 0 5 0 8-1 2-1 4-2 5-4 2-2 3-4 4-6 1-2 1-5 1-7 0-3 0-5-1-7z m67 26c-2 1-3 2-5 3-2 0-4 1-6 1-2 0-3-1-5-1-2-1-3-2-4-3-1-1-2-3-3-4-1-2-2-3-2-5-1 4-2 7-4 10-3 2-6 3-10 3-2 0-3-1-5-1-1-1-3-2-4-3-1-1-2-3-3-4-1-2-1-3-1-5l0 12-4 0 0-44 4 0 0 22c0 3 0 5 0 7 1 2 2 4 3 6 1 2 2 3 4 4 2 1 3 2 6 2 1 0 2-1 4-1 1-1 2-1 3-3 1-1 2-2 3-4 0-2 1-5 1-8l0-25 4 0 0 22c0 3 0 5 1 7 0 2 1 4 2 6 1 2 2 3 4 4 2 1 4 2 6 2 1 0 3-1 4-1 1-1 3-1 4-3 1-1 2-2 2-4 1-2 1-4 1-7l0-26 4 0 0 27c0 3-1 6-1 8-1 3-2 4-3 6z m50-3c-2 2-4 4-7 5-2 1-5 2-8 2-5 0-8-2-11-4-3-2-6-5-7-9l0 39-4 0 0-71 4 0 0 11c1-4 4-6 7-9 3-2 6-3 11-3 3 0 6 1 8 2 3 1 5 3 7 5 2 2 3 4 4 7 1 3 2 6 2 9 0 3-1 6-2 8-1 3-2 6-4 8z m1-23c-1-3-2-5-4-6-2-2-3-3-6-4-2-1-4-2-7-2-2 0-5 1-7 2-2 1-4 2-6 4-1 1-2 3-3 6-1 2-1 4-1 7 0 2 0 5 1 7 1 2 2 4 3 6 2 2 4 3 6 4 2 1 5 1 7 1 3 0 5 0 7-1 3-1 4-2 6-4 2-2 3-4 4-6 0-2 1-5 1-7 0-3-1-5-1-7z m41 24c-2 2-4 3-7 4-2 1-4 1-7 1-3 0-6 0-9-1-2-1-4-3-6-5-2-2-3-4-4-7-1-3-1-6-1-9 0-3 0-6 1-9 1-3 2-5 4-7 2-2 4-4 6-5 3-1 6-2 9-2 3 0 5 0 7 1 2 1 4 2 6 3 1 1 2 3 3 4 1 2 2 3 3 5l-5 0c0-2-2-5-4-7-3-1-6-2-10-2-2 0-5 0-7 1-2 1-4 3-5 4-1 2-2 4-3 6-1 2-1 5-1 7l35 0c0 1 0 2 0 2 0 1 0 1 0 2 0 3 0 5-1 8-1 2-3 4-4 6z m-30-14c0 5 2 9 5 12 2 3 6 4 11 4 2 0 4 0 6-1 2-1 3-2 5-3 1-2 2-3 3-5 1-2 1-5 1-7z m71 14c-1 2-3 3-6 4-2 1-4 1-7 1-3 0-6 0-9-1-2-1-4-3-6-5-2-2-3-4-4-7-1-3-1-6-1-9 0-3 0-6 1-9 1-3 2-5 4-7 1-2 4-4 6-5 3-1 6-2 9-2 3 0 5 0 7 1 2 1 4 2 5 3 2 1 3 3 4 4 1 2 2 3 2 5l-4 0c-1-2-2-5-5-7-2-1-5-2-9-2-2 0-5 0-7 1-2 1-4 3-5 4-1 2-2 4-3 6-1 2-1 5-1 7l35 0c0 1 0 2 0 2 0 1 0 1 0 2 0 3 0 5-1 8-2 2-3 4-5 6z m-29-14c0 5 2 9 4 12 3 3 7 4 12 4 2 0 4 0 6-1 1-1 3-2 4-3 2-2 3-3 4-5 1-2 1-5 1-7z m69-8c-1 1-2 2-3 3-1 1-3 2-5 2-2 1-3 1-5 1-2 1-4 1-6 2-1 0-3 1-4 1-1 1-2 2-3 3 0 1 0 2 0 3 0 3 1 5 3 7 2 1 4 2 8 2 3 0 6-1 8-3 2-2 4-4 4-8l4 0c0 3-1 5-2 6 0 2-2 4-3 5-1 1-3 2-5 3-2 0-4 1-7 1-4 0-8-1-10-4-3-2-5-5-5-9 0-2 1-4 2-5 0-1 1-2 2-3 2-1 3-2 5-2 1 0 3-1 5-1 2-1 4-1 5-1 2-1 4-1 5-2 1-1 2-1 3-2 1-2 1-3 1-4 0-3-1-5-3-7-2-1-5-2-9-2-1 0-3 0-5 1-1 0-3 1-4 2-1 1-2 2-3 3-1 2-1 4-1 6l-4 0c0-3 1-5 1-7 1-2 3-4 4-5 2-1 4-2 6-3 2 0 4-1 6-1 5 0 9 1 12 4 3 2 4 5 4 9 0 2 0 4-1 5z m-360 78c0 1 0 2 0 2 0 1-1 2-1 2-1 1-2 1-3 2-1 0-2 1-4 1-2 1-3 1-5 2-1 1-2 1-3 2-1 1-2 2-3 3 0 1-1 2-1 4 0 1 1 2 1 4 1 1 2 2 3 3 1 0 2 1 4 2 1 0 3 0 4 0 3 0 4 0 6 0 1-1 3-2 4-3 1-1 2-2 2-3 1-2 1-3 1-4l-5 0c0 1 0 2 0 2-1 1-1 2-2 3 0 0-1 1-2 1-1 0-2 1-4 1-1 0-2-1-3-1-1 0-2-1-2-1-1-1-1-1-2-2 0-1 0-1 0-2 0-1 0-2 1-2 0-1 0-1 1-2 1 0 2-1 3-1 1-1 2-1 3-2 2 0 4-1 6-1 1-1 2-2 3-3 1-1 2-2 2-3 1-1 1-2 1-3 0-2 0-3-1-4 0-1-1-3-2-3-1-1-3-2-4-2-2-1-3-1-5-1-1 0-2 0-4 0-1 1-2 1-3 1-1 1-2 1-3 2 0 0-1 1-2 2 0 1-1 2-1 2-1 2-1 3-1 4l5 0c0-1 0-2 1-3 0-1 1-2 2-3 0 0 1-1 2-1 1 0 2 0 4 0 2 0 4 0 5 1 2 1 2 3 2 4z m31 8l-15 0 0-13 18 0 0-4-23 0 0 36 23 0 0-4-18 0 0-11 15 0 0-4z m35-5c-1-2-1-4-2-5 0-2-1-3-2-4-1-1-3-2-4-2-2-1-4-1-6-1-2 0-4 0-6 1-1 1-3 2-4 3-1 2-2 3-3 6 0 2-1 4-1 6l0 4c0 2 0 5 1 7 1 2 2 3 3 5 1 1 3 2 5 3 1 1 3 1 6 1 2 0 3 0 5 0 1-1 3-2 4-3 1-1 2-2 2-4 1-1 1-3 2-5l-5 0c0 2-1 3-1 4 0 1-1 2-2 2 0 1-1 2-2 2-1 0-2 1-3 1-2 0-3-1-5-1-1-1-2-2-3-3 0-1-1-2-1-4-1-1-1-3-1-5l0-4c0-1 0-3 0-5 1-1 1-2 2-4 1-1 2-2 3-2 1-1 2-1 4-1 2 0 3 0 4 0 1 1 2 1 2 2 1 1 2 1 2 2 0 1 0 2 1 4l5 0z m31 24l0-24c0-2 0-4-1-5-1-2-2-3-3-4-1-1-2-2-4-2-1-1-3-1-5-1-2 0-3 0-5 1-1 0-3 1-4 2-1 1-2 2-3 4 0 1-1 3-1 5l0 24 5 0 0-24c0-2 0-3 1-4 0-1 0-2 1-2 1-1 2-1 3-2 1 0 2 0 3 0 1 0 2 0 4 0 1 0 1 1 2 2 1 0 1 1 2 2 0 1 0 2 0 4l0 24z m20-21l-8 0 0-15-5 0 0 36 12 0c4 0 7-1 9-3 3-2 4-4 4-8 0-2-1-4-2-6-1-1-3-3-5-3l8-15 0-1-5 0z m-8 4l7 0c1 0 3 0 4 0 1 0 1 1 2 1 1 1 1 2 1 3 1 0 1 1 1 2 0 1 0 2 0 3-1 1-1 1-2 2-1 1-1 1-2 1-1 1-3 1-4 1l-7 0z m46-2l-15 0 0-13 18 0 0-4-23 0 0 36 22 0 0-4-17 0 0-11 15 0z m8-17l0 36 10 0c3 0 5-1 7-1 2-1 3-2 5-4 1-1 2-3 3-5 1-2 1-4 1-7l0-2c0-2 0-5-1-7-1-2-2-4-3-5-2-2-3-3-5-3-2-1-5-1-7-1l-10 0z m5 32l0-28 5 0c2 0 4 1 5 1 1 1 3 2 4 3 1 1 1 2 2 4 0 1 1 3 1 5l0 2c0 2-1 4-1 6-1 1-1 3-2 4-1 1-2 2-4 2-1 1-3 1-5 1l-5 0z m41-32l0 36 11 0c2 0 4 0 5-1 1 0 3-1 4-1 1-1 1-2 2-3 0-2 1-3 1-5 0-1-1-3-2-4-1-1-2-2-4-3 1 0 2-1 3-1 1-1 2-1 2-2 1-1 1-2 1-3 1-1 1-2 1-3 0-1-1-3-1-4-1-1-1-2-2-3-2-1-3-2-4-2-2 0-3-1-5-1z m4 21l7 0c1 0 2 0 3 0 1 0 2 1 2 1 1 1 1 1 2 2 0 1 0 2 0 2 0 2-1 4-2 5-1 1-3 1-5 1l-7 0 0-11z m0-4l0-13 8 0c1 0 2 0 3 1 1 0 2 0 2 1 1 0 1 1 1 2 1 1 1 2 1 3 0 1 0 1 0 2-1 1-1 2-2 2 0 1-1 1-2 2-1 0-2 0-3 0z m36 1l9 18 6 0-13-22 0-14-4 0 0 14-13 22 6 0z m-314-27l-4 0 0 14c0 18-13 32-31 32-18 0-30-14-30-32l0-14-5 0c-8 0-15-8-15-16l0-47c0-8 7-14 15-14l70 0c9 0 16 6 16 14l0 47c0 8-7 16-16 16z m-58 14c0 13 9 24 23 24 14 0 24-10 24-24l0-14-47 0z m-7-51c-6 6-5 15 2 19 7 4 15 1 17-7 2-9-1-18-2-27-6 5-12 10-17 15z m16-26c-2 0-4 3-4 5 0 3 2 5 4 5 2 0 4-2 4-5 0-2-2-5-4-5z m47 10c-2-6-6-9-11-9-11 0-20 5-31 9 2 2 6 5 6 5 0 0 8 6 12 9 2 2 4 4 6 5 5 2 12 1 15-2 4-4 5-12 3-17z"/>
<glyph glyph-name="pm-ideal" unicode="&#57352;" d="M57 91l82 0 0 137-82 0z m42 252c-26 0-47-21-47-47 0-25 21-46 47-46 25 0 46 21 46 46 0 26-21 47-46 47z m396 14c-12 29-28 52-49 71-37 33-90 51-152 52l-294 0 0-449 294 0c65 1 116 17 152 48 44 38 66 97 66 176 0 39-6 73-17 102z m-206-296c-10 0-233 0-259 0 0 27 0 363 0 390 26 0 249 0 259 0 57 0 104-16 137-45 38-34 56-84 56-151 0-130-63-194-193-194z m51 225c4 0 12 0 15 0-1 3-5 14-7 20-2-6-6-16-8-20z m-145-17c2 0 4 1 6 2 1 1 2 4 3 7 1 3 2 8 2 14 0 5-1 10-2 13-1 3-2 5-4 7-1 1-3 2-6 3-1 0-5 0-12 0 0 0-3 0-5 0l0-47c3 0 9 0 9 0 4 0 7 0 9 1z m260-1c-8 115-96 147-179 147l-99 0 0-82 10 0c7 0 12-1 16-2 5-1 9-4 13-7 3-4 6-9 7-14 2-5 3-12 3-19 0-6-1-12-3-17-2-6-5-11-8-15-4-3-8-5-12-7-4-1-9-1-15-1l-11 0 0-160 99 0c87 0 179 26 180 160l-58 0 0 81 20 0c0 0 0-60 0-64 3 0 29 0 37 0z m-153-17l-63 0 0 82 62 0 0-18c0 0-38 0-42 0 0-2 0-10 0-12 4 0 39 0 39 0l0-18c0 0-35 0-39 0 0-3 0-14 0-17 4 0 43 0 43 0z m67 0c0 0-5 15-7 18-2 0-25 0-28 0-1-3-6-18-6-18l-21 0 31 82 20 0 33-82z"/>
<glyph glyph-name="pm-jcb" unicode="&#57353;" d="M0 383c0-17 0-87 0-157 6-3 34-12 46-13 25-2 41 7 43 27l0 76 56 0 0-74c-3-43-41-52-99-49-16 1-36 4-46 7 0-70 0-132 0-132 0 0 73 0 97 0 26 0 61 24 61 61 0 61 0 315 0 315 0 0-71 0-96 0-32 0-62-29-62-61z m0-157l0-26c0 8 0 17 0 26z m178 157c0-11 0-43 0-82 19 14 50 22 90 18 23-1 40-4 49-7l0-27c-10 5-30 12-47 13-37 3-57-14-57-42 0-25 15-47 57-44 14 2 37 9 47 14l0-26c-8-2-35-8-59-8-38-1-64 8-80 20 0-74 0-144 0-144 0 0 72 0 96 0 27 0 61 24 61 61 0 62 0 315 0 315 0 0-70 0-95 0-33 0-62-29-62-61z m208-135l0-33 37 0c8 0 17 6 17 17 0 10-8 16-17 16-10 0-33 0-37 0z m34 49c-10 0-30 1-34 0l0-30 35 0c7 0 15 6 15 15-1 9-8 15-16 15z m-4 147c-32 0-62-29-62-61 0-10 0-35 0-67l92 0c19 0 40-8 40-30 0-12-6-25-29-29l0 0c14 0 37-8 37-31 0-24-26-31-39-31l-101 0c0-68 0-128 0-128 0 0 73 0 97 0 27 0 61 24 61 61 0 62 0 315 0 315 0 0-71 1-96 1z"/>
<glyph glyph-name="verified" unicode="&#57354;" d="M48 285c-7 0-11-5-11-11l0-7 22 0 0 7c0 6-4 11-11 11z m1 19c-27 0-48-21-48-48 0-27 21-48 48-48 26 0 48 21 48 48 0 27-22 48-48 48z m24-67c0-4-3-7-7-7l-34 0c-4 0-8 3-8 7l0 22c0 4 4 8 8 8l1 0 0 7c0 8 6 15 15 15 8 0 14-7 14-15l0-7 4 0c4 0 7-4 7-8z m63 37l9 24 4 0-11-29-3 0-11 29 4 0z m33 8l-13 0 0-10 15 0 0-3-18 0 0 29 18 0 0-4-15 0 0-9 13 0z m17-2l-6 0 0-11-4 0 0 29 9 0c4 0 6-1 8-3 2-1 3-3 3-6 0-2-1-3-2-5-1-1-2-2-4-3l7-12 0 0-4 0z m-6 3l6 0c1 0 1 1 2 1 1 0 2 1 2 1 1 1 1 1 1 2 1 0 1 1 1 2 0 1 0 2-1 2 0 1 0 1-1 2 0 0-1 1-2 1-1 0-1 0-3 0l-5 0z m25-14l-4 0 0 29 4 0z m23 12l-12 0 0-12-4 0 0 29 18 0 0-4-14 0 0-9 12 0 0-4z m11-12l-4 0 0 29 4 0z m23 13l-12 0 0-10 14 0 0-3-18 0 0 29 18 0 0-4-14 0 0-9 12 0z m7-13l0 29 8 0c2 0 4-1 5-1 2-1 3-2 4-3 2-1 2-3 3-4 1-2 1-4 1-6l0-2c0-2 0-4-1-5-1-2-1-3-3-5-1-1-2-2-4-2-1-1-3-1-5-1l-8 0z m4 26l0-23 4 0c1 0 3 0 4 1 1 0 2 1 3 2 1 1 1 2 2 3 0 1 0 3 0 4l0 2c0 2 0 3 0 4-1 2-1 3-2 4-1 1-2 1-3 2-1 0-2 0-4 0l-4 0z m32-19c0 1 0 2 0 3 0 0 1 1 1 2 1 0 1 1 2 2 1 0 1 1 2 1 0 1-1 2-1 2-1 1-1 1-1 2-1 0-1 1-1 1 0 1 0 2 0 2 0 1 0 2 0 3 1 1 1 2 2 2 0 1 1 1 2 2 1 0 2 0 3 0 1 0 2 0 3 0 1-1 1-1 2-2 1 0 1-1 1-2 1 0 1-1 1-2 0-1 0-1 0-2-1-1-1-1-1-2-1 0-1-1-1-1-1 0-1-1-2-1l-2-2 6-8c1 1 1 2 1 3 1 1 1 2 1 3l3 0c0-2 0-3 0-5-1-1-1-2-2-3l4-5-5 0-2 2c0 0-1-1-1-1-1-1-1-1-2-1-1 0-1 0-2-1-1 0-1 0-2 0-1 0-3 0-4 1-1 0-2 1-3 2-1 0-1 1-2 2 0 1 0 2 0 3z m9-5c1 0 2 0 3 1 1 0 1 1 2 1l-7 9-1-1c0 0-1-1-1-1-1-1-1-1-1-2-1 0-1 0-1-1 0 0 0 0 0-1 0 0 0-1 0-2 1 0 1-1 1-1 1-1 1-1 2-1 1-1 2-1 3-1z m-3 20c0-1 0-1 0-2 1-1 1-2 2-3l2 2c0 0 1 0 1 1 0 0 1 0 1 1 0 0 0 0 0 1 1 0 1 0 1 1 0 0 0 1-1 1 0 0 0 1 0 1-1 0-1 1-1 1-1 0-1 0-2 0-1 0-1 0-1 0-1 0-1-1-2-1 0 0 0-1 0-1 0-1 0-1 0-2z m46-15c0 1 0 1 0 2-1 0-1 1-2 1 0 1-1 1-2 1-1 1-2 1-3 2-2 0-3 0-4 1-1 0-2 1-3 2-1 1-1 1-2 2 0 1 0 2 0 3 0 1 0 2 0 3 1 1 1 2 2 3 1 1 2 1 3 2 2 0 3 0 5 0 1 0 3 0 4-1 1 0 2-1 3-2 1 0 2-1 2-2 0-1 1-2 1-4l-4 0c0 1 0 2-1 3 0 0 0 1-1 2 0 0-1 0-2 1-1 0-1 0-3 0-1 0-2 0-2 0-1-1-2-1-2-1-1-1-1-1-1-2-1-1-1-1-1-2 0 0 0-1 1-1 0-1 0-1 1-2 1 0 1-1 2-1 1 0 2-1 3-1 2 0 3-1 5-2 1 0 2-1 3-1 0-1 1-2 1-3 1-1 1-2 1-3 0-1 0-2-1-3 0-1-1-2-2-3-1 0-2-1-3-1-1-1-3-1-4-1-1 0-2 0-3 1-1 0-2 0-3 0 0 1-1 1-2 1 0 1-1 2-2 2 0 1-1 2-1 2 0 1 0 2 0 3l4 0c0-1 0-2 0-3 1 0 1-1 2-1 0-1 1-1 2-1 1 0 2-1 3-1 2 0 3 1 4 2 1 0 2 2 2 3z m25 6l-13 0 0-10 15 0 0-3-18 0 0 29 18 0 0-4-15 0 0-9 13 0z m28-4c0-1 0-3-1-4 0-1-1-2-2-3-1-1-2-2-3-2-2-1-3-1-5-1-2 0-3 1-5 1-1 1-2 2-3 3-1 1-2 2-2 4-1 2-1 4-1 6l0 3c0 2 0 4 1 5 0 2 1 3 2 4 1 1 2 2 4 3 1 1 3 1 4 1 2 0 3 0 5-1 1 0 2-1 3-2 1-1 1-2 2-3 0-1 1-2 1-4l-4 0c0 1 0 2-1 3 0 1 0 2-1 2 0 1-1 1-2 1-1 1-2 1-3 1-1 0-2 0-3-1-1 0-2-1-3-2 0-1-1-2-1-3 0-1-1-3-1-4l0-3c0-2 0-3 1-4 0-2 1-3 1-4 1-1 2-1 2-2 1 0 3-1 4-1 1 0 2 0 3 1 1 0 1 0 2 1 0 0 1 1 1 2 1 1 1 2 1 3l4 0z m26 20l0-20c0-2 0-3-1-4-1-2-1-3-2-3-1-1-2-2-4-2-1-1-2-1-4-1-1 0-2 0-4 1-1 0-2 1-3 2-1 0-2 1-2 3-1 1-1 2-1 4l0 20 4 0 0-20c0-1 0-2 0-3 1-1 1-2 2-2 0-1 1-1 2-1 1-1 1-1 2-1 1 0 2 0 3 1 1 0 2 0 2 1 1 0 1 1 2 2 0 1 0 2 0 3l0 20z m17-18l-7 0 0-11-4 0 0 29 9 0c4 0 6-1 8-3 2-1 3-3 3-6 0-2-1-3-2-5-1-1-2-2-4-3l7-12 0 0-4 0z m-7 3l5 0c2 0 2 1 3 1 1 0 2 1 2 1 1 1 1 1 1 2 1 0 1 1 1 2 0 1 0 2-1 2 0 1 0 1-1 2 0 0-1 1-2 1-1 0-1 0-3 0l-5 0z m37-1l-12 0 0-10 14 0 0-3-18 0 0 29 18 0 0-4-14 0 0-9 12 0z m7-13l0 29 8 0c2 0 4-1 6-1 1-1 2-2 4-3 1-1 2-3 2-4 1-2 1-4 1-6l0-2c0-2 0-4-1-5 0-2-1-3-2-5-2-1-3-2-4-2-2-1-4-1-6-1l-8 0z m4 26l0-23 4 0c2 0 3 0 4 1 1 0 2 1 3 2 1 1 1 2 2 3 0 1 0 3 0 4l0 2c0 2 0 3 0 4-1 2-1 3-2 4-1 1-2 1-3 2-1 0-2 0-4 0l-4 0z m-351-74l-17 0 0 3 8 9c1 1 2 2 2 3 1 0 1 1 1 2 1 0 1 1 1 1 0 1 0 1 0 2 0 0 0 1 0 1 0 1-1 2-1 2 0 0-1 1-1 1-1 0-2 0-2 0-1 0-2 0-3 0 0 0-1-1-1-1-1-1-1-1-1-2-1 0-1-1-1-2l-3 0c0 1 0 2 0 3 1 1 1 2 2 3 1 0 2 1 3 1 1 1 2 1 4 1 1 0 2 0 3 0 1-1 2-1 2-2 1 0 2-1 2-2 0-1 0-2 0-3 0-1 0-2 0-2 0-1-1-2-1-3 0-1-1-1-2-2 0-1-1-2-1-2l-8-8 14 0 0-3z m5 14l1 13 14 0 0-3-11 0-1-7c1 0 1 0 2 0 1 1 2 1 3 1 1 0 2 0 3-1 1 0 2-1 2-2 1 0 2-1 2-2 0-2 0-3 0-4 0-1 0-3 0-4 0-1-1-2-2-2 0-1-1-2-2-2-1-1-2-1-4-1-1 0-2 0-3 1-1 0-2 0-2 1-1 1-2 1-2 2-1 1-1 2-1 4l3 0c0-2 1-3 2-4 0-1 2-1 3-1 1 0 2 0 2 0 1 1 1 1 2 2 0 0 0 1 1 2 0 0 0 1 0 2 0 1 0 2 0 2 0 1-1 2-1 2-1 1-1 1-2 1-1 1-1 1-2 1-1 0-1 0-2 0 0 0 0 0-1-1 0 0 0 0-1 0 0 0 0 0 0-1z m33 13l0-3-1 0c-1 0-3 0-4-1-1 0-2-1-3-2 0-1-1-2-1-3-1-1-1-2-1-3 1 1 2 2 3 2 1 0 2 1 3 1 1 0 2-1 3-1 1-1 2-1 2-2 1-1 2-2 2-3 0-1 0-2 0-3 0-1 0-2 0-4-1-1-1-2-2-2-1-1-1-2-2-2-1-1-3-1-4-1-1 0-3 0-4 1-1 0-2 1-2 2-1 1-2 2-2 3 0 2-1 3-1 4l0 2c0 1 1 2 1 3 0 2 0 3 0 4 1 1 1 2 2 3 1 1 1 2 2 3 1 0 2 1 4 1 1 1 2 1 4 1z m-5-12c0 0-1 0-2-1 0 0-1 0-1 0-1-1-1-1-1-1-1-1-1-1-1-2l0-1c0-1 0-2 0-3 1-1 1-2 1-3 1 0 1-1 2-1 1 0 1-1 2-1 1 0 1 1 2 1 1 0 1 1 2 1 0 1 0 1 0 2 1 1 1 2 1 3 0 0 0 1-1 2 0 0 0 1 0 2-1 0-1 1-2 1 0 1-1 1-2 1z m29-5l-9 0 0 3 9 0z m29 0c0-2 0-3-1-4 0-1 0-2-1-3-1-1-2-2-3-2 0-1-2-1-3-1-1 0-2 0-3 1-1 0-2 1-3 2l0-3-3 0 0 28 4 0 0-10c0 1 1 1 2 2 1 0 2 0 3 0 1 0 3 0 3-1 1 0 2-1 3-2 0 0 1-2 1-3 1-1 1-2 1-4l0 0z m-3 0c0 1 0 2-1 3 0 1 0 2-1 2 0 1-1 1-1 2-1 0-2 0-3 0 0 0-1 0-1 0-1 0-1 0-2 0 0-1 0-1-1-1 0-1 0-1 0-2l0-8c0-1 0-1 0-1 1-1 1-1 2-1 0-1 0-1 1-1 0 0 1 0 1 0 1 0 2 0 3 0 0 1 1 1 1 2 1 1 1 1 1 2 1 1 1 2 1 3z m7 15c0 1 0 1 1 1 0 1 1 1 1 1 1 0 1 0 2-1 0 0 0 0 0-1 0 0 0-1 0-1-1-1-1-1-2-1 0 0-1 0-1 1-1 0-1 1-1 1z m4-25l-4 0 0 20 4 0z m10 25l0-5 3 0 0-3-3 0 0-12c0 0 0-1 0-1 0 0 0-1 1-1 0 0 0 0 0 0 1 0 1 0 1 0 0 0 1 0 1 0 0 0 0 0 1 0l0-3c-1 0-1 0-1 0-1 0-1 0-2 0 0 0-1 0-2 0 0 0-1 1-1 1 0 1-1 1-1 2 0 1 0 1 0 2l0 12-4 0 0 3 4 0 0 5z m31-18c0 1 0 1 0 2 0 0-1 1-1 1-1 0-1 1-2 1-1 0-2 1-3 1-1 1-3 1-4 1-1 1-2 1-2 2-1 1-2 1-2 2-1 1-1 2-1 3 0 1 0 2 1 3 0 1 1 2 2 2 1 1 1 1 3 2 1 0 2 0 3 0 2 0 3 0 4-1 1 0 2-1 3-1 1-1 2-2 2-3 1-1 1-2 1-3l-4 0c0 1 0 2 0 2 0 1-1 1-1 2-1 0-1 1-2 1-1 0-2 0-3 0-1 0-1 0-2 0-1 0-1-1-2-1 0 0-1-1-1-1 0-1 0-1 0-2 0-1 0-1 0-2 0 0 1 0 1-1 1 0 1 0 2-1 1 0 2 0 3-1 2 0 3-1 4-1 1-1 2-1 3-2 0-1 1-1 1-2 0-1 1-2 1-3 0-1-1-2-1-3 0-1-1-1-2-2-1-1-2-1-3-1-1-1-2-1-3-1-1 0-2 0-3 0-1 0-2 1-2 1-1 0-2 1-2 1-1 0-2 1-2 2-1 0-1 1-1 2 0 0-1 1-1 2l4 0c0-1 0-2 0-2 1-1 1-1 2-2 1 0 1-1 2-1 1 0 2 0 2 0 2 0 4 0 5 1 1 1 1 2 1 3z m22 0c0 1 0 1 0 2 0 0-1 1-1 1-1 0-1 1-2 1-1 0-2 1-3 1-1 1-3 1-4 1-1 1-2 1-2 2-1 1-2 1-2 2 0 1-1 2-1 3 0 1 1 2 1 3 0 1 1 2 2 2 1 1 2 1 3 2 1 0 2 0 3 0 2 0 3 0 4-1 1 0 2-1 3-1 1-1 2-2 2-3 1-1 1-2 1-3l-4 0c0 1 0 2 0 2 0 1-1 1-1 2-1 0-1 1-2 1-1 0-2 0-3 0-1 0-1 0-2 0-1 0-1-1-2-1 0 0-1-1-1-1 0-1 0-1 0-2 0-1 0-1 0-2 0 0 1 0 1-1 1 0 1 0 2-1 1 0 2 0 3-1 2 0 3-1 4-1 1-1 2-1 3-2 0-1 1-1 1-2 0-1 1-2 1-3 0-1-1-2-1-3 0-1-1-1-2-2-1-1-2-1-3-1-1-1-2-1-3-1-1 0-2 0-3 0-1 0-2 1-2 1-1 0-2 1-2 1-1 0-2 1-2 2 0 0-1 1-1 2 0 0-1 1-1 2l4 0c0-1 0-2 0-2 1-1 1-1 2-2 1 0 1-1 2-1 1 0 2 0 2 0 2 0 4 0 5 1 1 1 1 2 1 3z m12-4l12 0 0-3-16 0 0 27 4 0 0-24z m40 10l-11 0 0-10 13 0 0-3-16 0 0 27 16 0 0-3-13 0 0-9 11 0z m9 7l0-3c1 1 2 2 3 2 1 1 2 1 3 1 1 0 2 0 3 0 1-1 1-1 2-1 0-1 1-2 1-3 0-1 1-2 1-3l0-13-4 0 0 13c0 1 0 2 0 2 0 1 0 1-1 2 0 0 0 0-1 0 0 0-1 0-2 0-1 0-2 0-3 0 0-1-1-2-2-3l0-14-3 0 0 20z m26-17c0 0 1 0 1 0 1 0 1 0 2 1 0 0 0 1 1 1 0 1 0 1 0 2l3 0c0-1 0-2 0-3-1-1-1-1-2-2-1-1-2-1-2-1-1-1-2-1-3-1-2 0-3 0-4 1-1 0-2 1-3 2-1 1-1 2-2 3 0 2 0 3 0 4l0 1c0 1 0 2 0 4 1 1 1 2 2 3 1 1 2 1 3 2 1 0 2 1 4 1 1 0 2 0 3-1 1 0 1-1 2-1 1-1 1-2 2-3 0-1 0-1 0-2l-3 0c0 0 0 1 0 1 0 1-1 1-1 2 0 0-1 0-1 1-1 0-2 0-2 0-1 0-2 0-3-1-1 0-1-1-2-1 0-1 0-2 0-3-1 0-1-1-1-2l0-1c0-1 0-2 1-2 0-1 0-2 0-3 1 0 1-1 2-1 1-1 2-1 3-1z m21 14c-1 0-1 0-1 0 0 0-1 0-1 0-1 0-2 0-3-1-1 0-1-1-1-2l0-14-4 0 0 20 3 0 1-2c0 0 1 1 1 2 1 0 2 0 3 0 0 0 1 0 1 0 0 0 1 0 1 0z m10-12l4 15 4 0-8-23c0 0-1-1-1-1 0-1-1-2-1-2-1-1-1-1-2-1 0-1-1-1-2-1 0 0 0 0-1 0 0 0 0 0 0 0 0 0 0 0-1 0 0 0 0 1 0 1l0 2c0 0 0 0 0 0 0 0 0 0 1 0 0 0 0 0 0 0 0 0 0 0 0 0 1 0 1 0 1 1 1 0 1 0 2 0 0 0 0 1 1 1 0 0 0 1 0 2l1 2-7 19 4 0z m27 5c0-2 0-3 0-4 0-1-1-2-2-3 0-1-1-2-2-2-1-1-2-1-3-1-1 0-3 0-3 1-1 0-2 0-3 1l0-9-3 0 0 27 3 0 0-2c1 1 1 1 3 2 0 0 2 0 3 0 1 0 2 0 3-1 1 0 2-1 3-2 0 0 1-2 1-3 0-1 0-2 0-4l0 0z m-3 0c0 1 0 2 0 3-1 1-1 2-1 2-1 1-1 1-2 2-1 0-1 0-2 0-1 0-1 0-2 0 0 0-1 0-1 0 0-1-1-1-1-1 0-1-1-1-1-1l0-10c0 0 1 0 1-1 0 0 1 0 1-1 0 0 1 0 1 0 1 0 1 0 2 0 1 0 1 0 2 0 1 1 1 1 2 2 0 0 0 1 1 2 0 1 0 2 0 3z m12 15l0-5 4 0 0-3-4 0 0-12c0 0 0-1 0-1 0 0 1-1 1-1 0 0 0 0 1 0 0 0 0 0 0 0 1 0 1 0 1 0 1 0 1 0 1 0l0-3c0 0-1 0-1 0 0 0-1 0-2 0 0 0-1 0-1 0-1 0-1 1-2 1 0 1 0 1-1 2 0 1 0 1 0 2l0 12-4 0 0 3 4 0 0 5z m8 0c0 1 0 1 0 1 1 1 1 1 2 1 0 0 1 0 1-1 1 0 1 0 1-1 0 0 0-1-1-1 0-1 0-1-1-1-1 0-1 0-2 1 0 0 0 1 0 1z m3-25l-3 0 0 20 3 0z m5 10c0 2 0 3 1 4 0 1 1 3 1 3 1 1 2 2 3 3 1 0 2 0 4 0 1 0 2 0 4 0 1-1 2-2 2-3 1 0 2-2 2-3 1-1 1-2 1-4l0 0c0-2 0-3-1-4 0-1-1-2-2-3 0-1-1-2-2-2-2-1-3-1-4-1-1 0-3 0-4 1-1 0-2 1-3 2-1 1-1 2-1 3-1 1-1 2-1 4z m3 0c0-1 0-2 1-3 0-1 0-2 1-2 0-1 1-1 1-2 1 0 2 0 3 0 1 0 2 0 2 0 1 1 2 1 2 2 0 0 1 1 1 2 0 1 0 2 0 3l0 0c0 1 0 2 0 3 0 1-1 2-1 2 0 1-1 2-2 2 0 0-1 1-2 1-1 0-2-1-3-1 0 0-1-1-1-2-1 0-1-1-1-2-1-1-1-2-1-3z m22 10l0-3c1 1 2 2 3 2 1 1 2 1 3 1 1 0 2 0 3 0 1-1 1-1 2-1 0-1 1-2 1-3 0-1 0-2 0-3l0-13-3 0 0 13c0 1 0 2 0 2 0 1-1 1-1 2 0 0-1 0-1 0-1 0-1 0-2 0-1 0-2 0-3 0-1-1-1-2-2-3l0-14-3 0 0 20z"/>
<glyph glyph-name="pm-maestro" unicode="&#57355;" d="M459 452l-406 0c-29 0-53-24-53-54l0-283c0-31 24-55 53-55l406 0c29 0 53 25 53 55l0 283c0 30-24 54-53 54z m31-338c0-18-14-33-31-33l-406 0c-17 0-31 15-31 33l0 284c0 18 14 33 31 33l406 0c17 0 31-15 31-33z m-315 231c31 0 58-17 76-39l26 0c-2 0-4 10-6 13 18 19 42 28 68 28 31 0 59-19 76-41l26 0c-20 44-59 65-103 65-30 0-59-11-81-33-22 21-51 31-83 31-44 0-82-20-103-63l27 0c18 22 45 39 77 39z m164-193c-27 0-49 8-66 25 5 7 8 20 11 20l-24 0c-17-22-49-52-85-52-37 0-69 30-85 52l-24 0c18-44 60-71 110-71 32 0 62 15 84 37 21-21 48-34 80-34 48 0 89 24 107 68l-24 0c-19-22-49-45-84-45z m-249 124l3-57 17 0 24 57-11-57 18 0 14 74-29 0-20-46-1 46-28 0-14-74 17 0z m246-11l10 0 2 15-9 0 3 13-18 0-9-46-1-4-1-6c0-3 0-4 0-6 0-9 5-13 14-13 4 0 7 0 12 2l3 13c-1-1-3-1-5-1-4 0-6 2-6 5 0 1 0 2 1 3z m45-3c0 0 1 0 2 0l2 0 7 17c-2 0-2 0-2 0-1 0-2 1-2 1 0 0-1 0-1 0-6 0-11-3-16-10l2 9-16 0-11-60 18 0c6 37 8 43 17 43z m-85 4c4 0 9 0 13-1l3 14c-5 1-12 1-16 1-20 0-27-9-27-20 0-8 4-13 14-17 7-3 8-4 8-7 0-4-3-6-10-6-6 0-11 1-16 3l-3-14 1 0 3 0c1 0 3-1 5-1 4 0 8 0 10 0 19 0 27 6 27 20 0 8-3 13-13 16-7 4-8 4-8 7 1 4 4 5 9 5z m-97-47l0 1 0 2 1 3 0 4 4 22c1 7 1 9 1 12 0 11-8 18-23 18-7 0-13-1-22-3l-2-14 1 0 3 1c4 1 10 1 15 1 8 0 11-1 11-5 0-1 0-2-1-4-2 0-5 0-7 0-20 0-31-9-31-24 0-9 7-16 16-16 9 0 15 3 19 7l-1-6 16 0z m-26 12c-4 0-6 2-6 6 0 6 5 9 15 9 2 0 2 0 4 0-1-9-6-15-13-15z m89 13c1 6 2 10 2 15 0 13-10 22-24 22-18 0-32-16-32-37 0-18 11-27 31-27 6 0 12 1 18 3l3 15c-6-3-12-4-18-4-11 0-16 4-16 11 0 1 0 1 0 2l36 0z m-22 23c5 0 8-3 8-7 0-1 0-2 0-3l-20 0c2 6 6 10 12 10z m179 14c-21 0-35-14-35-36 0-15 8-28 28-28 19 0 32 9 34 29 1 4 1 4 1 8 0 15-10 27-28 27z m9-34c-2-9-10-15-14-15-6 0-10 6-10 14 0 9 6 21 15 21 7 0 10-6 10-13 0-3 0-5-1-7z"/>
<glyph glyph-name="pm-mastercard" unicode="&#57356;" d="M459 445l-406 0c-29 0-53-21-53-50l0-278c0-29 24-56 53-56l406 0c29 0 53 27 53 56l0 278c0 29-24 50-53 50z m33-331c0-18-15-32-32-32l-408 0c-17 0-32 14-32 32l0 279c0 18 15 32 32 32l407 0c18 0 32-14 32-32l0-279z m-149 250c-31 0-59-12-81-33-21 20-50 32-81 32-64 0-117-53-117-117 0-65 53-118 117-118 33 0 61 13 83 34 20-20 47-31 79-31 64 0 116 52 116 116 0 64-52 117-116 117z m-107-198l0 3-21 0 0-14c-10-3-22-5-34-5-11 0-22 2-33 5l0 14-20 0 0-4c-15 10-25 24-32 40l12 0 0 20-20 0c-1 5-2 14-2 21 0 2 1 3 1 5l0-5 21 0 0 20-20 0c2 10 4 16 8 21l12 0 0 19c5 8 10 14 20 20l0-19 20 0 0 26-10 0c10 5 21 6 31 8l0-8 26 0 0 7c10-1 20-2 30-7l-10 0 0-26 21 0 0 18c5-4 12-10 17-15 0-2 1-3 2-4 0 0 0 0 1 0 0 0 0-1 0-1l0-18 11 0c4-5 6-11 8-21l-19 0 0-20 20 0c0 0 0-1 0-1 0-7 0-15-1-20l-19 0 0-20 11 0c-3-10-6-12-10-17 0 0 0-1 0-1-2-1-3-3-3-4-6-7-13-13-18-17z m107-13c-27 0-49 8-65 25 13 19 20 42 20 67 0 26-8 50-22 69 17 18 41 28 67 28 52 0 94-43 94-95 0-52-42-94-94-94z m-128 134l21 0 0-21-21 0z m0-41l21 0 0-21-21 0z m0-41l21 0 0-26-21 0z m-87 82l20 0 0-21-20 0z m0-41l20 0 0-21-20 0z m0-41l20 0 0-26-20 0z m41 102l26 0 0-20-26 0z m0-41l26 0 0-20-26 0z m0-41l26 0 0-20-26 0z m0-46l26 0 0-20-26 0z"/>
<glyph glyph-name="pm-paypal" unicode="&#57357;" d="M459 402c-8 71-66 110-164 110l-191 0-99-432 65 0-18-80 177 0 26 114 88 0c91 0 164 106 164 193 0 41-17 74-48 95z m-424-300l88 387 173 0c53 0 141-13 141-102 0-77-65-170-141-170l-107 0-26-115z m308 35l-107 0-26-114-129 0 13 56 88 0 26 114 87 0c86 0 157 95 164 179 16-16 24-38 24-65 0-77-65-170-140-170z m-100 169c52 0 76 48 76 81 0 34-52 34-79 34l-13 0-29-113 13-1c10 0 25-1 32-1z m3 93c18 0 49-2 49-12 0-20-15-58-52-58-4 0-10 0-15 0z"/>
<glyph glyph-name="pm-paysafecard" unicode="&#57358;" d="M92 275l-16 0c-1 0-2-1-4-1-1-1-2-2-3-2-1-2-2-5-2-9l0-52 11 0 0 18 15 0c2 0 5 1 7 3 2 2 3 5 3 7l0 24c0 8-4 12-11 12z m0-31c0-1-1-2-1-2-1-1-1-1-2-1l-8 0c-2 0-4 1-4 3l0 16c0 2 1 3 3 4l9 0c2 0 3-1 3-3z m45 31l-25 0 0-12 23 0c2 0 3-1 3-2l0-1-15 0c-7 0-11-4-11-11l0-9c0-7 4-11 11-11l16 0c3 0 5 1 7 3 2 2 2 5 2 8l0 25c0 6-4 10-11 10z m0-32c0-1-1-2-3-2l-9 0c-1 0-1 0-2 1 0 0-1 1-1 1l0 3c0 1 0 2 1 2 0 1 1 1 2 1l9 0c2 0 3-1 3-3l0-3z m46 2l0-1c0-1-1-2-1-2-1-1-2-1-3-1l-7 0c-3 0-4 1-4 3l0 31-11 0 0-34c0-2 1-4 1-5 0-2 1-3 2-4 1-1 3-2 4-3 1 0 2 0 4 0l15 0 0-3c0 0-1-1-1-2-1 0-2-1-2-1l-22 0 0-12 26 0c3 0 5 1 7 4 3 2 3 5 4 9l0 51-12 0 0-30z m20 20l0-9c0-3 1-5 3-7 2-2 4-3 8-3l9 0c1 0 1 0 2-1 0-1 0-1 0-1l0-1c0-2-1-2-2-2l-20 0 0-12 23 0c2 0 3 0 4 0 1 1 2 1 3 3 3 2 4 5 4 7l0 9c0 2-1 5-4 7-2 2-4 3-6 3l-10 0c-2 0-3 1-3 2l0 1c0 2 1 2 3 2l20 0 0 12-23 0c-8 0-11-4-11-10z m67 10l-25 0 0-12 22 0c2 0 3-1 3-2l0-1-15 0c-7 0-10-4-10-11l0-9c0-7 4-11 11-11l15 0c3 0 6 1 8 3 1 2 2 5 2 8l0 25c0 6-4 10-11 10z m0-32c0-1-1-2-3-2l-9 0c-1 0-1 0-2 1-1 0-1 1-1 1l0 3c0 1 0 2 0 2 1 1 2 1 3 1l8 0c2 0 3-1 3-3l0-3z m23 46c-2-2-3-4-3-7l0-53 11 0 0 34 8 0 0 12-8 0 0 3c0 2 1 3 4 3l4 0 0 11-7 0c-4 0-7-1-9-3z m49-14l-15 0c-8 0-11-4-11-11l0-23c0-2 0-4 0-5 1-2 1-3 3-4 1-1 2-1 4-2 1 0 3 0 5 0l24 0 0 11-23 0c-1 0-1 0-2 1 0 0 0 1 0 2l0 0 25 10 0 10c0 7-4 11-10 11z m-2-14l-13-5 0 5c0 1 0 1 1 2 0 0 1 1 2 1l8 0c0 0 1 0 2-1 0 0 0-1 0-2z m32-27c-1 0-2 1-3 2-1 1-1 2-1 3-1 1-1 3-1 4l0 21c0 3 1 5 2 5 1 1 3 2 5 2l19 0 0 7-19 0c-2 0-4 0-5-1-2-1-4-2-5-3-2-2-3-3-3-5-1-1-1-3-1-5l0-21c0-3 1-5 1-6 1-3 3-4 4-6 2-2 4-2 5-3 2 0 3 0 5 0l18 0 0 6-18 0c-1 0-2 0-3 0z m61 41c0 1-2 1-3 2-2 1-4 1-6 1l-25 0 0-7 26 0c2 0 3 0 4-1 1 0 2-1 2-1 1-2 2-4 2-6l0-1-20 0c-9 0-14-5-14-14l0-7c0-4 2-8 4-11 3-2 6-3 10-3l13 0c0 0 0 0 1 0 4 0 7 1 10 4 1 1 2 3 2 5 0 2 1 3 1 5l0 21c0 4-1 8-4 11-1 1-2 2-3 2z m0-34c0-5-2-7-7-7l-13 0c-2 0-4 0-5 2-1 1-1 2-2 2 0 1 0 2 0 3l0 7c0 3 0 4 1 6 1 1 3 2 5 2l20 0 0-15z m19 32c-2-2-3-6-3-11l0-35 6 0 0 35c0 6 2 8 7 8l5 0 0 7-5 0c-4 1-7-1-10-4z m53 19l0-14-19 0c-9 0-14-6-15-16l0-20c0-2 0-4 1-5 0-3 1-4 2-6 2-2 4-3 6-3 2-1 3-1 6-1l10 0c0 0 0 0 0 0 10 0 15 5 15 15l0 51-6 0z m-2-56c-2-2-4-2-7-2l-10 0c-1 0-2 0-3 0-1 0-2 1-3 2 0 0-2 1-2 5l0 21c0 2 0 3 1 4 0 1 0 1 1 2 1 1 2 2 3 2 1 1 2 1 3 1l19 0 0-29c0-3-1-5-2-6z m-496 42c2 7 8 13 17 13 8 0 14-5 16-13 2-1 5-2 6-4 0 2 0 4 0 5-1 11-11 21-22 21-13 0-22-10-23-22 0-2 0-3 0-4 1 1 2 2 4 2 1 2 2 2 2 2z m30-3l-27 0c-2 0-3-1-4-1-2-1-3-2-3-2-2-2-3-5-3-9l0-22c0-4 1-7 3-9 1-1 2-2 3-2 1-1 2-1 4-1l27 0c7 0 11 4 11 12l0 22c0 8-4 12-11 12z"/>
<glyph glyph-name="pm-paytrail" unicode="&#57359;" d="M111 122c-1 1-3 2-5 3-2 0-5 1-8 1l-11 0 0-27 11 0c3 0 5 1 7 1 3 1 4 2 6 3 1 1 2 2 2 3 1 2 1 4 1 6 0 3 0 5-1 7 0 1-1 3-2 3z m40-40c-2 0-4 0-5 0-2-1-3-1-3-2-2-2-3-4-3-6 0-2 1-4 2-5 1-1 2-1 3-2 1 0 2 0 3 0 3 0 6 0 8 2 3 1 5 2 6 4l0 6c-1 1-3 2-4 2-2 1-4 1-7 1z m-151 430l0-512 512 0 0 512z m412-381c0-2-1-4-2-6-2-1-4-2-6-2-2 0-4 1-6 2-1 2-2 4-2 6 0 2 1 4 2 6 2 1 4 2 6 2 2 0 4-1 6-2 1-2 2-4 2-6z m-281 338c12 0 22-9 22-21 0-9-6-16-14-19 8-57 58-101 118-101 59 0 108 44 117 101-7 3-13 10-13 19 0 12 10 22 22 22 12 0 21-10 21-22 0-10-6-18-15-20-10-65-65-114-132-114-67 0-123 50-132 115-8 2-15 10-15 20 0 10 9 20 21 20z m-11-375c-3-3-6-4-9-5-3-1-7-2-11-2l-13 0 0-31-23 0 0 12 10 0 0 58-10 0 0 12 35 0c4 0 9-1 12-2 3-1 6-2 9-5 2-2 4-5 5-8 1-3 2-7 2-11 0-3 0-7-2-10-1-3-3-6-5-8z m63-38l-21 0 0 4c-2-1-5-2-7-3-3-1-5-2-9-2-5 0-10 2-13 6-4 4-6 8-6 13 0 6 2 10 7 15 2 2 4 3 7 4 2 1 5 1 9 1 3 0 5-1 8-1 1 0 1-1 2-1 1 0 2 0 2 0l0 6c0 2 0 3 0 4-1 1-1 1-2 2-1 0-2 1-3 1-1 1-3 1-4 1-1 0-2 0-3-1-2 0-3 0-4-1-2 0-3-1-4-1-2-1-3-1-4-1l-4 10c3 1 5 2 7 2 2 1 3 1 5 2 2 0 4 1 6 1 3 0 6-1 9-1 2-1 5-2 7-3 2-2 4-4 5-7 1-2 1-5 1-7l0-30 9 0 0-13z m64 47l-9 0-27-70-12 0 9 28-17 42-10 0 0 12 19 0 2-7 13-30 9 25-6 0 0 12 28 0 0-12z m38 0l-11 0 0-33c0-1 0-2 1-2l0 0 11 1 0-12-11-2c-2 0-4 1-5 1-2 1-3 2-4 3-1 1-2 2-3 4 0 2 0 4 0 5l0 35-10 0 0 12 10 0 0 11 12 0 0-11 11 0 0-12z m39-35l0-12-24 0 0 47-10 0 0 12 23 0 0-6c0 0 1 0 2 1 1 0 2 1 3 2 3 1 5 2 7 2 2 1 4 1 6 1l6 0 0-12-6 0c-3 0-6 0-8-1-2-1-5-2-6-3-2-1-3-2-3-4-1-1-1-4-1-7l0-20z m68-12l-21 0 0 4c-2-1-5-2-7-3-3-1-6-2-9-2-5 0-10 2-13 6-4 4-6 8-6 13 0 6 2 10 7 15 2 2 4 3 7 4 2 1 5 1 9 1 2 0 5-1 8-1 1 0 1-1 2-1 1 0 2 0 2 0l0 6c0 2 0 3 0 4-1 1-1 1-2 2-1 0-2 1-3 1-1 1-3 1-5 1-1 0-2 0-3-1-1 0-2 0-3-1-2 0-3-1-4-1-1 0-2 0-3-1l-5 10c3 1 5 2 7 2 2 1 3 1 5 2 2 0 4 1 5 1 4 0 7-1 10-1 2-1 5-2 7-3 2-2 3-4 4-7 1-2 2-5 2-7l0-30 9 0 0-13z m28 0l-21 0 0 47-9 0 0 12 22 0 0-47 8 0z m29 0l-23 0 0 70-9 0 0 12 22 0 0-70 10 0z m-89 26c-2 0-4 0-5 0-2-1-3-1-3-2-2-2-3-4-3-6 0-2 1-4 2-5 1-1 2-1 3-2 1 0 2 0 3 0 3 0 5 0 8 2 3 1 5 2 6 4l0 6c-1 1-3 2-4 2-2 1-5 1-7 1z"/>
<glyph glyph-name="pm-skrill" unicode="&#57360;" d="M407 328l43 8 0-168-43 0z m63 0l0-160 42 0 0 168z m-123-160l42 0 0 123-42 0z m-282 105c-6 1-18 1-18 13 0 14 18 14 25 14 11 0 27-4 38-7 0 0 6-2 11-5l0 0 0 38 0 0c-13 5-28 9-56 9-48 1-65-28-65-52 0-15 6-48 61-52 5 0 17-1 17-12 0-10-10-16-27-16-19 0-37 5-48 10l0-39c16-5 35-7 57-7 47 0 68 27 68 54 0 30-24 50-63 52z m258 19c-40-1-60-19-60-55l0-69 43 0 0 56c0 22 3 31 28 32l0 36c-4 1-11 0-11 0z m-116-1c-1-3-8-22-24-43l0 88-44-9 0-159 44 0 0 50c13-20 19-50 19-50l52 0c-5 22-28 63-28 63 21 27 30 55 31 60z m161 12c11 0 21 9 21 21 0 12-10 22-21 22-12 0-21-10-21-22 0-12 9-21 21-21z"/>
<glyph glyph-name="shopping-cart" unicode="&#57361;" d="M509 372c-3 5-8 7-13 7l-51 0-102 91c-13 12-33 12-46-1l-101-90-41 0-26 92c-10 36-34 41-44 41l-69 0c-9 0-16-9-16-18 0-9 7-18 16-18l68 0c3 0 9 1 14-15l89-336c2-7 8-12 15-12l217 0c7 0 13 5 15 12l76 232c3 5 2 11-1 15z m-189 74l76-67-152 0z m88-298l-193 0-51 200 309 0z m-32-66c-22 0-40-19-40-42 0-23 18-41 40-41 22 0 40 18 40 41 1 23-17 42-40 42z m-144 0c-22 0-40-19-40-42 0-23 18-41 40-41 22 0 40 18 40 41 0 23-18 42-40 42z"/>
<glyph glyph-name="sort-desc" unicode="&#57364;" d="M400 167l-131-160c0 0 0 0 0 0-1-1-2-2-3-3 0 0 0 0 0 0-4-2-8-4-13-4-4 0-8 2-12 4 0 0 0 0 0 0-1 1-2 2-3 3 0 0 0 0 0 0l-126 163c-8 9-7 23 2 31 9 7 22 6 30-2l89-121 0 412c0 12 10 22 21 22 12 0 21-10 21-22l0-412 94 118c4 4 10 7 16 7 5 0 10-2 14-5 8-9 9-22 1-31z"/>
<glyph glyph-name="sort-asc" unicode="&#57365;" d="M398 315c-4-4-8-5-13-5-6 0-12 2-16 7l-94 118 0-413c0-12-9-21-21-21-12 0-21 9-21 21l0 412-90-121c-7-8-21-9-29-2-9 8-10 22-2 31l126 163c0 0 1 0 1 0 1 1 1 2 2 3 0 0 0 0 1 0 3 2 7 4 12 4 5 0 9-2 12-4 0 0 0 0 1 0 1-1 2-2 2-3 0 0 1 0 1 0l130-160c8-9 7-22-2-30z"/>
<glyph glyph-name="sn-instagram-circle" unicode="&#57366;" d="M256 512c-139 0-251-115-251-256 0-141 112-256 251-256 139 0 251 115 251 256 0 141-112 256-251 256z m0-490c-127 0-231 104-231 234 0 130 104 234 231 234 127 0 231-105 231-234 0-129-104-234-231-234z m121 318c-3 8-7 15-15 22-7 8-14 12-22 15-8 3-17 5-31 6-14 1-18 1-53 1-35 0-39 0-53-1-14-1-23-3-31-6-8-3-15-8-22-15-8-7-12-14-15-22-3-8-5-17-6-31-1-14-1-18-1-53 0-35 0-39 1-53 1-14 3-23 6-31 3-8 8-15 15-22 7-8 14-12 23-15 8-3 17-5 31-6 13-1 17-1 52-1 35 0 39 0 53 1 14 1 23 3 31 6 8 3 15 8 22 15 8 7 12 14 15 23 3 8 5 17 6 31 1 13 1 17 1 52 0 35 0 39-1 53-1 14-3 23-6 31z m-17-136c-1-12-3-19-5-23-2-6-5-11-9-15-5-5-9-7-15-10-5-1-12-3-24-4-13-1-17-1-52-1-34 0-38 0-51 1-13 0-20 2-24 4-6 3-10 5-15 10-4 4-7 9-9 15-2 4-4 11-5 23 0 14 0 18 0 52 0 34 0 38 0 52 1 12 3 19 5 23 2 6 5 11 9 15 5 5 9 7 15 10 5 1 11 3 24 4 13 1 17 1 51 1 35 0 39 0 52-1 12 0 20-2 24-4 6-3 10-5 15-10 4-4 7-9 9-15 2-4 4-11 5-23 0-14 0-18 0-52 1-34 1-38 0-52z m-104 118c-36 0-66-30-66-66 0-36 30-66 66-66 36 0 66 30 66 66 0 36-30 66-66 66z m0-108c-24 0-42 18-42 42 0 24 18 42 42 42 24 0 42-18 42-42 0-24-18-42-42-42z m83 110c0-8-6-15-15-15-8 0-15 7-15 15 0 9 7 15 15 15 9 0 15-6 15-15z"/>
<glyph glyph-name="share" unicode="&#57362;" d="M432 160c-26 0-50-13-64-32l-210 108c2 6 3 13 3 21 0 9-2 17-5 26l212 103c14-20 38-33 65-33 44 0 80 36 80 80-1 43-37 79-81 79-44 0-80-36-80-80 0-6 1-12 2-18l-215-104c-15 16-36 26-59 26-44 0-80-36-80-80 0-44 36-80 80-80 25 0 48 12 62 30l212-108c-2-6-2-12-2-18 0-44 36-80 80-80 44 0 80 36 80 80 0 44-36 80-80 80z m0 320c27 0 48-21 48-48 0-26-21-48-48-48-26 0-48 22-48 48 0 27 22 48 48 48z m-352-272c-27 0-48 21-48 48 0 27 21 48 48 48 26 0 48-21 48-48 0-27-22-48-48-48z m352-176c-26 0-48 22-48 48 0 27 22 49 48 49 27 0 48-22 48-49 0-27-21-48-48-48z"/>
<glyph glyph-name="login" unicode="&#97;" d="M202 154l40-40 142 142-142 142-40-40 73-73-275 0 0-57 275 0z m253 358l-398 0c-31 0-57-26-57-57l0-113 57 0 0 113 398 0 0-398-398 0 0 113-57 0 0-113c0-31 26-57 57-57l398 0c31 0 56 26 56 57l0 398c1 31-25 57-56 57z"/>
<glyph glyph-name="logout" unicode="&#118;" d="M403 285l-275 0 0-57 275 0-73-74 40-40 142 142-142 142-40-40z m-346-285l398 0c31 0 56 26 56 57l0 113-56-56 0-57-398 0 0 398 398 0 0-68 56-45 0 113c1 31-25 57-56 57l-398 0c-31 0-57-26-57-57l0-398c0-31 26-57 57-57z"/>
<glyph glyph-name="sn-pinterest-circle" unicode="&#65;" d="M256 512c-139 0-251-115-251-256 0-141 112-256 251-256 139 0 251 115 251 256 0 141-112 256-251 256z m0-491c-127 0-230 105-230 235 0 130 103 235 230 235 127 0 230-105 230-235 0-129-103-235-230-235z m0 373c-74 0-135-62-135-137 0-57 33-105 81-126-1 10 0 21 2 31 3 11 18 75 18 75 0 0-4 8-4 21 0 21 11 35 26 35 12 0 18-9 18-20 0-13-8-31-13-49-3-15 8-26 21-26 26 0 43 33 43 73 0 30-20 53-56 53-41 0-67-31-67-66 0-13 4-21 10-27 2-3 2-5 2-8-1-2-2-8-3-11 0-3-3-4-7-3-18 8-28 29-28 53 0 39 32 86 97 86 51 0 85-38 85-79 0-54-30-94-73-94-15 0-28 8-33 17 0 0-8-31-10-38-2-11-8-21-13-30 12-3 25-5 38-5 75 0 136 61 136 137 0 76-61 138-135 138z"/>
<glyph glyph-name="sn-google-circle" unicode="&#46;" d="M213 270c0-11 0-22 0-33 19-1 38-1 57-1-8-42-65-56-96-29-31 25-29 77 3 100 22 18 55 13 77-2 9 8 17 17 25 26-18 15-41 25-67 24-51 2-98-43-99-94-3-42 24-83 64-98 39-15 88-5 113 30 16 22 20 51 18 77-32 0-63 0-95 0z m185 0c0 10 0 20 0 28-10 0-19 0-28 0 0-9 0-19 0-28-10 0-20 0-28 0 0-9 0-18 0-28 9 0 19 0 28 0 0-10 0-19 0-28 9 0 18 0 28 0 0 10 0 19 0 28 10 0 19 0 28 0 0 10 0 19 0 28-9 0-18 0-28 0z m-142 242c-139 0-251-115-251-256 0-141 112-256 251-256 139 0 251 115 251 256 0 141-112 256-251 256z m0-491c-127 0-230 105-230 235 0 130 103 235 230 235 127 0 230-105 230-235 0-129-103-235-230-235z"/>
<glyph glyph-name="sn-facebook-circle" unicode="&#57363;" d="M256 512c-139 0-251-115-251-256 0-141 112-256 251-256 139 0 251 115 251 256 0 141-112 256-251 256z m0-491c-127 0-230 105-230 235 0 130 103 235 230 235 127 0 230-105 230-235 0-129-103-235-230-235z m36 328c11 0 22-3 22-3l8 42c0 0-15 5-51 5-21 0-33-8-43-20-9-12-9-30-9-42l0-28-29 0 0-41 29 0 0-143 52 0 0 142 42 0 3 41-44 0 0 32c-1 12 9 15 20 15z"/>
<glyph glyph-name="sn-twitter-circle" unicode="&#57367;" d="M256 512c-139 0-251-115-251-256 0-141 112-256 251-256 139 0 251 115 251 256 0 141-112 256-251 256z m0-491c-127 0-230 105-230 235 0 130 103 235 230 235 127 0 230-105 230-235 0-129-103-235-230-235z m131 324c-11-6-23-11-36-14-11 11-25 18-42 18-31 0-57-26-57-58 0-5 1-9 2-13-48 2-90 25-117 60-5-8-8-18-8-29 0-20 10-38 26-48-10 0-18 3-26 7l0 0c0-28 20-51 46-57-5-1-10-2-15-2-4 0-7 0-11 1 7-23 28-40 53-41-19-15-44-25-71-25-5 0-9 0-13 1 25-16 55-26 87-26 105 0 162 88 162 165 0 2 0 5 0 7 10 9 20 19 28 31-10-5-21-8-33-10 12 8 21 20 25 33z"/>
<glyph glyph-name="back" unicode="&#43;" d="M446 317l-207 0c-3 0-5 3-6 4-1 2-2 4-2 6 0 3 2 5 3 6l67 69c12 13 18 29 18 45 0 17-7 34-18 46-12 12-29 18-46 18-16 0-33-6-45-18l-187-181c-15-15-23-35-23-56 0-22 8-41 24-56 1-1 1-2 2-2l184-179c12-12 28-18 45-18 17 0 33 7 45 18 12 13 18 29 18 46 0 16-6 33-18 45l-67 69c-1 1-2 2-2 5 0 2 1 3 2 4 1 1 3 1 6 1l207 0c35 0 66 32 66 67 0 0 0 1 0 1-5 34-31 60-66 60z m0-97l-207 0c-11 0-20-2-28-10-8-7-12-16-12-27 0-10 4-20 11-27l68-69c6-7 9-14 9-23 0-9-3-16-9-23-13-12-33-12-46 0l-186 182c-1 0-1 1-2 1-8 9-12 20-12 32 0 13 5 25 14 34l186 180c13 12 34 12 46 0 6-6 9-14 9-23 0-8-3-16-10-22l-67-69c-7-8-11-18-11-28 0-11 4-21 12-29 8-8 17-12 28-12l207 0c18 0 32-16 32-34 0-17-15-33-32-33z"/>
<glyph glyph-name="browse" unicode="&#44;" d="M382 380c-23 59-71 96-143 96-93 0-157-68-162-156-45-14-77-59-77-109 0-62 50-114 108-114l46 0c9 0 16 7 16 16 0 8-7 16-16 16l-46 0c-41 0-76 37-76 82 0 40 28 76 63 82l15 2-2 15c0 77 51 134 131 134 63 0 99-30 115-83l4-11 12 0c59-2 111-49 111-108 0-54-36-114-91-114l-36 0c-9 0-16-7-16-16 0-9 7-16 16-16l36 0c81 2 122 78 122 146 0 72-58 131-130 138z m-114-126c0 0 0 1 0 0l-4 5c-2 3-5 4-8 4-3 0-6-1-8-4l-4-4c0 0 0 0 0-1l-58-63c-5-4-5-12 0-16l4-3c5-5 12-3 16 2l35 37 0-159c0-8 7-16 16-16 8 0 15 8 15 16l0 159 36-38c4-5 11-7 16-2l4 3c5 4 5 12 0 16z"/>
<glyph glyph-name="crop" unicode="&#45;" d="M372 186l47 0 0 186c0 26-21 47-47 47l-186 0 0-47 186 0z m-232-46l0 372-47 0 0-93-92 0 0-47 92 0 0-233c0-25 21-46 47-46l232 0 0-93 47 0 0 93 92 0 0 47z"/>
<glyph glyph-name="invoice" unicode="&#47;" d="M121 338l182 0c11 0 21 9 21 20 0 12-10 21-21 21l-182 0c-11 0-21-9-21-21 0-11 10-20 21-20z m248 0l20 0c11 0 21 9 21 20 0 12-10 21-21 21l-20 0c-12 0-21-9-21-21 1-11 9-20 21-20z m-248-92l182 0c11 0 21 6 21 18 0 11-10 18-21 18l-182 0c-11 0-21-7-21-18 0-12 10-18 21-18z m248 0l20 0c11 0 21 6 21 18 0 11-10 18-21 18l-20 0c-12 0-21-7-21-18 1-12 9-18 21-18z m-248-98l182 0c11 0 21 10 21 21 0 11-10 20-21 20l-182 0c-11 0-21-9-21-20 0-11 10-21 21-21z m248 0l20 0c11 0 21 10 21 21 0 11-10 20-21 20l-20 0c-12 0-21-9-21-20 0-11 9-21 21-21z m73 364l-374 0c-20 0-37-15-37-35l0-440c0-20 17-36 37-36l374 0c20 0 39 16 39 36l0 440c0 20-18 35-39 35z m-5-471l-365 0 0 430 365 0z"/>
<glyph glyph-name="drag" unicode="&#57368;" d="M209 326l94 0 0 70 69 0-116 116-116-116 69 0z m-23-23l-70 0 0 69-116-116 116-116 0 69 70 0 0 94z m326-47l-116 116 0-69-70 0 0-94 69 0 0-69z m-209-70l-94 0 0-69-69 0 116-117 116 116-69 0z"/>
<glyph glyph-name="link" unicode="&#57369;" d="M148 146c3-3 7-5 11-5 4 0 8 2 11 5l195 195c6 6 6 16 0 23-7 6-17 6-23 0l-194-196c-6-6-6-16 0-22z m90 34c5-24 0-46-18-64l-65-63c-14-14-32-21-51-21-19 0-37 8-50 21-28 28-28 74 0 102l63 65c14 14 31 21 50 21 7 0 13-1 19-3l25 25c-13 7-29 10-44 10-26 0-53-10-73-30l-63-65c-41-41-41-107 0-148 20-20 47-30 73-30 27 0 54 10 74 30l65 63c31 31 38 74 21 112z m243 302c-20 20-46 30-73 30-27 0-53-10-74-30l-64-63c-32-32-39-80-20-118l24 24c-7 25-1 52 18 71l64 63c14 14 32 21 51 21 19 0 37-8 51-21 28-28 28-74 0-102l-64-64c-14-14-32-21-50-21-6 0-10-1-14 0l-26-25c13-5 26-7 40-7 26 0 53 10 73 30l64 64c41 41 41 107 0 148z"/>
<glyph glyph-name="open" unicode="&#57370;" d="M453 33l-421 0 0 326 130 0 33 32 0 1-163 0c-18 0-32-15-32-33l0-326c0-18 14-33 32-33l421 0c18 0 32 15 32 33l0 255-32-31z m-319 130l32 0c23 130 135 229 270 229 6 0 11 0 17 0l-60-60c-6-6-6-17 0-23 3-3 7-4 11-4 5 0 9 1 12 4l96 99-96 99c-6 7-16 7-23 0-6-6-6-17 0-23l59-59c-5 0-10 0-15 0-153 0-280-114-303-262z"/>
<glyph glyph-name="shipping-label" unicode="&#57371;" d="M512 339l0 128c0 25-15 45-34 45l-444 0c-19 0-34-20-34-45l0-422c0-25 16-45 36-45l439 0c20 0 36 20 36 45z m-36-294l-440 0 0 289 439 0 0-289z m2 334l-444 0 0 88 444 0z m-204-273l126 0c20 0 37 16 37 36l0 94c0 19-17 36-37 36l-126 0c-20 0-36-17-36-36l0-93c0-21 16-37 36-37z m0 130l126 0 0-93-126 0z"/>
<glyph glyph-name="arrow-right" unicode="&#57372;" d="M89 74c-2-2-3-5-3-7 0-3 0-6 2-8l46-55c2-2 4-4 7-4 0 0 0 0 0 0 3 0 5 1 7 3l275 245c2 2 3 5 3 8 0 3-1 6-3 8l-275 245c-2 2-5 3-7 3-3 0-5-2-7-4l-46-55c-1-2-2-5-2-8 0-3 1-5 3-7l208-182z"/>
<glyph glyph-name="arrow-left" unicode="&#57373;" d="M215 256l208 182c2 2 3 5 3 7 0 3 0 6-2 8l-46 55c-1 2-4 4-7 4-2 0-5-1-7-3l-275-245c-2-2-3-5-3-8 0-3 1-6 3-8l275-245c2-2 4-3 7-3 0 0 0 0 0 0 3 0 5 2 7 4l46 55c1 2 2 5 2 8 0 3-1 5-3 7z"/>
<glyph glyph-name="return" unicode="&#120;" d="M352 445l-96 0c-12 0-21-9-21-20 0-11 10-20 21-20l96 0c68 0 118-41 118-99 0-58-50-99-118-99l-279 0 70 65c9 8 9 20 0 28-8 8-22 8-30 0l-107-100c-8-7-8-20 0-28l107-99c5-4 10-6 16-6 5 0 10 2 15 6 8 7 8 20 0 28l-71 65 279 0c91 0 160 60 160 139 0 80-69 140-160 140z"/>
<glyph glyph-name="chat" unicode="&#84;" d="M512 334c0 85-94 153-209 153-116 0-208-68-208-153-1-95 89-160 205-160 4 0 7 0 10 0 8 0 15 0 23 2 10-11 69-56 110-62 1 0 2 0 3 0 7 0 12 5 12 11 0 2 0 4-1 5-8 13-27 44-27 67 0 1 0 1 0 1 56 27 82 84 82 136z m-96-108l-17-9 1-20c0 0 0-10 11-40-18 11-39 28-43 33l-21 17-18-1c-15-2-30-2-30-2-98 1-170 56-171 130 0 67 77 122 175 122 98 0 178-54 178-122-1-40-21-86-65-108z m-132-84c-28-21-60-31-104-31 0 0-18 0-24 0l-17 3c0 0-11-19-43-41 3 10 4 50 4 50l-16 8c-37 18-53 43-53 76 0 28 8 47 36 65-5 11-8 22-8 34-42-24-59-56-59-99 0-46 23-81 70-105l0 0c0-20-10-53-17-64-1-1-1-2-1-4 0-5 5-10 10-10 1 0 3 0 3 0 35 6 79 46 87 55 7-1 13-1 20-1 2 0 5 0 9 0 66 0 117 23 150 62-3 3-55 3-47 2z"/>
<glyph glyph-name="edit" unicode="&#81;" d="M1 13c-2-5-2-10 2-13 4-3 8-5 12-2l117 59-73 74z m495 486c-10 10-24 17-39 17-15 0-28-6-39-17l-23-23 77-78 24 23c22 21 22 57 0 78z m-423-350l78-78 306 311-77 78z"/>
<glyph glyph-name="loading" unicode="&#90;" d="M176 348c-38 18-61 52-61 88l0 20c0 7 7 14 16 14l251 0c10 0 16-6 16-14l0-20c0-36-23-70-61-88l-67-31c-8-4-18-4-26 0z m-51-172c-45-34-70-82-70-133l0-25c0-10 10-19 22-19l358 0c12 0 23 9 23 19l0 25c0 51-26 98-71 133l-30 22c-20 15-31 36-31 59 0 22 11 43 31 58l31 23c44 34 69 82 69 132l0 23c0 10-10 18-22 18l-358 0c-12 0-23-8-23-18l0-23c0-50 26-98 70-132l31-23c20-14 31-36 30-58 0-23-11-44-31-59z"/>
<glyph glyph-name="clock" unicode="&#53;" d="M389 278l-101 0c-5 0-10 5-10 10l0 70c0 13-10 22-23 22-11 0-21-9-21-21l0-112c0-6 5-11 11-11l144 0c11 1 20 10 20 21 0 10-9 20-20 21z m-133 234c-141 0-255-115-255-256 0-141 114-256 255-256 141 0 255 115 255 256 0 141-114 256-255 256z m0-445c-104 0-189 85-189 189 0 105 84 189 189 189 104 0 189-85 189-189 0-105-85-189-189-189z"/>
<glyph glyph-name="package" unicode="&#55;" d="M133 459l-116-50 250-111 83 44z m-133-344c0-5 3-9 6-10l250-105 0 280-256 113z m64 182c0 4 2 7 5 9 3 2 7 3 10 1l118-54c3-2 6-6 6-10l0-107c0-4-2-7-5-10-2-1-4-2-6-2-2 0-3 1-5 1l-116 55c-4 2-6 5-6 9l0 108z m213-17l0-280 228 105c4 2 6 6 6 10l0 278z m218 129l-235 102c-3 1-6 1-9 0l-94-41 217-117z"/>
<glyph glyph-name="shipping" unicode="&#63;" d="M120 387l94-38 104 45-111 46c-2 1-5 1-8 0l-79-33c-4-2-7-6-7-10 1-5 3-8 7-10z m388 7c-10 26-43 40-69 28l-289-125-59 30c-3 2-7 2-10 0l-74-32c-3-2-6-5-7-8-1-3 1-7 3-9l96-97c3-3 8-4 12-2l138 55-55-148c-2-5-1-10 2-12 2-2 5-3 7-3 2 0 3 1 5 2l86 43c2 1 4 2 4 4l84 168 97 36c27 11 40 42 29 70z"/>
<glyph glyph-name="bill" unicode="&#57374;" d="M0 419l0-326 512 0 0 326z m491-304l-470 0 0 282 469 0 0-282z m-395 21l320 0c30 0 54 25 54 54l0 132c0 30-24 54-54 54l-320 0c-29 0-53-24-53-54l0-131c0-30 24-55 53-55z m309 87c12 0 21-9 21-21 0-13-10-22-21-22-11 0-21 9-21 22 0 12 10 21 21 21z m-149 109c41 0 75-34 75-76 0-41-34-76-75-76-41 0-75 34-75 76 0 41 34 76 75 76z m-149 0c11 0 21-9 21-21 0-13-10-22-21-22-11 0-21 9-21 22-1 12 9 21 21 21z"/>
<glyph glyph-name="product" unicode="&#57375;" d="M511 395c0 0 0 1 0 2l0 0c0 1-1 1-1 1 0 0 0 1 0 1-1 0-1 1-1 1 0 0 0 0 0 0-1 1-1 1-2 1l-1 0c0 0 0 1-1 1l-244 109c-3 1-6 1-9 0l-245-107c0 0 0 0-1 0 0 0 0 0 0 0-1-1-1-1-2-1 0 0 0 0 0-1-1 0-1-1-1-1 0 0 0 0-1 0 0-1 0-1 0-1l0-1c0 0 0-1 0-2l0-277c0-4 2-8 6-9l255-109 1 0c0 0 2 0 2 0 1 0 2 0 3 0l1 0 234 106c4 2 6 5 6 9l1 278c0-1 0 0 0 0z m-255 94l219-95-85-38-211 100z m0-462l-234 97 0 255 234-98z m10 273l-228 95 116 49 211-100z m224-176l-213-96 0 253 213 97z m-419 58l128-64c1 0 3-1 4-1 2 0 4 1 6 1 3 2 5 5 5 9l0 107c0 4-3 8-6 10l-128 64c-3 2-7 1-10 0-3-2-5-5-5-9l0-107c0-4 2-8 6-10z m15 100l106-54 0-83-106 54z"/>
<glyph glyph-name="reload" unicode="&#57376;" d="M249 62l-45 73c-3 5-10 7-16 4l-4-2c-5-3-5-11-2-16l28-46c-2 0-5 1-7 2-50 13-92 48-115 96-22 45-26 96-12 144 15 48 49 87 93 111 7 4 10 13 7 21-4 7-13 10-21 6-51-27-89-73-106-128-18-57-13-116 14-168 28-56 77-97 135-112 0 0 1 0 2-1l-39-20c-5-3-7-10-4-16l1-4c3-5 8-7 15-4l71 38 5 2c3 2 5 5 5 8 1 2 1 5-1 8z m201 290c-28 55-75 96-133 112-4 1-8 2-12 3l38 20c5 3 8 10 5 16l-1 4c-3 5-10 7-15 4l-72-38-5-2c-3-2-5-5-5-8-1-2-1-5 1-8l3-5 44-72c3-5 10-7 15-4l3 2c6 3 6 11 3 16l-29 46c7-1 13-2 19-4 50-13 90-48 114-96 22-45 26-96 12-144-15-48-47-88-90-111-7-4-10-13-7-21 3-5 8-8 14-8 2 0 4 1 7 2 51 26 88 72 105 128 17 56 12 116-14 168z"/>
<glyph glyph-name="tag" unicode="&#57377;" d="M492 251l2 2c8 10 13 21 13 34l5 113 0 5c0 13-5 26-15 35l-56 56c-10 10-24 15-37 15l-5-1-111-8-2 0c-10-1-20-5-28-11l-6-6-240-235-3-3c-13-14-12-34 1-47l190-189c14-14 36-14 49 0z m-121 121c-16 15-18 39-5 57 1 2 3 4 5 6 15 15 38 17 54 6 4-2 6-4 9-6 3-3 5-6 7-10 10-17 8-39-7-54-2-2-5-3-6-5-18-12-42-10-57 6z"/>
<glyph glyph-name="domestic" unicode="&#57378;" d="M0 426l0-298c0-6 5-11 11-11l22 0c0 4-1 7-1 11 0 41 34 75 75 75 41 0 74-34 74-75 0-4 0-7 0-11l151 0c-1 3-1 7-1 11 0 41 34 75 75 75 41 0 74-34 74-75 0-4 0-7 0-11l22 0c6 0 11 5 11 11l0 117c0 3-1 6-3 8l-42 41-54 95c-2 3-5 6-10 6l-73 0c-6 0-11-5-11-11l0-203-21 0 0 245c0 6-5 11-11 11l-277 0c-6 0-11-5-11-11z m341-85c0 6 5 11 11 11l32 0c4 0 8-3 10-6l31-64c3-5 1-11-4-14-1 0-3-1-5-1-3 0-7 2-9 6l-30 58-25 0c-6 0-11 4-11 10z m64-160c29 0 53-23 53-53 0-30-23-53-53-53-29 0-53 23-53 53 0 30 23 53 53 53z m-298 0c29 0 53-23 53-53 0-30-23-53-53-53-30 0-53 24-53 53-1 30 24 53 53 53z"/>
<glyph glyph-name="close" unicode="&#99;" d="M512 448l-64 64-192-192-192 192-64-64 192-192-192-192 64-64 192 192 192-192 64 64-192 192 192 192"/>
<glyph glyph-name="bb-icon-search" unicode="&#104;" d="M366 190l-23 0-8 8c29 33 46 76 46 124-1 105-86 190-191 190-105 0-190-85-190-190 0-105 85-191 190-191 48 0 91 17 124 46l8-8 0-23 146-146 44 44z m-176 0c-72 0-131 59-131 132 0 72 59 131 131 131 73 0 132-59 132-131 0-73-59-132-132-132z"/>
<glyph glyph-name="pm-credit-card" unicode="&#105;" d="M477 320l-135 0 0 93c0 19-16 35-36 35l-271 0c-19 0-35-16-35-35l0-185c0-20 16-35 35-35l135 0 0-93c0-20 16-35 36-35l270 0c20 0 35 15 35 35l0 185c1 19-15 35-34 35z m-135-93l0-6 7 0c2-15 4-15 5-15l-12 0 0-14 14 0c0-5 0-14-1-14l-13 0 0-15 8 0c-5-14-8-24-22-30l0 2-15 0 0-9c0-3-13-4-21-4-8 0-7 1-21 4l0 9-15 0 0-2c-14 6-16 17-21 31l7 0 0 14-13 0c-1 0-2 6-2 11 0 1 0-2 0-1l0 5 79 0c20-1 36 15 36 34z m13 4c12 12 28 19 44 19 35 0 63-28 63-63 0-34-28-63-63-63-18 0-32 7-43 18 9 13 14 28 14 44 0 17-5 33-15 45z m-320-25c-11 0-21 10-21 22l0 185c0 11 10 21 21 21l271 0c11 0 21-10 21-21l0-185c0-12-10-22-21-22z m463-107c0-11-10-21-22-21l-270 0c-11 0-21 10-21 21l0 93 29 0c0-2 0-4 0-6 0-43 35-78 78-78 21 0 41 8 55 22 13-13 31-20 52-20 43 0 78 34 78 77 0 42-35 77-78 77-20 0-39-8-53-22-2 2-3 3-5 4l0 60 135 0c12 0 22-10 22-22z m-367 251c-4 2-8 0-10-3l-25-53-5 48c-1 4-4 6-8 6l-18 0c-4 0-7-3-7-7 0-4 3-7 7-7l12 0 5-51c0-3 4-6 7-6l10 1c2 0 5 1 6 4l28 58c3 4 1 9-2 10z m24 0c-4 1-8-2-9-6l-11-58c-1-4 1-7 5-8 1 0 1 0 2 0 3 0 6 3 7 6l12 58c0 3-2 7-6 8z m53 0c-9 3-27 3-34-9-8-12-3-23 12-32 7-4 10-8 10-11-1-1-2-4-6-6-4-2-10-2-18 0-3 2-7 0-8-4-2-3 0-7 4-9 6-2 12-3 16-3 5 0 10 1 14 3 6 3 10 9 12 16 1 7 0 16-15 26-11 7-11 10-9 13 3 5 16 3 19 2 3-1 7 2 9 6 0 3-3 7-6 8z m63-48c0 1 0 1 0 2l-3 39c-1 4-3 7-7 7l-11 0c-3 0-5-2-6-4l-28-58c-1-3 0-7 4-9 1-1 2-1 3-1 2 0 5 0 6 3l7 11 22 0 1-8c0-4 3-6 7-6 4 1 7 4 7 8l-1 16c-1 0-1 0-1 0z m-29 7l12 25 3-25z m86-123l-15 0 0-14 15 0z m-71-14l14 0 0 14-14 0z m28-15l15 0 0 15-15 0z"/>
<glyph glyph-name="check-circle" unicode="&#68;" d="M355 338l-152-141-46 46c-5 4-11 4-16 0-4-5-4-11 0-16l54-53c2-2 5-3 7-3 3 0 5 1 7 3l160 149c5 4 5 10 1 15-3 5-11 5-15 0z m-99 174c-141 0-256-115-256-256 0-141 115-256 256-256 141 0 256 115 256 256 0 141-115 256-256 256z m0-491c-129 0-235 105-235 235 0 130 105 235 235 235 130 0 235-106 235-235 0-129-106-235-235-235z"/>
<glyph glyph-name="help-bold" unicode="&#80;" d="M230 102l52 0 0 52-52 0z m26 410c-141 0-256-115-256-256 0-141 115-256 256-256 141 0 256 115 256 256 0 141-115 256-256 256z m0-461c-113 0-205 92-205 205 0 113 92 205 205 205 113 0 205-92 205-205 0-113-92-205-205-205z m0 359c-56 0-102-46-102-103l51 0c0 28 23 51 51 51 28 0 51-23 51-51 0-51-77-45-77-128l52 0c0 58 76 64 76 128 0 57-46 103-102 103z"/>
<glyph glyph-name="help" unicode="&#82;" d="M256 512c-141 0-256-115-256-256 0-141 115-256 256-256 141 0 256 115 256 256 0 141-115 256-256 256z m0-489c-129 0-233 104-233 233 0 129 104 233 233 233 129 0 233-104 233-233 0-129-104-233-233-233z m0 367c-43 0-78-36-78-78 0-6 5-11 11-11 6 0 11 5 11 11 0 31 25 56 55 56 31 0 56-25 56-56 0-31-25-56-56-56-6 0-10-5-10-11l0-66c0-6 5-11 10-11 7 0 11 5 11 11l0 56c38 5 67 38 67 77 1 43-34 78-77 78z m0-246c-12 0-23-10-23-22 0-12 11-23 23-23 12 0 23 11 23 23 0 12-11 22-23 22z m0-22l11 0z"/>
<glyph glyph-name="sn-linkedin" unicode="&#112;" d="M113 21l-100 0 0 319 100 0z m-53 359l0 0c-36 0-60 24-60 56 0 31 24 55 61 55 37 0 59-24 60-55 0-31-23-56-61-56z m452-359l-113 0 0 165c0 44-18 73-57 73-30 0-46-20-54-39-3-6-3-16-3-26l0-173-111 0c0 0 1 293 0 319l112 0 0-50c6 22 42 54 100 54 70 0 126-47 126-145z"/>
<glyph glyph-name="sn-reddit" unicode="&#83;" d="M512 262c0 32-27 59-59 59-14 0-28-6-39-15-38 24-89 40-145 42l33 96 84-20c0-27 22-48 48-48 27 0 48 21 48 48 0 27-21 48-48 48-20 0-37-12-44-30l-100 24-41-117c-58-1-111-17-151-43-11 9-24 15-39 15-32 0-59-27-59-59 0-20 10-39 27-50-1-6-1-12-1-17 0-85 103-155 229-155 127 0 230 69 230 155 0 6 0 11-1 17 17 11 28 29 28 50z m-78 192c17 0 30-14 30-30 0-16-13-30-30-30-16 0-30 14-30 30 0 16 14 30 30 30z m-416-192c0 22 18 40 41 40 8 0 16-2 22-7-23-18-40-40-49-64-8 8-14 19-14 31z m237-204c-116 0-211 61-211 137 0 74 95 135 211 135 117 0 212-61 212-135 0-76-95-137-212-137z m224 173c-8 24-25 46-49 64 7 5 15 7 23 7 23 0 41-18 41-40 0-12-6-23-15-31z m-260-9c0-20-17-37-37-37-20 0-36 17-36 37 0 20 16 36 36 36 20 0 37-16 37-36z m151 0c0-20-16-37-36-37-20 0-37 17-37 37 0 20 17 36 37 36 20 0 36-16 36-36z m-42-85c0 0-22-22-73-22-49 0-69 21-70 21-3 4-9 4-12 1-5-3-5-9-1-13 1-1 24-28 83-28 59 0 85 26 86 27 4 4 4 10-1 13-3 4-9 4-12 1z"/>
<glyph glyph-name="sn-vk" unicode="&#34;" d="M529 363c5-12-9-40-42-84-5-6-11-14-19-24-15-19-23-31-26-37-3-8-2-16 4-23 4-4 11-12 23-24l1 0 0 0 1-1c27-25 45-46 54-63 1-1 2-2 2-4 1-1 2-4 2-7 1-4 1-7 0-10-1-3-3-5-7-8-4-2-10-3-17-3l-73-2c-5-1-10 0-16 2-6 2-11 4-15 6l-6 4c-5 4-12 10-20 18-7 8-14 15-19 22-6 7-11 12-18 17-6 4-11 6-16 4 0 0-1-1-2-1-1 0-3-2-5-4-2-2-4-5-6-9-2-3-3-8-5-14-1-7-2-14-2-23 0-2 0-5-1-7 0-3-1-5-2-6l-1-1c-3-4-8-6-15-6l-33 0c-14-1-27 0-42 4-14 4-27 9-37 15-11 7-21 13-30 19-9 7-15 12-20 17l-7 7c-2 1-5 4-8 8-3 4-10 13-20 26-11 14-21 28-31 43-9 16-21 36-35 61-13 25-25 50-37 77-1 3-2 6-2 8 0 2 1 4 1 5l1 1c3 4 9 6 17 6l78 0c2 0 4-1 7-2 2 0 3-1 4-2l2-1c3-2 5-5 6-9 4-10 9-19 14-30 5-10 8-18 11-23l5-8c5-12 11-21 16-30 5-8 10-15 14-19 4-5 8-9 12-11 3-3 7-4 9-4 3 0 6 0 8 1 0 0 1 1 1 1 1 1 2 3 4 7 2 3 3 8 4 13 1 6 1 13 2 23 1 10 1 22 0 36 0 8-1 15-2 21-1 6-3 11-4 13l-2 3c-5 7-13 11-24 13-3 0-2 2 1 7 4 3 7 6 11 8 10 5 33 7 68 7 16 0 29-1 39-4 4-1 7-2 10-4 2-1 4-3 5-6 2-3 3-6 3-10 1-3 1-7 1-13 0-5 0-10 0-15 0-5 0-12-1-20 0-9 0-17 0-24 0-2 0-6 0-12 0-6-1-10 0-14 0-3 0-7 1-11 0-5 1-8 3-11 1-3 4-6 6-7 2-1 3-1 5-2 2 0 4 1 8 4 3 2 6 5 10 9 4 5 9 11 15 20 6 8 13 18 20 30 11 20 21 42 30 65 1 1 2 3 3 5 1 1 2 2 3 3l1 0 2 1 4 1 5 0 83 1c7 1 13 0 18-1 5-1 8-3 9-5z"/>
<glyph glyph-name="sliders" unicode="&#36;" d="M137 110l0-37-100 0 0 37z m101 36c5 0 9-2 13-5 3-4 5-8 5-13l0-73c0-5-2-9-5-13-4-4-8-5-13-5l-73 0c-5 0-10 1-13 5-4 4-6 8-6 13l0 73c0 5 2 9 6 13 3 3 8 5 13 5z m45 110l0-37-246 0 0 37z m-182 146l0-36-64 0 0 36z m374-292l0-37-210 0 0 37z m-274 329c5 0 9-2 13-6 4-3 5-7 5-12l0-74c0-5-1-9-5-12-4-4-8-6-13-6l-73 0c-5 0-9 2-13 6-3 3-5 7-5 12l0 74c0 5 2 9 5 12 4 4 8 6 13 6z m183-146c5 0 9-2 13-6 3-3 5-8 5-13l0-73c0-5-2-9-5-13-4-3-8-5-13-5l-73 0c-5 0-9 2-13 5-4 4-5 8-5 13l0 73c0 5 1 10 5 13 4 4 8 6 13 6z m91-37l0-37-64 0 0 37z m0 146l0-36-246 0 0 36z"/>
<glyph glyph-name="shipping-custom" unicode="&#40;" d="M463 154c0-20-16-37-36-37-20 0-37 17-37 37 0 20 17 36 37 36 20 0 36-16 36-36z m-224 0c0-20-16-37-36-37-20 0-37 17-37 37 0 20 17 36 37 36 20 0 36-16 36-36z m-164 113c6 0 10 4 10 10 0 7-4 11-10 11l-64 0c-7 0-11-4-11-11 0-6 4-10 11-10z m0-22l-32 0c-5 0-11-4-11-10 0-7 6-11 11-11l32 0c6 0 10 4 10 11 0 6-4 10-10 10z m0-42l-11 0c-4 0-11-5-11-11 0-6 7-11 11-11l11 0c6 0 10 5 10 11 0 6-4 11-10 11z m256 192l-214 0c-6 0-10-5-10-11l0-235c0-2 2-6 2-8 4-2 6-2 8-2l37 0c-3 4-3 10-3 15 0 29 24 53 54 53 30 0 53-24 53-53 0-7-2-11-2-15l77 0c6 0 10 4 10 10l0 235c-2 6-6 11-12 11z m181-167c0 2 0 2 0 5l-53 91c-2 5-7 7-11 7l-75 0c-6 0-10-5-10-11l0-171c0-6 4-10 10-10l2 0c-2 4-2 10-2 17 0 30 24 53 54 53 30 0 53-23 53-53 0-7-2-11-2-15l25 0c7 0 11 4 11 10z m-128 17l0 64 58 0 40-64z"/>
<glyph glyph-name="drag-n-drop" unicode="&#41;" d="M421 0l-149 0c-11 0-21 7-28 16l-86 159c-7 9-7 23 0 34 5 12 19 19 28 19l23 0c12 0 24-9 28-12l19-23 0 179c0 21 12 35 30 35l33 0c18 0 30-14 30-35l0-114 119-42c14-7 21-18 21-34 0 0 0-3 0-3l-35-156c0 0 0-2 0-2-9-16-23-21-33-21z m-235 205c-2 0-7-3-7-5 0 0 0-2-2-2-2-3-2-7 0-9l86-159c2-4 7-4 9-4l149 0c3 0 7 0 10 7l34 153c0 5-2 9-7 12l-123 44c-5 2-7 7-7 12l0 118c0 12-5 12-7 12l-32 0c-5 0-7-7-7-12l0-214c0-4-3-9-7-11-5-3-10 0-14 4l-40 49c-2 2-7 5-9 5z m-163 307l47 0 0-23-47 0z m0-93l47 0 0-23-47 0z m0-93l47 0 0-23-47 0z m117 186l46 0 0-23-46 0z m0-93l46 0 0-23-46 0z m0-93l46 0 0-23-46 0z m116 186l47 0 0-23-47 0z"/>
<glyph glyph-name="searchfilter" unicode="&#57379;" d="M135 370c-39 0-71 31-71 71 0 39 32 71 71 71 39 0 72-32 72-71 0-40-33-71-72-71z m0 113c-23 0-42-19-42-42 0-24 19-43 42-43 24 0 43 19 43 43 0 23-19 42-43 42z m333-54l-276 0c-8 0-14 6-14 14 0 8 6 14 14 14l276 0c8 0 14-6 14-14 0-8-6-14-14-14z m-391 0l-4 0c-8 0-14 6-14 14 0 8 6 14 14 14l4 0c8 0 15-6 15-14 0-8-7-14-15-14z m-4 0l-30 0c-8 0-15 6-15 14 0 8 7 14 15 14l30 0c8 0 14-6 14-14 0-8-6-14-14-14z m62-427c-39 0-71 31-71 71 0 39 32 71 71 71 39 0 72-32 72-71 0-39-33-71-72-71z m0 113c-23 0-42-19-42-42 0-24 19-43 42-43 24 0 43 19 43 43 0 23-19 42-43 42z m333-54l-276 0c-8 0-14 6-14 14 0 8 6 14 14 14l276 0c8 0 14-6 14-14 0-8-6-14-14-14z m-391 0l-4 0c-8 0-14 6-14 14 0 8 6 14 14 14l4 0c8 0 15-6 15-14 0-8-7-14-15-14z m-4 0l-30 0c-8 0-15 6-15 14 0 8 7 14 15 14l30 0c8 0 14-6 14-14 0-8-6-14-14-14z m302 125c-39 0-71 32-71 71 0 39 31 71 71 71 39 0 71-31 71-71 0-39-32-71-71-71z m0 114c-24 0-43-19-43-43 0-23 19-42 43-42 23 0 42 19 42 42 0 24-19 43-42 43z m-57-59l-275 0c-8 0-15 7-15 15 0 7 7 14 15 14l275 0c8 0 14-7 14-14 0-8-6-15-14-15z m119 0l-4 0c-8 0-14 7-14 15 0 7 6 14 14 14l4 0c8 0 15-7 15-14 0-8-7-15-15-15z m31 0l-31 0c-7 0-14 7-14 15 0 7 7 14 14 14l31 0c8 0 14-7 14-14 0-8-6-15-14-15z"/>
<glyph glyph-name="wallet" unicode="&#57380;" d="M326 2c-6 0-10 0-17 2l-239 56c-38 10-70 49-70 89l0 278c0 42 32 74 75 74l362 0c43 0 75-32 75-74l0-235c0-43-32-75-75-75l-53 0 0-53c0-21-9-38-21-49-11-9-24-13-37-13z m-296 457c-7-9-9-20-9-32l0-278c0-30 24-62 54-68l239-55c12-5 25-3 34 6 8 6 15 19 15 32l0 256c0 30-26 62-54 68z m354-320l53 0c30 0 54 23 54 53l0 235c0 30-24 53-54 53l-362 0c-9 0-17-2-24-6l263-67c38-10 70-49 70-89z m32 277l-213 0c-7 0-11 4-11 11 0 6 4 10 11 10l213 0c6 0 11-4 11-10 0-7-5-11-11-11z m-139-256c-30 0-53 23-53 53 0 30 23 54 53 54 30 0 54-24 54-54 0-30-24-53-54-53z m0 85c-17 0-32-15-32-32 0-17 15-32 32-32 17 0 32 15 32 32 0 17-15 32-32 32z m139 64l-43 0c-6 0-10 5-10 11 0 6 4 11 10 11l43 0c6 0 11-5 11-11 0-6-5-11-11-11z"/>
<glyph glyph-name="photo-camera" unicode="&#57349;" d="M461 358l-86 0-68 69-102 0-68-69-86 0c-27 0-51-23-51-51l0-170c0-28 24-52 51-52l410 0c27 0 51 24 51 52l0 170c0 28-24 51-51 51z m-205-204c-48 0-85 37-85 85 0 48 37 85 85 85 48 0 85-37 85-85 0-48-37-85-85-85z m188 136c-11 0-17 7-17 17 0 10 6 17 17 17 10 0 17-7 17-17 0-10-7-17-17-17z m-137-51c0-28-23-51-51-51-28 0-51 23-51 51 0 28 23 51 51 51 28 0 51-23 51-51z"/>
<glyph glyph-name="thumbs" unicode="&#57381;" d="M224 512l-213 0c-6 0-11-5-11-11l0-213c0-5 5-10 11-10l213 0c5 0 10 4 10 10l0 213c1 6-4 11-10 11z m-11-213l-192 0 0 192 192 0z m288 213l-213 0c-6 0-11-5-11-11l0-213c0-5 5-10 11-10l213 0c5 0 10 4 10 10l0 213c1 6-4 11-10 11z m-10-213l-192 0 0 192 192 0z m-267-64l-213 0c-6 0-11-5-11-11l0-213c0-6 5-11 11-11l213 0c5 0 10 5 10 11l0 213c1 6-4 11-10 11z m-11-214l-192 0 0 192 192 0z m288 214l-213 0c-6 0-11-5-11-11l0-213c0-5 5-10 11-10l213 0c5 0 10 4 10 10l0 213c1 6-4 11-10 11z m-10-214l-192 0 0 192 192 0z"/>
<glyph glyph-name="balance-bigger" unicode="&#57382;" d="M341 235l0 224c0 36-88 53-171 53-82 0-170-17-170-53l0-320c0-37 88-53 171-53l0-32c0-37 88-53 171-53 82-1 170 15 170 52l0 128c0 37-88 54-171 54z m150-118c0-9-51-31-149-31-98 0-149 22-149 31l0 37c31-18 91-26 149-26 57 0 118 8 148 26l0-37z m-171 278c0-10-51-32-149-32-98 0-149 22-149 32l0 36c31-17 92-25 149-25 57 0 118 8 149 25z m-149-54c57 0 118 8 149 26l0-37c0-9-51-32-149-32-98 0-149 23-149 32l0 37c31-18 91-26 149-26z m0-64c57 0 118 8 149 26l0-37c0-9-51-32-149-32-98 0-149 23-149 32l0 37c31-18 91-26 149-26z m-150-38c31-18 92-26 149-26 11 0 21 0 32 1-20-9-32-20-32-33l0-11c-99 0-149 23-149 32 0 0 0 37 0 37z m470-58c0-9-51-31-149-31-98 0-149 22-149 31 0 10 51 32 149 32 98 0 149-23 149-32z m-182 52c4 3 8 4 11 6l0-5c-4 0-7 0-11-1z m-138 258c98 0 149-23 149-32 0-9-51-32-149-32-98 0-149 22-149 32-1 9 50 32 149 32z m-150-352l0 36c31-17 92-25 149-25l0-43c-98 0-149 22-149 32z m320-118c-98 0-149 23-149 32l0 36c31-17 92-26 149-26 57 0 118 9 149 26l0-36c1-9-50-32-149-32z"/>
<glyph glyph-name="orders" unicode="&#57383;" d="M422 447l-72 0 0 11c0 6-5 11-11 11l-32 0c-5 25-26 43-51 43-25 0-46-18-51-43l-33 0c-6 0-10-5-10-11l0-11-73 0c-6 0-10-4-10-10l0-426c0-6 4-11 10-11l334 0c6 0 10 5 10 11l0 426c1 6-4 10-11 10z m-239 0l32 0c5 0 10 5 10 11 0 18 14 32 31 32 17 0 31-14 31-32 0-5 5-11 10-11l32 0 0-64-146 0z m229-425l-313 0 0 404 63 0 0-52c0-6 4-11 10-11l166 0c6 0 11 5 11 11l0 52 62 0 0-404z m-281 287c0-6 4-11 10-11l230 0c5 0 10 5 10 11 0 6-5 10-10 10l-230 0c-6 1-10-4-10-10z m240-32l-230 0c-6 0-10-5-10-11 0-6 4-10 10-10l230 0c5 0 10 5 10 11 0 6-4 10-10 10z m0-42l-230 0c-6 0-10-5-10-11 0-5 4-10 10-10l230 0c5 0 10 4 10 10 0 6-4 11-10 11z m0-43l-230 0c-6 0-10-5-10-11 0-5 4-11 10-11l230 0c5 0 10 5 10 11 0 7-4 11-10 11z m0-42l-230 0c-6 0-10-5-10-11 0-6 4-11 10-11l230 0c5 0 10 5 10 11 0 6-4 11-10 11z m0-43l-230 0c-6 0-10-5-10-11 0-5 4-10 10-10l230 0c5 0 10 4 10 10 0 6-4 11-10 11z"/>
</font>
</defs>
</svg>
